<?xml version="1.0" encoding="UTF-8" standalone="no"?>
<svg
   xmlns:dc="http://purl.org/dc/elements/1.1/"
   xmlns:cc="http://creativecommons.org/ns#"
   xmlns:rdf="http://www.w3.org/1999/02/22-rdf-syntax-ns#"
   xmlns:svg="http://www.w3.org/2000/svg"
   xmlns="http://www.w3.org/2000/svg"
   xmlns:sodipodi="http://sodipodi.sourceforge.net/DTD/sodipodi-0.dtd"
   xmlns:inkscape="http://www.inkscape.org/namespaces/inkscape"
   width="475.83911pt"
   height="59.257809pt"
   viewBox="0 0 475.8391 59.25781"
   version="1.2"
   id="svg93"
   sodipodi:docname="columbia.svg"
   inkscape:version="0.92.3 (2405546, 2018-03-11)">
  <metadata
     id="metadata97">
    <rdf:RDF>
      <cc:Work
         rdf:about="">
        <dc:format>image/svg+xml</dc:format>
        <dc:type
           rdf:resource="http://purl.org/dc/dcmitype/StillImage" />
        <dc:title></dc:title>
      </cc:Work>
    </rdf:RDF>
  </metadata>
  <sodipodi:namedview
     pagecolor="#ffffff"
     bordercolor="#666666"
     borderopacity="1"
     objecttolerance="10"
     gridtolerance="10"
     guidetolerance="10"
     inkscape:pageopacity="0"
     inkscape:pageshadow="2"
     inkscape:window-width="1920"
     inkscape:window-height="1013"
     id="namedview95"
     showgrid="false"
     inkscape:measure-start="0,0"
     inkscape:measure-end="0,0"
     fit-margin-top="0"
     fit-margin-left="0"
     fit-margin-right="0"
     fit-margin-bottom="0"
     inkscape:zoom="1.6817102"
     inkscape:cx="368.08767"
     inkscape:cy="90.176952"
     inkscape:window-x="-9"
     inkscape:window-y="-9"
     inkscape:window-maximized="1"
     inkscape:current-layer="surface40" />
  <defs
     id="defs8">
    <clipPath
       id="clip1">
      <path
         d="m 246,782.74219 h 2 V 842 h -2 z m 0,0"
         id="path2"
         inkscape:connector-curvature="0" />
    </clipPath>
    <clipPath
       id="clip2">
      <path
         d="m 465,817 h 10.83984 v 10 H 465 Z m 0,0"
         id="path5"
         inkscape:connector-curvature="0" />
    </clipPath>
  </defs>
  <g
     id="surface40"
     transform="translate(-7.3608551e-4,-782.74219)">
    <g
       clip-path="url(#clip1)"
       id="g12"
       style="clip-rule:nonzero">
      <path
         style="fill:#1c4c8f;fill-opacity:1;fill-rule:nonzero;stroke:none"
         d="M 246.66406,782.74219 246.66797,842 h 1.19531 v -59.25781 h -1.19922"
         id="path10"
         inkscape:connector-curvature="0" />
    </g>
    <path
       style="fill:#1c4c8f;fill-opacity:1;fill-rule:nonzero;stroke:none"
       d="m 265.51562,807.78906 c -1.47265,-1.28906 -1.86328,-2.96875 -1.86328,-4.42578 0,-1.01953 0.31641,-2.78906 1.75782,-4.10937 1.07812,-0.98829 2.5039,-1.58985 4.73828,-1.58985 0.92968,0 1.48437,0.0586 2.17578,0.15235 0.57031,0.0742 1.04687,0.20703 1.5,0.2539 0.16406,0.0156 0.22265,0.0899 0.22265,0.17969 0,0.11719 -0.043,0.30078 -0.0742,0.82422 -0.0312,0.49609 -0.0156,1.32031 -0.043,1.62109 -0.0156,0.22266 -0.0469,0.34375 -0.1836,0.34375 -0.11718,0 -0.14843,-0.12109 -0.14843,-0.32812 -0.0156,-0.46875 -0.21094,-0.99219 -0.58594,-1.38282 -0.49219,-0.52343 -1.66406,-0.92968 -3.04297,-0.92968 -1.30469,0 -2.16016,0.33203 -2.82031,0.92968 -1.09375,1.00782 -1.37891,2.42969 -1.37891,3.88672 0,3.57032 2.71484,5.33985 4.72266,5.33985 1.33593,0 2.14453,-0.14844 2.74609,-0.83985 0.25391,-0.28515 0.44922,-0.72265 0.50781,-0.99218 0.0469,-0.23829 0.0781,-0.30079 0.19532,-0.30079 0.10546,0 0.13671,0.10938 0.13671,0.22657 0,0.17968 -0.17968,1.48437 -0.33203,1.99609 -0.0742,0.25391 -0.13281,0.32813 -0.38672,0.43359 -0.60156,0.24219 -1.74218,0.34375 -2.70312,0.34375 -2.05469,0 -3.77734,-0.44921 -5.14063,-1.63281"
       id="path14"
       inkscape:connector-curvature="0" />
    <path
       style="fill:#1c4c8f;fill-opacity:1;fill-rule:nonzero;stroke:none"
       d="m 285.26953,804.625 c 0,-2.82031 -1.69531,-4.55859 -3.82812,-4.55859 -1.46875,0 -3.19532,0.77734 -3.19532,3.92578 0,2.625 1.5,4.69531 3.99219,4.69531 0.92969,0 3.03125,-0.43359 3.03125,-4.0625 z m -8.96875,-0.24219 c 0,-2.17187 1.52734,-4.99219 5.53125,-4.99219 3.33203,0 5.40234,1.84375 5.40234,4.76954 0,2.92578 -2.13281,5.21875 -5.53515,5.21875 -3.83985,0 -5.39844,-2.73047 -5.39844,-4.9961"
       id="path16"
       inkscape:connector-curvature="0" />
    <path
       style="fill:#1c4c8f;fill-opacity:1;fill-rule:nonzero;stroke:none"
       d="m 292.21484,805.50781 c 0,1.63672 0,2.44531 0.28125,2.6875 0.22657,0.19531 0.73828,0.26953 1.75782,0.26953 0.70312,0 1.21484,-0.0156 1.54296,-0.36328 0.16797,-0.16015 0.30079,-0.52344 0.33204,-0.76172 0.0156,-0.12109 0.043,-0.19531 0.14843,-0.19531 0.0899,0 0.1211,0.13672 0.1211,0.28516 0,0.14843 -0.0899,1.09375 -0.19532,1.46875 -0.0898,0.28515 -0.14843,0.34375 -0.83984,0.34375 -0.94531,0 -1.71094,-0.0156 -2.37109,-0.043 -0.66016,-0.0156 -1.21485,-0.0312 -1.75391,-0.0312 -0.14844,0 -0.43359,0.0156 -0.75,0.0156 -0.31641,0.0156 -0.64453,0.0312 -0.91406,0.0312 -0.16797,0 -0.25781,-0.0469 -0.25781,-0.13672 0,-0.0586 0.0469,-0.13281 0.21093,-0.13281 0.19532,0 0.34375,-0.0156 0.46485,-0.0469 0.26953,-0.0586 0.34765,-0.30078 0.39062,-0.67578 0.0586,-0.53907 0.0586,-1.54297 0.0586,-2.71485 v -2.25 c 0,-1.93359 0,-2.29297 -0.0117,-2.69922 -0.0312,-0.43359 -0.15235,-0.57031 -0.57032,-0.6914 -0.10546,-0.0274 -0.26953,-0.043 -0.4375,-0.043 -0.14843,0 -0.22265,-0.043 -0.22265,-0.13281 0,-0.0937 0.0898,-0.1211 0.28515,-0.1211 0.61329,0 1.45313,0.0274 1.8125,0.0274 0.31641,0 1.39454,-0.0274 1.90625,-0.0274 0.19532,0 0.28516,0.0274 0.28516,0.1211 0,0.0898 -0.0742,0.13281 -0.24219,0.13281 -0.14843,0 -0.35937,0.0156 -0.50781,0.043 -0.35937,0.0625 -0.46484,0.24218 -0.49609,0.6914 -0.0274,0.40625 -0.0274,0.76563 -0.0274,2.69922 v 2.25"
       id="path18"
       inkscape:connector-curvature="0" />
    <path
       style="fill:#1c4c8f;fill-opacity:1;fill-rule:nonzero;stroke:none"
       d="m 298.60156,803.25781 c 0,-1.93359 0.0156,-2.29297 -0.0117,-2.69922 -0.0312,-0.44922 -0.15234,-0.57031 -0.57031,-0.6914 -0.10547,-0.0274 -0.33203,-0.043 -0.51172,-0.043 -0.14844,0 -0.22656,-0.043 -0.22656,-0.13281 0,-0.0937 0.0898,-0.1211 0.28516,-0.1211 0.70703,0 1.58984,0.0274 1.98046,0.0274 0.33204,0 1.21485,-0.0274 1.69532,-0.0274 0.19531,0 0.28515,0.0274 0.28515,0.1211 0,0.0898 -0.0742,0.13281 -0.21093,0.13281 -0.14844,0 -0.22266,0.0156 -0.38672,0.043 -0.34766,0.0625 -0.45313,0.24218 -0.48047,0.6914 -0.0312,0.40625 -0.0312,0.76563 -0.0312,2.69922 v 1.78516 c 0,1.86328 0.35937,2.58203 1.0039,3.08984 0.58594,0.46485 1.21485,0.51172 1.66797,0.51172 0.56641,0 1.24219,-0.16797 1.76953,-0.67578 0.73438,-0.6875 0.76172,-1.80078 0.76172,-3.10547 v -1.60547 c 0,-1.93359 -0.0117,-2.29297 -0.0273,-2.69922 -0.0312,-0.43359 -0.13672,-0.57031 -0.55469,-0.6914 -0.10547,-0.0274 -0.33203,-0.043 -0.48047,-0.043 -0.15234,0 -0.22656,-0.043 -0.22656,-0.13281 0,-0.0937 0.0898,-0.1211 0.26953,-0.1211 0.67578,0 1.5625,0.0274 1.57813,0.0274 0.14843,0 1.03515,-0.0274 1.54297,-0.0274 0.17968,0 0.26953,0.0274 0.26953,0.1211 0,0.0898 -0.0742,0.13281 -0.22657,0.13281 -0.14843,0 -0.22265,0.0156 -0.38671,0.043 -0.36329,0.0625 -0.44922,0.24218 -0.48047,0.6914 -0.0156,0.40625 -0.0312,0.76563 -0.0312,2.69922 v 1.36719 c 0,1.42187 -0.14844,2.92187 -1.25782,3.83984 -0.92968,0.77735 -1.9375,0.91407 -2.79296,0.91407 -0.6875,0 -2.05469,-0.0312 -3.01172,-0.8711 -0.67578,-0.58594 -1.20313,-1.52734 -1.20313,-3.375 v -1.875"
       id="path20"
       inkscape:connector-curvature="0" />
    <path
       style="fill:#1c4c8f;fill-opacity:1;fill-rule:nonzero;stroke:none"
       d="m 311.57812,799.67578 c 0.0312,-0.21094 0.14844,-0.33203 0.25391,-0.33203 0.13672,0 0.22656,0.0625 0.40625,0.40625 l 3.53906,7.04687 3.53907,-7.13671 c 0.10546,-0.21094 0.22656,-0.31641 0.34765,-0.31641 0.10547,0 0.25391,0.13672 0.30078,0.40625 l 1.19922,7.84375 c 0.11719,0.79687 0.23828,1.14062 0.64453,1.25781 0.375,0.10938 0.58203,0.1211 0.75,0.1211 0.1211,0 0.20703,0.0469 0.20703,0.12109 0,0.10547 -0.14843,0.14844 -0.34375,0.14844 -0.32812,0 -2.20312,-0.043 -2.73046,-0.0742 -0.3125,-0.0117 -0.38672,-0.0742 -0.38672,-0.14844 0,-0.0586 0.0586,-0.10547 0.14843,-0.13672 0.0742,-0.0312 0.10547,-0.17969 0.0586,-0.53906 l -0.73438,-5.50391 h -0.043 l -2.83593,5.63672 c -0.30078,0.60156 -0.375,0.72266 -0.52735,0.72266 -0.16406,0 -0.3125,-0.25391 -0.52343,-0.64453 -0.31641,-0.58594 -1.36329,-2.53516 -1.51563,-2.89453 -0.10547,-0.24219 -0.88281,-1.78516 -1.32031,-2.67188 h -0.043 l -0.62891,4.92188 c -0.0312,0.22265 -0.0469,0.38671 -0.0469,0.59765 0,0.24219 0.17969,0.33203 0.40625,0.375 0.22265,0.0469 0.34375,0.0625 0.46484,0.0625 0.11719,0 0.20703,0.0586 0.20703,0.11719 0,0.12109 -0.11718,0.15234 -0.3125,0.15234 -0.55468,0 -1.15625,-0.0469 -1.39453,-0.0469 -0.25781,0 -0.88672,0.0469 -1.30469,0.0469 -0.13671,0 -0.24218,-0.0312 -0.24218,-0.15234 0,-0.0586 0.0742,-0.11719 0.21093,-0.11719 0.10547,0 0.19532,0 0.40625,-0.0312 0.35938,-0.0469 0.48047,-0.55469 0.53907,-0.97265 l 1.30468,-8.26563"
       id="path22"
       inkscape:connector-curvature="0" />
    <path
       style="fill:#1c4c8f;fill-opacity:1;fill-rule:nonzero;stroke:none"
       d="m 327.38672,807.21875 c 0,0.83984 0.0469,1.09766 0.46484,1.25781 0.34766,0.13672 0.64453,0.15235 0.94531,0.15235 0.70704,0 1.6211,-0.39063 1.6211,-1.80079 0,-0.58593 -0.25391,-1.58984 -1.2461,-2.26171 -0.26953,-0.19922 -0.6289,-0.33204 -1.14062,-0.33204 h -0.56641 c -0.0469,0 -0.0781,0.0156 -0.0781,0.0898 z m 0,-3.75 c 0,0.10547 0.0469,0.12109 0.0898,0.13672 0.1211,0.0273 0.31641,0.043 0.61719,0.043 0.43359,0 0.80859,-0.043 1.03516,-0.22657 0.34375,-0.26562 0.59765,-0.73046 0.59765,-1.34765 0,-0.85547 -0.50781,-1.91797 -1.64844,-1.91797 -0.17968,0 -0.43359,0 -0.57031,0.0273 -0.0898,0.0156 -0.12109,0.0781 -0.12109,0.21094 z m -1.70703,-0.21094 c 0,-1.93359 0,-2.29297 -0.0156,-2.69922 -0.0312,-0.43359 -0.15234,-0.57031 -0.57031,-0.6914 -0.10547,-0.0274 -0.33203,-0.043 -0.52734,-0.043 -0.13282,0 -0.22266,-0.043 -0.22266,-0.13281 0,-0.0937 0.10547,-0.1211 0.30078,-0.1211 0.6875,0 1.52734,0.0274 1.78516,0.0274 0.66015,0 1.52734,-0.0274 1.97656,-0.0274 2.38672,0 2.80859,1.22656 2.80859,1.90235 0,0.99218 -0.73828,1.75781 -1.48828,2.23828 1.08203,0.34375 2.42969,1.25781 2.42969,2.75781 0,1.36719 -1.07813,2.77344 -3.50781,2.77344 -0.15235,0 -0.60157,-0.0156 -1.05078,-0.043 -0.44922,-0.0156 -0.91407,-0.0312 -1.125,-0.0312 -0.14844,0 -0.4336,0.0156 -0.75,0.0156 -0.31641,0.0156 -0.64454,0.0312 -0.91407,0.0312 -0.16406,0 -0.2539,-0.0469 -0.2539,-0.13672 0,-0.0586 0.043,-0.13281 0.20703,-0.13281 0.19531,0 0.34765,-0.0156 0.46484,-0.0469 0.26953,-0.0586 0.34766,-0.30078 0.39063,-0.67578 0.0625,-0.53907 0.0625,-1.54297 0.0625,-2.71485 v -2.25"
       id="path24"
       inkscape:connector-curvature="0" />
    <path
       style="fill:#1c4c8f;fill-opacity:1;fill-rule:nonzero;stroke:none"
       d="m 335.42969,803.25781 c 0,-1.93359 0,-2.29297 -0.0156,-2.69922 -0.0312,-0.43359 -0.16797,-0.58593 -0.44922,-0.67187 -0.15234,-0.0469 -0.3164,-0.0625 -0.48047,-0.0625 -0.13671,0 -0.21093,-0.0312 -0.21093,-0.14844 0,-0.0781 0.10547,-0.10547 0.3164,-0.10547 0.49219,0 1.39453,0.0274 1.76953,0.0274 0.32813,0 1.1836,-0.0274 1.69532,-0.0274 0.16406,0 0.26953,0.0274 0.26953,0.10547 0,0.11719 -0.0781,0.14844 -0.21094,0.14844 -0.13672,0 -0.24219,0.0156 -0.39062,0.043 -0.35938,0.0625 -0.46485,0.24218 -0.4961,0.6914 -0.0273,0.40625 -0.0273,0.76563 -0.0273,2.69922 v 2.25 c 0,1.23047 0,2.25 0.0586,2.78906 0.0469,0.34766 0.13672,0.54297 0.52344,0.60157 0.18359,0.0312 0.48047,0.0469 0.67578,0.0469 0.15234,0 0.21094,0.0742 0.21094,0.13281 0,0.0898 -0.10547,0.13672 -0.25391,0.13672 -0.87109,0 -1.76953,-0.0469 -2.13281,-0.0469 -0.29688,0 -1.19922,0.0469 -1.72266,0.0469 -0.16406,0 -0.2539,-0.0469 -0.2539,-0.13672 0,-0.0586 0.043,-0.13281 0.21093,-0.13281 0.19141,0 0.34375,-0.0156 0.46094,-0.0469 0.26953,-0.0586 0.34766,-0.23828 0.39063,-0.61328 0.0625,-0.52735 0.0625,-1.54688 0.0625,-2.77735 v -2.25"
       id="path26"
       inkscape:connector-curvature="0" />
    <path
       style="fill:#1c4c8f;fill-opacity:1;fill-rule:nonzero;stroke:none"
       d="m 345.67187,805.28516 c 0.0625,0 0.0742,-0.0312 0.0625,-0.0742 l -1.24609,-3.19532 c -0.0156,-0.0469 -0.0312,-0.12109 -0.0586,-0.12109 -0.0469,0 -0.0625,0.0742 -0.0781,0.12109 l -1.27344,3.17969 c -0.0312,0.0586 0,0.0899 0.043,0.0899 z m -2.82031,0.70312 c -0.0742,0 -0.0859,0.0156 -0.11719,0.0898 l -0.70703,1.72657 c -0.13281,0.3125 -0.19531,0.6289 -0.19531,0.78125 0,0.22265 0.12109,0.35937 0.52734,0.35937 h 0.19532 c 0.16406,0 0.1914,0.0586 0.1914,0.13281 0,0.10547 -0.0742,0.13672 -0.20703,0.13672 -0.4375,0 -1.05078,-0.0469 -1.47265,-0.0469 -0.13282,0 -0.83985,0.0469 -1.52735,0.0469 -0.16797,0 -0.24219,-0.0312 -0.24219,-0.13672 0,-0.0742 0.0469,-0.13281 0.15235,-0.13281 0.11719,0 0.26953,-0.0156 0.39062,-0.0156 0.59766,-0.0899 0.82422,-0.48047 1.09375,-1.125 l 3.44922,-7.96485 c 0.14844,-0.35937 0.25391,-0.51172 0.39063,-0.51172 0.19531,0 0.2539,0.1211 0.39062,0.40625 0.3125,0.70704 2.51953,5.86329 3.35938,7.80079 0.50781,1.15234 0.88281,1.3164 1.125,1.36328 0.19531,0.0312 0.34375,0.0469 0.49609,0.0469 0.11719,0 0.17969,0.043 0.17969,0.13281 0,0.10547 -0.0781,0.13672 -0.57031,0.13672 -0.46485,0 -1.42579,0 -2.53516,-0.0312 -0.24219,-0.0156 -0.39063,-0.0156 -0.39063,-0.10547 0,-0.0742 0.0312,-0.11718 0.16407,-0.13281 0.0898,-0.0156 0.17968,-0.13672 0.12109,-0.28515 l -1.01953,-2.58204 c -0.0312,-0.0742 -0.0742,-0.0898 -0.13672,-0.0898 h -3.10547"
       id="path28"
       inkscape:connector-curvature="0" />
    <path
       style="fill:#1c4c8f;fill-opacity:1;fill-rule:nonzero;stroke:none"
       d="m 357.41797,802.22266 c 0,-2.27735 0,-2.69922 -0.0274,-3.17969 -0.0312,-0.50781 -0.15234,-0.75 -0.64843,-0.85156 -0.1211,-0.0312 -0.375,-0.0469 -0.58203,-0.0469 -0.16797,0 -0.25782,-0.0312 -0.25782,-0.13281 0,-0.10547 0.10547,-0.13672 0.33203,-0.13672 0.79297,0 1.73829,0.043 2.1875,0.043 0.35938,0 1.30469,-0.043 1.84766,-0.043 0.22266,0 0.32813,0.0312 0.32813,0.13672 0,0.10156 -0.0899,0.13281 -0.23829,0.13281 -0.16796,0 -0.25781,0.0156 -0.4375,0.0469 -0.40234,0.0742 -0.52343,0.32812 -0.55468,0.85156 -0.0274,0.48047 -0.0274,0.90234 -0.0274,3.17969 v 2.10156 c 0,2.17578 0.4336,3.08984 1.16797,3.6914 0.67578,0.55469 1.36328,0.61329 1.875,0.61329 0.66016,0 1.46875,-0.21094 2.07031,-0.8086 0.82422,-0.82812 0.8711,-2.17578 0.8711,-3.72265 v -1.875 c 0,-2.27735 0,-2.69922 -0.0312,-3.17969 -0.0312,-0.50781 -0.14844,-0.75 -0.64453,-0.85156 -0.1211,-0.0312 -0.375,-0.0469 -0.53907,-0.0469 -0.16796,0 -0.25781,-0.0312 -0.25781,-0.13281 0,-0.10547 0.10547,-0.13672 0.31641,-0.13672 0.76562,0 1.71094,0.043 1.72656,0.043 0.17969,0 1.125,-0.043 1.70703,-0.043 0.21094,0 0.31641,0.0312 0.31641,0.13672 0,0.10156 -0.0899,0.13281 -0.26953,0.13281 -0.16407,0 -0.25391,0.0156 -0.4336,0.0469 -0.40625,0.0742 -0.52734,0.32812 -0.55859,0.85156 -0.0273,0.48047 -0.0273,0.90234 -0.0273,3.17969 v 1.60546 c 0,1.66407 -0.16407,3.4375 -1.42579,4.51563 -1.0664,0.91406 -2.14453,1.07812 -3.12109,1.07812 -0.79297,0 -2.23437,-0.043 -3.32812,-1.03125 -0.76563,-0.6914 -1.33594,-1.80078 -1.33594,-3.97656 v -2.1914"
       id="path30"
       inkscape:connector-curvature="0" />
    <path
       style="fill:#1c4c8f;fill-opacity:1;fill-rule:nonzero;stroke:none"
       d="m 371.51953,807.47266 c 0.0273,0.99218 0.19531,1.29296 0.44922,1.3789 0.22266,0.0781 0.48047,0.0937 0.6875,0.0937 0.15234,0 0.22656,0.0586 0.22656,0.13281 0,0.10547 -0.12109,0.13672 -0.30078,0.13672 -0.85547,0 -1.46875,-0.0469 -1.71094,-0.0469 -0.11718,0 -0.75,0.0469 -1.42187,0.0469 -0.17969,0 -0.30078,-0.0156 -0.30078,-0.13672 0,-0.0742 0.0898,-0.13281 0.21093,-0.13281 0.17969,0 0.41797,-0.0156 0.59766,-0.0625 0.34766,-0.0898 0.39063,-0.43359 0.40625,-1.54297 l 0.12109,-7.55859 c 0,-0.25781 0.0899,-0.4375 0.22266,-0.4375 0.16406,0 0.34766,0.19531 0.57031,0.42187 0.16407,0.16407 2.14453,2.1875 4.06641,4.0625 0.89844,0.88672 2.65234,2.6875 2.84766,2.86719 h 0.0625 l -0.13672,-5.67187 c -0.0156,-0.78125 -0.13282,-1.00391 -0.44922,-1.125 -0.19531,-0.0742 -0.51172,-0.0742 -0.69141,-0.0742 -0.16406,0 -0.20703,-0.0586 -0.20703,-0.13281 0,-0.10547 0.13281,-0.1211 0.32813,-0.1211 0.6914,0 1.39453,0.0274 1.67968,0.0274 0.15235,0 0.64453,-0.0274 1.28907,-0.0274 0.17968,0 0.30078,0.0156 0.30078,0.1211 0,0.0742 -0.0742,0.13281 -0.22657,0.13281 -0.13281,0 -0.23828,0 -0.40234,0.043 -0.35937,0.10547 -0.46484,0.33203 -0.48047,1.05078 l -0.14844,8.04297 c 0,0.28125 -0.10546,0.40234 -0.21093,0.40234 -0.22657,0 -0.40625,-0.13672 -0.53907,-0.26953 -0.82812,-0.76563 -2.47656,-2.33984 -3.85546,-3.67578 -1.44141,-1.37891 -2.83594,-2.92578 -3.08985,-3.14844 h -0.0469 l 0.15234,5.20313"
       id="path32"
       inkscape:connector-curvature="0" />
    <path
       style="fill:#1c4c8f;fill-opacity:1;fill-rule:nonzero;stroke:none"
       d="m 384.05859,803.25781 c 0,-1.93359 0,-2.29297 -0.0156,-2.69922 -0.0312,-0.43359 -0.16406,-0.58593 -0.44922,-0.67187 -0.15234,-0.0469 -0.31641,-0.0625 -0.48047,-0.0625 -0.13672,0 -0.21094,-0.0312 -0.21094,-0.14844 0,-0.0781 0.10547,-0.10547 0.31641,-0.10547 0.49609,0 1.39453,0.0274 1.76953,0.0274 0.32813,0 1.18359,-0.0274 1.69531,-0.0274 0.16407,0 0.26953,0.0274 0.26953,0.10547 0,0.11719 -0.0742,0.14844 -0.21093,0.14844 -0.13282,0 -0.23828,0.0156 -0.39063,0.043 -0.35937,0.0625 -0.46484,0.24218 -0.49219,0.6914 -0.0312,0.40625 -0.0312,0.76563 -0.0312,2.69922 v 2.25 c 0,1.23047 0,2.25 0.0586,2.78906 0.0469,0.34766 0.13672,0.54297 0.52734,0.60157 0.17969,0.0312 0.47656,0.0469 0.67578,0.0469 0.14844,0 0.20703,0.0742 0.20703,0.13281 0,0.0898 -0.10546,0.13672 -0.2539,0.13672 -0.8711,0 -1.76953,-0.0469 -2.12891,-0.0469 -0.30078,0 -1.19922,0.0469 -1.72656,0.0469 -0.16406,0 -0.25391,-0.0469 -0.25391,-0.13672 0,-0.0586 0.043,-0.13281 0.21094,-0.13281 0.19531,0 0.34375,-0.0156 0.46484,-0.0469 0.26954,-0.0586 0.34375,-0.23828 0.38672,-0.61328 0.0625,-0.52735 0.0625,-1.54688 0.0625,-2.77735 v -2.25"
       id="path34"
       inkscape:connector-curvature="0" />
    <path
       style="fill:#1c4c8f;fill-opacity:1;fill-rule:nonzero;stroke:none"
       d="m 389.66797,800.81641 c -0.30078,-0.70704 -0.4961,-0.82813 -0.97656,-0.94922 -0.19532,-0.043 -0.40235,-0.043 -0.50782,-0.043 -0.12109,0 -0.15234,-0.0586 -0.15234,-0.13281 0,-0.10547 0.13672,-0.1211 0.33203,-0.1211 0.70313,0 1.45313,0.0274 1.91797,0.0274 0.33203,0 1.02344,-0.0274 1.68359,-0.0274 0.16407,0 0.3125,0.0274 0.3125,0.1211 0,0.0898 -0.0898,0.13281 -0.21093,0.13281 -0.20704,0 -0.40235,0.0156 -0.50782,0.0898 -0.0898,0.0586 -0.13672,0.13672 -0.13672,0.25391 0,0.16797 0.1211,0.51172 0.30079,0.96094 l 2.21875,5.71484 h 0.0469 c 0.57031,-1.32031 2.26563,-5.42969 2.57813,-6.26953 0.0625,-0.16406 0.12109,-0.35938 0.12109,-0.46485 0,-0.13671 -0.0586,-0.17968 -0.17969,-0.22265 -0.15234,-0.0469 -0.35937,-0.0625 -0.52734,-0.0625 -0.11719,0 -0.22266,-0.043 -0.22266,-0.13281 0,-0.0937 0.1211,-0.1211 0.375,-0.1211 0.66016,0 1.2461,0.0274 1.41016,0.0274 0.22265,0 0.83984,-0.0274 1.24219,-0.0274 0.16796,0 0.27343,0.0274 0.27343,0.1211 0,0.0898 -0.0781,0.13281 -0.21093,0.13281 -0.13282,0 -0.41797,-0.0156 -0.64454,0.14844 -0.16796,0.12109 -0.34765,0.3164 -0.6914,1.125 -0.52344,1.19921 -0.8711,1.89062 -1.58985,3.44921 -0.83984,1.86329 -1.45312,3.25782 -1.7539,3.90235 -0.32813,0.73437 -0.44922,0.92969 -0.62891,0.92969 -0.17969,0 -0.28515,-0.16407 -0.54297,-0.76563 l -3.32812,-7.79687"
       id="path36"
       inkscape:connector-curvature="0" />
    <path
       style="fill:#1c4c8f;fill-opacity:1;fill-rule:nonzero;stroke:none"
       d="m 401.21875,803.25781 c 0,-1.93359 0,-2.29297 -0.0156,-2.69922 -0.0312,-0.43359 -0.14843,-0.57031 -0.57031,-0.6914 -0.10547,-0.0274 -0.32812,-0.043 -0.52734,-0.043 -0.13281,0 -0.22266,-0.043 -0.22266,-0.13281 0,-0.0937 0.10547,-0.1211 0.30078,-0.1211 0.6875,0 1.53125,0.0274 1.90625,0.0274 0.41797,0 3.34375,0.0156 3.59766,0 0.24219,-0.0117 0.44922,-0.0586 0.55469,-0.0742 0.0742,-0.0117 0.14843,-0.0586 0.21093,-0.0586 0.0742,0 0.0899,0.0586 0.0899,0.1211 0,0.0898 -0.0742,0.23828 -0.10547,0.82422 -0.0156,0.13281 -0.0469,0.6875 -0.0742,0.83984 -0.0156,0.0586 -0.0469,0.21094 -0.15234,0.21094 -0.0899,0 -0.10547,-0.0625 -0.10547,-0.16797 0,-0.0898 -0.0117,-0.3125 -0.0899,-0.46485 -0.10546,-0.22265 -0.20703,-0.40625 -0.86718,-0.46484 -0.22657,-0.0273 -1.80078,-0.0586 -2.07032,-0.0586 -0.0625,0 -0.0898,0.043 -0.0898,0.11718 v 3.15235 c 0,0.0742 0.0156,0.13672 0.0898,0.13672 0.30079,0 2.00782,0 2.3086,-0.0312 0.3164,-0.0312 0.49609,-0.0742 0.6289,-0.19532 0.10547,-0.0898 0.15235,-0.16406 0.21094,-0.16406 0.0586,0 0.10547,0.0586 0.10547,0.13281 0,0.0781 -0.0273,0.28516 -0.10547,0.92969 -0.0312,0.25781 -0.0586,0.76563 -0.0586,0.85547 0,0.10547 -0.0156,0.28516 -0.13672,0.28516 -0.0898,0 -0.12109,-0.043 -0.12109,-0.10547 -0.0117,-0.13281 -0.0117,-0.30078 -0.043,-0.46485 -0.0742,-0.2539 -0.23828,-0.44921 -0.73438,-0.49218 -0.24219,-0.0312 -1.74219,-0.0625 -2.07031,-0.0625 -0.0586,0 -0.0742,0.0625 -0.0742,0.13672 v 1.01953 c 0,0.43359 -0.0156,1.51562 0,1.89062 0.0273,0.8711 0.43359,1.0625 1.78516,1.0625 0.34375,0 0.89843,-0.0156 1.24218,-0.16406 0.33204,-0.14844 0.48047,-0.42188 0.57032,-0.94531 0.0312,-0.13282 0.0625,-0.19532 0.15234,-0.19532 0.10547,0 0.11719,0.16407 0.11719,0.30079 0,0.28515 -0.10156,1.15625 -0.17578,1.41015 -0.0937,0.32813 -0.21094,0.32813 -0.70703,0.32813 -0.99219,0 -1.78516,-0.0156 -2.42969,-0.043 -0.64453,-0.0156 -1.14063,-0.0312 -1.53125,-0.0312 -0.14844,0 -0.4336,0.0156 -0.75,0.0156 -0.31641,0.0156 -0.64453,0.0312 -0.91406,0.0312 -0.16407,0 -0.25391,-0.0469 -0.25391,-0.13672 0,-0.0586 0.043,-0.13281 0.21094,-0.13281 0.1914,0 0.34375,-0.0156 0.46093,-0.0469 0.26954,-0.0586 0.34766,-0.30078 0.39063,-0.67578 0.0625,-0.53907 0.0625,-1.54297 0.0625,-2.71485 v -2.25"
       id="path38"
       inkscape:connector-curvature="0" />
    <path
       style="fill:#1c4c8f;fill-opacity:1;fill-rule:nonzero;stroke:none"
       d="m 411.98828,804.25 c 0,0.13281 0.0273,0.17969 0.11719,0.22266 0.28515,0.0937 0.67578,0.12109 1.00781,0.12109 0.52344,0 0.70313,-0.0469 0.92969,-0.21094 0.40234,-0.28515 0.85547,-0.83984 0.85547,-1.89062 0,-1.79688 -1.23047,-2.26172 -2.01172,-2.26172 -0.32813,0 -0.64453,0.0117 -0.78125,0.043 -0.0899,0.0312 -0.11719,0.0742 -0.11719,0.17968 z m -1.67969,-0.99219 c 0,-1.93359 0,-2.29297 -0.0156,-2.69922 -0.0312,-0.43359 -0.15235,-0.57031 -0.57031,-0.6914 -0.10547,-0.0274 -0.33204,-0.043 -0.52735,-0.043 -0.13281,0 -0.22265,-0.043 -0.22265,-0.13281 0,-0.0937 0.10546,-0.1211 0.30078,-0.1211 0.6875,0 1.53125,0.0274 1.79687,0.0274 0.45313,0 1.65235,-0.0274 2.0586,-0.0274 0.83984,0 1.79687,0.0742 2.5039,0.53906 0.375,0.25391 0.92969,0.89844 0.92969,1.75391 0,0.94531 -0.53906,1.78516 -1.83203,2.82031 1.17187,1.44141 2.10156,2.59766 2.89844,3.39063 0.73437,0.73437 1.19921,0.79297 1.40625,0.83984 0.13671,0.0312 0.21093,0.0312 0.3164,0.0312 0.10547,0 0.16406,0.0742 0.16406,0.13281 0,0.10547 -0.0898,0.13672 -0.2539,0.13672 h -1.25781 c -0.73829,0 -1.09766,-0.0742 -1.44141,-0.2539 -0.57031,-0.28907 -1.06641,-0.88672 -1.80078,-1.875 -0.52344,-0.69141 -1.07813,-1.54688 -1.2461,-1.74219 -0.0742,-0.0742 -0.14843,-0.0898 -0.23828,-0.0898 l -1.18359,-0.0312 c -0.0625,0 -0.10547,0.0312 -0.10547,0.10546 v 0.17969 c 0,1.1875 0.0156,2.17578 0.0742,2.71485 0.043,0.375 0.10547,0.61718 0.50781,0.67578 0.19531,0.0312 0.48438,0.0469 0.64844,0.0469 0.10156,0 0.16406,0.0742 0.16406,0.13281 0,0.0898 -0.10547,0.13672 -0.26953,0.13672 -0.76562,0 -1.85937,-0.0469 -2.05469,-0.0469 -0.2539,0 -1.09765,0.0469 -1.62109,0.0469 -0.16406,0 -0.25391,-0.0469 -0.25391,-0.13672 0,-0.0586 0.043,-0.13281 0.20703,-0.13281 0.19922,0 0.34766,-0.0156 0.46485,-0.0469 0.27344,-0.0586 0.34765,-0.30078 0.39062,-0.67578 0.0625,-0.53907 0.0625,-1.54297 0.0625,-2.71485 v -2.25"
       id="path40"
       inkscape:connector-curvature="0" />
    <path
       style="fill:#1c4c8f;fill-opacity:1;fill-rule:nonzero;stroke:none"
       d="m 420.40234,809.04687 c -0.21093,-0.0859 -0.2539,-0.14843 -0.2539,-0.43359 0,-0.69141 0.0586,-1.48437 0.0742,-1.69531 0,-0.19531 0.0586,-0.32813 0.16406,-0.32813 0.12109,0 0.13672,0.1211 0.13672,0.20703 0,0.16797 0.043,0.4375 0.11718,0.66407 0.28907,0.94531 1.27735,1.25781 2.10157,1.25781 1.14062,0 1.82812,-0.71875 1.82812,-1.62109 0,-0.55469 -0.13281,-1.10938 -1.30469,-1.80079 l -0.76171,-0.44921 c -1.5625,-0.91407 -2.07032,-1.76954 -2.07032,-2.89454 0,-1.55859 1.5,-2.5625 3.32813,-2.5625 0.85547,0 1.53125,0.1211 1.875,0.20704 0.12109,0.0312 0.17969,0.0781 0.17969,0.16796 0,0.16407 -0.043,0.52344 -0.043,1.52735 0,0.27344 -0.0586,0.40625 -0.16797,0.40625 -0.0899,0 -0.13281,-0.0742 -0.13281,-0.22656 0,-0.11719 -0.0586,-0.50782 -0.34375,-0.83594 -0.19532,-0.24219 -0.61719,-0.60156 -1.47266,-0.60156 -0.94141,0 -1.80078,0.49609 -1.80078,1.36328 0,0.57031 0.21094,1.01953 1.39844,1.67968 l 0.53906,0.30079 c 1.73828,0.96093 2.27734,1.9375 2.27734,3.08984 0,0.94531 -0.35547,1.71094 -1.3164,2.38281 -0.63282,0.45313 -1.5,0.52735 -2.20704,0.52735 -0.76562,0 -1.57421,-0.0742 -2.14453,-0.33204"
       id="path42"
       inkscape:connector-curvature="0" />
    <path
       style="fill:#1c4c8f;fill-opacity:1;fill-rule:nonzero;stroke:none"
       d="m 429.67187,803.25781 c 0,-1.93359 0,-2.29297 -0.0156,-2.69922 -0.0273,-0.43359 -0.16406,-0.58593 -0.44922,-0.67187 -0.14844,-0.0469 -0.31641,-0.0625 -0.48047,-0.0625 -0.13281,0 -0.21094,-0.0312 -0.21094,-0.14844 0,-0.0781 0.10547,-0.10547 0.31641,-0.10547 0.49609,0 1.39453,0.0274 1.76953,0.0274 0.33203,0 1.1836,-0.0274 1.69531,-0.0274 0.16797,0 0.26954,0.0274 0.26954,0.10547 0,0.11719 -0.0742,0.14844 -0.21094,0.14844 -0.13281,0 -0.23828,0.0156 -0.38672,0.043 -0.36328,0.0625 -0.46484,0.24218 -0.49609,0.6914 -0.0312,0.40625 -0.0312,0.76563 -0.0312,2.69922 v 2.25 c 0,1.23047 0,2.25 0.0625,2.78906 0.043,0.34766 0.13281,0.54297 0.52343,0.60157 0.17969,0.0312 0.48047,0.0469 0.67578,0.0469 0.14844,0 0.20704,0.0742 0.20704,0.13281 0,0.0898 -0.10157,0.13672 -0.25391,0.13672 -0.87109,0 -1.76953,-0.0469 -2.12891,-0.0469 -0.30078,0 -1.19922,0.0469 -1.72265,0.0469 -0.16797,0 -0.25782,-0.0469 -0.25782,-0.13672 0,-0.0586 0.0469,-0.13281 0.21094,-0.13281 0.19531,0 0.34375,-0.0156 0.46485,-0.0469 0.26953,-0.0586 0.34375,-0.23828 0.39062,-0.61328 0.0586,-0.52735 0.0586,-1.54688 0.0586,-2.77735 v -2.25"
       id="path44"
       inkscape:connector-curvature="0" />
    <path
       style="fill:#1c4c8f;fill-opacity:1;fill-rule:nonzero;stroke:none"
       d="m 438.28125,800.34766 -1.96484,0.0469 c -0.76563,0.0156 -1.07813,0.10547 -1.27344,0.39063 -0.13672,0.17968 -0.19531,0.34375 -0.22656,0.43359 -0.0312,0.10547 -0.0586,0.16406 -0.14844,0.16406 -0.0899,0 -0.1211,-0.0742 -0.1211,-0.21094 0,-0.20703 0.25391,-1.4375 0.28516,-1.54296 0.0312,-0.16407 0.0742,-0.23829 0.14844,-0.23829 0.10547,0 0.24219,0.10157 0.57031,0.14844 0.39063,0.0469 0.88672,0.0586 1.32031,0.0586 h 5.35547 c 0.41797,0 0.70703,-0.0274 0.90235,-0.0586 0.20703,-0.0273 0.3125,-0.0586 0.35546,-0.0586 0.0937,0 0.10938,0.0742 0.10938,0.26953 0,0.26953 -0.0312,1.21484 -0.0312,1.54297 -0.0156,0.13672 -0.0469,0.21094 -0.12109,0.21094 -0.10547,0 -0.13282,-0.0586 -0.14844,-0.25391 l -0.0156,-0.13672 c -0.0312,-0.32812 -0.375,-0.71875 -1.55859,-0.73437 l -1.66797,-0.0312 v 5.16015 c 0,1.17188 0.0156,2.17578 0.0781,2.73047 0.043,0.35938 0.11718,0.60156 0.50781,0.66016 0.17969,0.0312 0.48047,0.0469 0.67578,0.0469 0.14844,0 0.20703,0.0742 0.20703,0.13281 0,0.0898 -0.10156,0.13672 -0.25391,0.13672 -0.87109,0 -1.7539,-0.0469 -2.1289,-0.0469 -0.30078,0 -1.19922,0.0469 -1.72656,0.0469 -0.16407,0 -0.25391,-0.0469 -0.25391,-0.13672 0,-0.0586 0.0469,-0.13281 0.21094,-0.13281 0.19531,0 0.35937,-0.0156 0.46484,-0.0469 0.26953,-0.0586 0.34375,-0.30078 0.39063,-0.67578 0.0586,-0.53907 0.0586,-1.54297 0.0586,-2.71485 v -5.16015"
       id="path46"
       inkscape:connector-curvature="0" />
    <path
       style="fill:#1c4c8f;fill-opacity:1;fill-rule:nonzero;stroke:none"
       d="m 448.26953,805.89844 c 0,-0.6875 -0.11719,-0.95703 -0.29687,-1.33203 -0.0899,-0.19922 -1.89063,-3 -2.35547,-3.67579 -0.33203,-0.46875 -0.60157,-0.76562 -0.85547,-0.90234 -0.16406,-0.0898 -0.39063,-0.16406 -0.55469,-0.16406 -0.10547,0 -0.19531,-0.043 -0.19531,-0.13281 0,-0.0937 0.0898,-0.1211 0.2539,-0.1211 0.22657,0 1.21485,0.0274 1.64844,0.0274 0.28516,0 0.90235,-0.0274 1.5,-0.0274 0.1211,0 0.19531,0.0274 0.19531,0.1211 0,0.10156 -0.0898,0.10156 -0.29687,0.16406 -0.10547,0.0312 -0.17969,0.0898 -0.17969,0.19531 0,0.10547 0.0586,0.25391 0.16406,0.43359 0.23829,0.39063 1.96485,3.375 2.1875,3.73438 0.16797,-0.30078 1.77344,-3.02734 1.96485,-3.42188 0.13672,-0.28125 0.19531,-0.50781 0.19531,-0.67187 0,-0.12109 -0.0586,-0.23828 -0.28516,-0.28516 -0.11718,-0.0312 -0.23828,-0.0469 -0.23828,-0.14843 0,-0.0937 0.0742,-0.1211 0.22657,-0.1211 0.43359,0 0.89843,0.0274 1.28906,0.0274 0.28515,0 1.15234,-0.0274 1.41015,-0.0274 0.14844,0 0.23829,0.0274 0.23829,0.10547 0,0.0898 -0.10547,0.14844 -0.25391,0.14844 -0.13672,0 -0.375,0.0625 -0.57031,0.14844 -0.28516,0.13671 -0.40235,0.25781 -0.69141,0.60156 -0.43359,0.51172 -2.32422,3.53906 -2.5625,4.08203 -0.19531,0.46094 -0.16797,0.85156 -0.16797,1.27344 v 1.01953 c 0,0.21094 0,0.73437 0.0312,1.27344 0.0312,0.375 0.15235,0.61718 0.53906,0.67578 0.19922,0.0312 0.48047,0.0469 0.66016,0.0469 0.15234,0 0.22656,0.0742 0.22656,0.13281 0,0.0898 -0.10547,0.13672 -0.28515,0.13672 -0.82422,0 -1.71094,-0.0469 -2.07032,-0.0469 -0.32812,0 -1.21484,0.0469 -1.70703,0.0469 -0.18359,0 -0.28906,-0.0312 -0.28906,-0.13672 0,-0.0586 0.0625,-0.13281 0.21094,-0.13281 0.17969,0 0.34375,-0.0156 0.46484,-0.0469 0.27344,-0.0586 0.375,-0.30078 0.40625,-0.67578 0.043,-0.53907 0.043,-1.0625 0.043,-1.27344 v -1.05078"
       id="path48"
       inkscape:connector-curvature="0" />
    <path
       style="fill:#1c4c8f;fill-opacity:1;fill-rule:nonzero;stroke:none"
       d="m 265.28906,819.97266 c 0,-2.27735 0,-2.69922 -0.0312,-3.17969 -0.0312,-0.50781 -0.17969,-0.76172 -0.51172,-0.83985 -0.16406,-0.043 -0.35547,-0.0586 -0.53906,-0.0586 -0.14844,0 -0.23828,-0.0312 -0.23828,-0.15234 0,-0.0859 0.12109,-0.11719 0.35937,-0.11719 0.57032,0 1.51563,0.043 1.94922,0.043 0.375,0 1.26172,-0.043 1.83203,-0.043 0.19532,0 0.3125,0.0312 0.3125,0.11719 0,0.12109 -0.0898,0.15234 -0.23828,0.15234 -0.15234,0 -0.26953,0.0156 -0.44922,0.0469 -0.40625,0.0742 -0.52734,0.32812 -0.55468,0.85156 -0.0312,0.48047 -0.0312,0.90234 -0.0312,3.17969 v 2.64062 c 0,1.45703 0,2.64063 0.0586,3.28516 0.0469,0.40625 0.15234,0.67578 0.60156,0.73437 0.21094,0.0312 0.53907,0.0625 0.76563,0.0625 0.16406,0 0.23828,0.043 0.23828,0.11719 0,0.10547 -0.12109,0.15234 -0.28516,0.15234 -0.98828,0 -1.93359,-0.0469 -2.33984,-0.0469 -0.34375,0 -1.28906,0.0469 -1.89063,0.0469 -0.19531,0 -0.30078,-0.0469 -0.30078,-0.15234 0,-0.0742 0.0625,-0.11719 0.24219,-0.11719 0.22656,0 0.40625,-0.0312 0.53906,-0.0625 0.30078,-0.0586 0.39063,-0.3125 0.4375,-0.75 0.0742,-0.6289 0.0742,-1.8125 0.0742,-3.26953 v -2.64062"
       id="path50"
       inkscape:connector-curvature="0" />
    <path
       style="fill:#1c4c8f;fill-opacity:1;fill-rule:nonzero;stroke:none"
       d="m 273.89844,822 c 0,0.13281 0.0312,0.17969 0.12109,0.22266 0.28516,0.0937 0.67188,0.12109 1.00391,0.12109 0.52343,0 0.70312,-0.0469 0.92968,-0.21094 0.40625,-0.28515 0.85547,-0.83984 0.85547,-1.89062 0,-1.79688 -1.23047,-2.26172 -2.01172,-2.26172 -0.32812,0 -0.64453,0.0117 -0.77734,0.043 -0.0898,0.0312 -0.12109,0.0742 -0.12109,0.17968 z m -1.67969,-0.99219 c 0,-1.93359 0,-2.29297 -0.0156,-2.69922 -0.0312,-0.43359 -0.14843,-0.57031 -0.57031,-0.6914 -0.10547,-0.0274 -0.32812,-0.043 -0.52344,-0.043 -0.13671,0 -0.22656,-0.043 -0.22656,-0.13281 0,-0.0937 0.10547,-0.1211 0.30078,-0.1211 0.6875,0 1.53125,0.0274 1.80078,0.0274 0.44922,0 1.64844,-0.0274 2.05469,-0.0274 0.83985,0 1.80078,0.0742 2.50391,0.53906 0.375,0.25391 0.92969,0.89844 0.92969,1.75391 0,0.94531 -0.53907,1.78516 -1.82813,2.82031 1.16797,1.44141 2.09766,2.59766 2.89453,3.39063 0.73438,0.73437 1.19922,0.79297 1.41016,0.83984 0.13281,0.0312 0.20703,0.0312 0.3125,0.0312 0.10547,0 0.16797,0.0742 0.16797,0.13281 0,0.10547 -0.0899,0.13672 -0.25782,0.13672 h -1.25781 c -0.73437,0 -1.09765,-0.0742 -1.4414,-0.2539 -0.57032,-0.28907 -1.06641,-0.88672 -1.80079,-1.875 -0.52343,-0.69141 -1.07812,-1.54688 -1.24218,-1.74219 -0.0781,-0.0742 -0.15235,-0.0898 -0.24219,-0.0898 l -1.18359,-0.0312 c -0.0625,0 -0.10547,0.0312 -0.10547,0.10546 v 0.17969 c 0,1.1875 0.0156,2.17578 0.0742,2.71485 0.0469,0.375 0.10546,0.61718 0.51171,0.67578 0.19532,0.0312 0.48047,0.0469 0.64454,0.0469 0.10546,0 0.16406,0.0742 0.16406,0.13281 0,0.0898 -0.10547,0.13672 -0.26953,0.13672 -0.76563,0 -1.85938,-0.0469 -2.05469,-0.0469 -0.25391,0 -1.09766,0.0469 -1.62109,0.0469 -0.16407,0 -0.25391,-0.0469 -0.25391,-0.13672 0,-0.0586 0.0469,-0.13281 0.21094,-0.13281 0.1914,0 0.34375,-0.0156 0.46484,-0.0469 0.26953,-0.0586 0.34375,-0.30078 0.39063,-0.67578 0.0586,-0.53907 0.0586,-1.54297 0.0586,-2.71485 v -2.25"
       id="path52"
       inkscape:connector-curvature="0" />
    <path
       style="fill:#1c4c8f;fill-opacity:1;fill-rule:nonzero;stroke:none"
       d="m 281.64062,818.56641 c -0.30078,-0.70704 -0.49609,-0.82813 -0.97656,-0.94922 -0.19531,-0.043 -0.40625,-0.043 -0.51172,-0.043 -0.11718,0 -0.14843,-0.0586 -0.14843,-0.13281 0,-0.10547 0.13671,-0.1211 0.32812,-0.1211 0.70703,0 1.45703,0.0274 1.92188,0.0274 0.32812,0 1.01953,-0.0274 1.67968,-0.0274 0.16407,0 0.3125,0.0274 0.3125,0.1211 0,0.0898 -0.0859,0.13281 -0.20703,0.13281 -0.21094,0 -0.40625,0.0156 -0.51172,0.0898 -0.0898,0.0586 -0.13281,0.13672 -0.13281,0.25391 0,0.16797 0.12109,0.51172 0.29688,0.96094 l 2.22265,5.71484 h 0.043 c 0.57031,-1.32031 2.26563,-5.42969 2.58203,-6.26953 0.0586,-0.16406 0.11719,-0.35938 0.11719,-0.46485 0,-0.13671 -0.0586,-0.17968 -0.17969,-0.22265 -0.14844,-0.0469 -0.35937,-0.0625 -0.52344,-0.0625 -0.12109,0 -0.22656,-0.043 -0.22656,-0.13281 0,-0.0937 0.1211,-0.1211 0.375,-0.1211 0.66016,0 1.2461,0.0274 1.41016,0.0274 0.22656,0 0.83984,-0.0274 1.24609,-0.0274 0.16406,0 0.26953,0.0274 0.26953,0.1211 0,0.0898 -0.0742,0.13281 -0.21093,0.13281 -0.13282,0 -0.41797,-0.0156 -0.64454,0.14844 -0.16406,0.12109 -0.34375,0.3164 -0.6875,1.125 -0.52734,1.19921 -0.87109,1.89062 -1.58984,3.44921 -0.83984,1.86329 -1.45703,3.25782 -1.75781,3.90235 -0.32813,0.73437 -0.44922,0.92969 -0.62891,0.92969 -0.17969,0 -0.28515,-0.16407 -0.53906,-0.76563 l -3.32813,-7.79687"
       id="path54"
       inkscape:connector-curvature="0" />
    <path
       style="fill:#1c4c8f;fill-opacity:1;fill-rule:nonzero;stroke:none"
       d="m 293.1875,821.00781 c 0,-1.93359 0,-2.29297 -0.0156,-2.69922 -0.0273,-0.43359 -0.16406,-0.58593 -0.44921,-0.67187 -0.14844,-0.0469 -0.31641,-0.0625 -0.48047,-0.0625 -0.13282,0 -0.21094,-0.0312 -0.21094,-0.14844 0,-0.0781 0.10547,-0.10547 0.31641,-0.10547 0.49609,0 1.39453,0.0274 1.76953,0.0274 0.33203,0 1.1875,-0.0274 1.69531,-0.0274 0.16406,0 0.26953,0.0274 0.26953,0.10547 0,0.11719 -0.0742,0.14844 -0.21094,0.14844 -0.13281,0 -0.23828,0.0156 -0.38672,0.043 -0.36328,0.0625 -0.46484,0.24218 -0.49609,0.6914 -0.0312,0.40625 -0.0312,0.76563 -0.0312,2.69922 v 2.25 c 0,1.23047 0,2.25 0.0625,2.78906 0.043,0.34766 0.13281,0.54297 0.52344,0.60157 0.17969,0.0312 0.48047,0.0469 0.67578,0.0469 0.14844,0 0.21094,0.0742 0.21094,0.13281 0,0.0898 -0.10547,0.13672 -0.25782,0.13672 -0.86718,0 -1.76953,-0.0469 -2.1289,-0.0469 -0.30078,0 -1.19922,0.0469 -1.72656,0.0469 -0.16407,0 -0.25391,-0.0469 -0.25391,-0.13672 0,-0.0586 0.0469,-0.13281 0.21094,-0.13281 0.19531,0 0.34375,-0.0156 0.46484,-0.0469 0.26953,-0.0586 0.34375,-0.23828 0.39063,-0.61328 0.0586,-0.52735 0.0586,-1.54688 0.0586,-2.77735 v -2.25"
       id="path56"
       inkscape:connector-curvature="0" />
    <path
       style="fill:#1c4c8f;fill-opacity:1;fill-rule:nonzero;stroke:none"
       d="m 300.86719,825.22266 c 0.0312,0.99218 0.19531,1.29296 0.44922,1.3789 0.22656,0.0781 0.48046,0.0937 0.6914,0.0937 0.14844,0 0.22656,0.0586 0.22656,0.13281 0,0.10547 -0.12109,0.13672 -0.30078,0.13672 -0.85547,0 -1.46875,-0.0469 -1.71093,-0.0469 -0.1211,0 -0.75,0.0469 -1.42579,0.0469 -0.17968,0 -0.30078,-0.0156 -0.30078,-0.13672 0,-0.0742 0.0937,-0.13281 0.21094,-0.13281 0.17969,0 0.42188,-0.0156 0.60156,-0.0625 0.34375,-0.0898 0.39063,-0.43359 0.40625,-1.54297 l 0.11719,-7.55859 c 0,-0.25781 0.0898,-0.4375 0.22656,-0.4375 0.16407,0 0.34375,0.19531 0.57032,0.42187 0.16406,0.16407 2.14453,2.1875 4.0625,4.0625 0.90234,0.88672 2.65625,2.6875 2.85156,2.86719 h 0.0586 l -0.13281,-5.67187 c -0.0156,-0.78125 -0.13672,-1.00391 -0.44922,-1.125 -0.19531,-0.0742 -0.51172,-0.0742 -0.69141,-0.0742 -0.16406,0 -0.21093,-0.0586 -0.21093,-0.13281 0,-0.10547 0.13672,-0.1211 0.33203,-0.1211 0.6875,0 1.39453,0.0274 1.67969,0.0274 0.14843,0 0.64453,-0.0274 1.28906,-0.0274 0.17969,0 0.30078,0.0156 0.30078,0.1211 0,0.0742 -0.0781,0.13281 -0.22656,0.13281 -0.13282,0 -0.23828,0 -0.40235,0.043 -0.36328,0.10547 -0.46875,0.33203 -0.48047,1.05078 l -0.15234,8.04297 c 0,0.28125 -0.10547,0.40234 -0.21094,0.40234 -0.22265,0 -0.40234,-0.13672 -0.53906,-0.26953 -0.82422,-0.76563 -2.47266,-2.33984 -3.85547,-3.67578 -1.4375,-1.37891 -2.83203,-2.92578 -3.08984,-3.14844 h -0.043 l 0.14844,5.20313"
       id="path58"
       inkscape:connector-curvature="0" />
    <path
       style="fill:#1c4c8f;fill-opacity:1;fill-rule:nonzero;stroke:none"
       d="m 321.3125,826.10937 c 0,0.34375 0,0.35938 -0.16406,0.44922 -0.88672,0.4336 -2.19141,0.57032 -3.22657,0.57032 -3.23828,0 -6.10546,-1.46875 -6.10546,-4.9961 0,-2.03906 1.09765,-3.46484 2.3125,-4.16797 1.25781,-0.73437 2.44531,-0.82422 3.55468,-0.82422 0.91407,0 2.07032,0.14844 2.33985,0.20704 0.26953,0.0469 0.73437,0.12109 1.05078,0.13671 0.14844,0.0156 0.17969,0.0586 0.17969,0.15235 0,0.14844 -0.0899,0.49219 -0.0899,2.09765 0,0.19532 -0.0742,0.28516 -0.17969,0.28516 -0.0937,0 -0.12109,-0.0586 -0.13671,-0.16406 -0.0312,-0.28516 -0.10547,-0.69141 -0.44922,-1.05078 -0.39063,-0.40625 -1.38282,-0.97657 -2.86719,-0.97657 -0.71875,0 -1.63281,0.0156 -2.54688,0.75 -0.73828,0.60157 -1.21484,1.54688 -1.21484,3.10547 0,2.7461 1.76953,4.73828 4.58984,4.73828 0.34375,0 0.61329,0 0.92969,-0.13281 0.19531,-0.0898 0.25391,-0.22265 0.25391,-0.44922 v -1.17187 c 0,-0.62891 0,-1.10938 -0.0156,-1.5 -0.0156,-0.4336 -0.14843,-0.57031 -0.57031,-0.6875 -0.10547,-0.0312 -0.32812,-0.0469 -0.50781,-0.0469 -0.1211,0 -0.21094,-0.0586 -0.21094,-0.13672 0,-0.10156 0.10547,-0.11718 0.28516,-0.11718 0.6914,0 1.63281,0.0312 2.02343,0.0312 0.42188,0 1.10938,-0.0312 1.54688,-0.0312 0.17969,0 0.26953,0.0156 0.26953,0.11718 0,0.0781 -0.0742,0.13672 -0.16406,0.13672 -0.10547,0 -0.21094,0.0156 -0.35938,0.0469 -0.36328,0.0586 -0.49609,0.23828 -0.51172,0.6875 -0.0156,0.39062 -0.0156,0.90234 -0.0156,1.53125 v 1.41015"
       id="path60"
       inkscape:connector-curvature="0" />
    <path
       style="fill:#1c4c8f;fill-opacity:1;fill-rule:nonzero;stroke:none"
       d="m 331.85547,815.80469 c 0.0469,-0.25391 0.13672,-0.39063 0.25781,-0.39063 0.11719,0 0.21094,0.0742 0.40234,0.46485 l 4.09766,8.33984 4.07813,-8.44531 c 0.12109,-0.23828 0.19531,-0.35938 0.33203,-0.35938 0.13281,0 0.22265,0.15235 0.26953,0.46485 l 1.36328,9.17968 c 0.13672,0.94532 0.28516,1.37891 0.73437,1.51563 0.4375,0.13672 0.73829,0.14844 0.92969,0.14844 0.13672,0 0.24219,0.0156 0.24219,0.10546 0,0.1211 -0.17969,0.16407 -0.39063,0.16407 -0.375,0 -2.44531,-0.0274 -3.04296,-0.0742 -0.34766,-0.0273 -0.4375,-0.0742 -0.4375,-0.16406 0,-0.0742 0.0625,-0.1211 0.16406,-0.16407 0.0898,-0.0312 0.13672,-0.22656 0.0781,-0.64453 l -0.90234,-6.52734 h -0.0586 l -3.26954,6.6914 c -0.34765,0.70313 -0.42187,0.83985 -0.55468,0.83985 -0.13672,0 -0.28516,-0.30078 -0.52735,-0.75 -0.35937,-0.69141 -1.54297,-2.98438 -1.72265,-3.40625 -0.13672,-0.3125 -1.03516,-2.08203 -1.5625,-3.20703 h -0.0586 l -0.78125,5.84765 c -0.0273,0.26953 -0.043,0.46485 -0.043,0.70703 0,0.28125 0.19532,0.41797 0.44922,0.47657 0.26953,0.0625 0.48047,0.0781 0.62891,0.0781 0.12109,0 0.22656,0.0274 0.22656,0.10156 0,0.13672 -0.13672,0.16797 -0.35937,0.16797 -0.63282,0 -1.30469,-0.0469 -1.57422,-0.0469 -0.28516,0 -1.00781,0.0469 -1.48438,0.0469 -0.15234,0 -0.27343,-0.0312 -0.27343,-0.16797 0,-0.0742 0.0898,-0.10156 0.24218,-0.10156 0.1211,0 0.22266,0 0.44922,-0.0469 0.42188,-0.0899 0.53906,-0.67578 0.61328,-1.1836 l 1.48438,-9.66015"
       id="path62"
       inkscape:connector-curvature="0" />
    <path
       style="fill:#1c4c8f;fill-opacity:1;fill-rule:nonzero;stroke:none"
       d="m 347.39844,821.00781 c 0,-1.93359 0,-2.29297 -0.0156,-2.69922 -0.0312,-0.43359 -0.14844,-0.57031 -0.57031,-0.6914 -0.10547,-0.0274 -0.32813,-0.043 -0.52344,-0.043 -0.13672,0 -0.22656,-0.043 -0.22656,-0.13281 0,-0.0937 0.10547,-0.1211 0.30078,-0.1211 0.69141,0 1.52734,0.0274 1.90234,0.0274 0.42188,0 3.34766,0.0156 3.60157,0 0.23828,-0.0117 0.44922,-0.0586 0.55468,-0.0742 0.0742,-0.0117 0.14844,-0.0586 0.21094,-0.0586 0.0742,0 0.0899,0.0586 0.0899,0.1211 0,0.0898 -0.0742,0.23828 -0.10547,0.82422 -0.0156,0.13281 -0.0469,0.6875 -0.0742,0.83984 -0.0156,0.0586 -0.0469,0.21094 -0.15235,0.21094 -0.0859,0 -0.10156,-0.0625 -0.10156,-0.16797 0,-0.0898 -0.0156,-0.3125 -0.0937,-0.46485 -0.10156,-0.22265 -0.20703,-0.40625 -0.86719,-0.46484 -0.22656,-0.0273 -1.80078,-0.0586 -2.07031,-0.0586 -0.0586,0 -0.0898,0.043 -0.0898,0.11718 v 3.15235 c 0,0.0742 0.0156,0.13672 0.0898,0.13672 0.30078,0 2.00781,0 2.3086,-0.0312 0.3164,-0.0312 0.49609,-0.0742 0.6289,-0.19532 0.10938,-0.0898 0.15235,-0.16406 0.21094,-0.16406 0.0625,0 0.10547,0.0586 0.10547,0.13281 0,0.0781 -0.0312,0.28516 -0.10547,0.92969 -0.0273,0.25781 -0.0586,0.76563 -0.0586,0.85547 0,0.10547 -0.0156,0.28516 -0.13672,0.28516 -0.0899,0 -0.11719,-0.043 -0.11719,-0.10547 -0.0156,-0.13281 -0.0156,-0.30078 -0.0469,-0.46485 -0.0742,-0.2539 -0.23828,-0.44921 -0.73437,-0.49218 -0.23828,-0.0312 -1.73828,-0.0625 -2.07031,-0.0625 -0.0586,0 -0.0742,0.0625 -0.0742,0.13672 v 1.01953 c 0,0.43359 -0.0156,1.51562 0,1.89062 0.0312,0.8711 0.43359,1.0625 1.78515,1.0625 0.34375,0 0.89844,-0.0156 1.24219,-0.16406 0.33203,-0.14844 0.48438,-0.42188 0.57031,-0.94531 0.0312,-0.13282 0.0625,-0.19532 0.15235,-0.19532 0.10547,0 0.12109,0.16407 0.12109,0.30079 0,0.28515 -0.10547,1.15625 -0.18359,1.41015 -0.0899,0.32813 -0.20703,0.32813 -0.70313,0.32813 -0.98828,0 -1.78515,-0.0156 -2.42968,-0.043 -0.64454,-0.0156 -1.14063,-0.0312 -1.53125,-0.0312 -0.14844,0 -0.4336,0.0156 -0.75,0.0156 -0.3125,0.0156 -0.64454,0.0312 -0.91407,0.0312 -0.16406,0 -0.2539,-0.0469 -0.2539,-0.13672 0,-0.0586 0.043,-0.13281 0.21093,-0.13281 0.19532,0 0.34375,-0.0156 0.46485,-0.0469 0.26953,-0.0586 0.34375,-0.30078 0.39062,-0.67578 0.0586,-0.53907 0.0586,-1.54297 0.0586,-2.71485 v -2.25"
       id="path64"
       inkscape:connector-curvature="0" />
    <path
       style="fill:#1c4c8f;fill-opacity:1;fill-rule:nonzero;stroke:none"
       d="m 358.25781,822.41797 c 0,1.35156 0.0156,2.32422 0.0312,2.58203 0.0117,0.31641 0.043,0.76562 0.14844,0.89844 0.16406,0.24218 0.69141,0.51172 1.72656,0.51172 1.19922,0 2.08203,-0.21094 2.87891,-0.8711 0.85547,-0.70312 1.125,-1.84375 1.125,-3.16406 0,-1.62109 -0.64453,-2.67188 -1.23047,-3.17969 -1.21484,-1.08203 -2.65625,-1.21484 -3.69141,-1.21484 -0.26953,0 -0.70312,0.0312 -0.80859,0.0898 -0.12109,0.043 -0.16406,0.10156 -0.16406,0.25391 -0.0156,0.43359 -0.0156,1.48437 -0.0156,2.49219 z m -1.76953,-1.41016 c 0,-1.93359 0,-2.29297 -0.0156,-2.69922 -0.0312,-0.43359 -0.14844,-0.57031 -0.57032,-0.6914 -0.10547,-0.0274 -0.32812,-0.043 -0.52343,-0.043 -0.13672,0 -0.22657,-0.043 -0.22657,-0.13281 0,-0.0937 0.10547,-0.1211 0.30078,-0.1211 0.6875,0 1.52735,0.0274 1.90235,0.0274 0.40625,0 1.35156,-0.0274 2.14844,-0.0274 1.64843,0 3.86718,0 5.30859,1.45313 0.66016,0.66015 1.24609,1.72656 1.24609,3.24218 0,1.60157 -0.6914,2.82032 -1.4414,3.55469 -0.60157,0.59766 -1.9961,1.5 -4.42578,1.5 -0.48047,0 -1.05079,-0.0469 -1.57422,-0.0781 -0.52344,-0.043 -1.00391,-0.0742 -1.33594,-0.0742 -0.14844,0 -0.43359,0.0156 -0.75,0.0156 -0.3125,0.0156 -0.64453,0.0312 -0.91406,0.0312 -0.16407,0 -0.25391,-0.0469 -0.25391,-0.13672 0,-0.0586 0.043,-0.13281 0.21094,-0.13281 0.1914,0 0.34375,-0.0156 0.46484,-0.0469 0.26953,-0.0586 0.34375,-0.30078 0.39063,-0.67578 0.0586,-0.53907 0.0586,-1.54297 0.0586,-2.71485 v -2.25"
       id="path66"
       inkscape:connector-curvature="0" />
    <path
       style="fill:#1c4c8f;fill-opacity:1;fill-rule:nonzero;stroke:none"
       d="m 369.55469,821.00781 c 0,-1.93359 0,-2.29297 -0.0156,-2.69922 -0.0312,-0.43359 -0.16797,-0.58593 -0.45312,-0.67187 -0.14844,-0.0469 -0.3125,-0.0625 -0.48047,-0.0625 -0.13281,0 -0.20703,-0.0312 -0.20703,-0.14844 0,-0.0781 0.10547,-0.10547 0.3125,-0.10547 0.49609,0 1.39453,0.0274 1.76953,0.0274 0.33203,0 1.1875,-0.0274 1.69531,-0.0274 0.16797,0 0.26953,0.0274 0.26953,0.10547 0,0.11719 -0.0742,0.14844 -0.20703,0.14844 -0.13672,0 -0.24219,0.0156 -0.39062,0.043 -0.35938,0.0625 -0.46485,0.24218 -0.4961,0.6914 -0.0312,0.40625 -0.0312,0.76563 -0.0312,2.69922 v 2.25 c 0,1.23047 0,2.25 0.0625,2.78906 0.043,0.34766 0.13281,0.54297 0.52344,0.60157 0.17969,0.0312 0.48047,0.0469 0.67578,0.0469 0.14844,0 0.21094,0.0742 0.21094,0.13281 0,0.0898 -0.10547,0.13672 -0.25391,0.13672 -0.87109,0 -1.77344,-0.0469 -2.13281,-0.0469 -0.30078,0 -1.19922,0.0469 -1.72266,0.0469 -0.16797,0 -0.2539,-0.0469 -0.2539,-0.13672 0,-0.0586 0.043,-0.13281 0.20703,-0.13281 0.19531,0 0.34375,-0.0156 0.46484,-0.0469 0.26953,-0.0586 0.34375,-0.23828 0.39063,-0.61328 0.0625,-0.52735 0.0625,-1.54688 0.0625,-2.77735 v -2.25"
       id="path68"
       inkscape:connector-curvature="0" />
    <path
       style="fill:#1c4c8f;fill-opacity:1;fill-rule:nonzero;stroke:none"
       d="m 376.46875,825.75 c -1.30469,-1.09375 -1.65234,-2.53516 -1.65234,-3.76563 0,-0.87109 0.28515,-2.37109 1.54687,-3.49609 0.96094,-0.83984 2.21875,-1.34766 4.18359,-1.34766 0.82422,0 1.32032,0.0586 1.92188,0.13282 0.49219,0.0742 0.92969,0.16797 1.31641,0.21093 0.15234,0.0156 0.19531,0.0742 0.19531,0.15235 0,0.10156 -0.0274,0.2539 -0.0586,0.70312 -0.0312,0.41797 -0.0312,1.125 -0.043,1.37891 -0.0156,0.17969 -0.0625,0.31641 -0.1836,0.31641 -0.10156,0 -0.13281,-0.10547 -0.13281,-0.26954 -0.0156,-0.40625 -0.17969,-0.85546 -0.51172,-1.1875 -0.44922,-0.43359 -1.33203,-0.75 -2.54687,-0.75 -1.15625,0 -1.89063,0.21094 -2.49219,0.71875 -0.97266,0.84375 -1.21485,2.07032 -1.21485,3.31641 0,3.03125 2.33985,4.47266 4.10938,4.47266 1.17187,0 1.81641,-0.0937 2.33984,-0.67578 0.22657,-0.25391 0.40625,-0.61719 0.44922,-0.85547 0.0312,-0.19532 0.0625,-0.25782 0.16797,-0.25782 0.0898,0 0.14844,0.1211 0.14844,0.22657 0,0.14843 -0.14844,1.26172 -0.28516,1.69531 -0.0586,0.22656 -0.12109,0.28516 -0.34375,0.375 -0.52734,0.21094 -1.53125,0.28516 -2.38672,0.28516 -1.80078,0 -3.32812,-0.375 -4.52734,-1.37891"
       id="path70"
       inkscape:connector-curvature="0" />
    <path
       style="fill:#1c4c8f;fill-opacity:1;fill-rule:nonzero;stroke:none"
       d="m 390.97266,823.03516 c 0.0586,0 0.0742,-0.0312 0.0586,-0.0742 l -1.24609,-3.19532 c -0.0117,-0.0469 -0.0274,-0.12109 -0.0586,-0.12109 -0.043,0 -0.0586,0.0742 -0.0742,0.12109 l -1.27343,3.17969 c -0.0312,0.0586 0,0.0899 0.043,0.0899 z m -2.82032,0.70312 c -0.0742,0 -0.0898,0.0156 -0.12109,0.0898 l -0.70313,1.72657 c -0.13671,0.3125 -0.19531,0.6289 -0.19531,0.78125 0,0.22265 0.1211,0.35937 0.52344,0.35937 h 0.19531 c 0.16406,0 0.19531,0.0586 0.19531,0.13281 0,0.10547 -0.0742,0.13672 -0.21093,0.13672 -0.4336,0 -1.05078,-0.0469 -1.46875,-0.0469 -0.13672,0 -0.83985,0.0469 -1.53125,0.0469 -0.16407,0 -0.23828,-0.0312 -0.23828,-0.13672 0,-0.0742 0.043,-0.13281 0.14843,-0.13281 0.1211,0 0.26953,-0.0156 0.39063,-0.0156 0.60156,-0.0899 0.82422,-0.48047 1.09375,-1.125 l 3.45312,-7.96485 c 0.14844,-0.35937 0.25391,-0.51172 0.38672,-0.51172 0.19531,0 0.25781,0.1211 0.39063,0.40625 0.3164,0.70704 2.51953,5.86329 3.35937,7.80079 0.51172,1.15234 0.88672,1.3164 1.125,1.36328 0.19531,0.0312 0.34766,0.0469 0.4961,0.0469 0.12109,0 0.17968,0.043 0.17968,0.13281 0,0.10547 -0.0742,0.13672 -0.57031,0.13672 -0.46484,0 -1.42187,0 -2.53516,-0.0312 -0.23828,-0.0156 -0.38671,-0.0156 -0.38671,-0.10547 0,-0.0742 0.0273,-0.11718 0.16406,-0.13281 0.0898,-0.0156 0.17969,-0.13672 0.11719,-0.28515 l -1.01954,-2.58204 c -0.0273,-0.0742 -0.0742,-0.0898 -0.13281,-0.0898 h -3.10547"
       id="path72"
       inkscape:connector-curvature="0" />
    <path
       style="fill:#1c4c8f;fill-opacity:1;fill-rule:nonzero;stroke:none"
       d="m 399.58203,823.25781 c 0,1.63672 0,2.44531 0.28516,2.6875 0.22656,0.19531 0.73437,0.26953 1.7539,0.26953 0.70703,0 1.21485,-0.0156 1.54688,-0.36328 0.16406,-0.16015 0.30078,-0.52344 0.32812,-0.76172 0.0156,-0.12109 0.0469,-0.19531 0.15235,-0.19531 0.0898,0 0.11718,0.13672 0.11718,0.28516 0,0.14843 -0.0898,1.09375 -0.19531,1.46875 -0.0898,0.28515 -0.14844,0.34375 -0.83984,0.34375 -0.94531,0 -1.70703,-0.0156 -2.36719,-0.043 -0.66016,-0.0156 -1.21484,-0.0312 -1.75781,-0.0312 -0.14844,0 -0.4336,0.0156 -0.75,0.0156 -0.3125,0.0156 -0.64453,0.0312 -0.91406,0.0312 -0.16407,0 -0.25391,-0.0469 -0.25391,-0.13672 0,-0.0586 0.043,-0.13281 0.21094,-0.13281 0.19531,0 0.34375,-0.0156 0.46484,-0.0469 0.26953,-0.0586 0.34375,-0.30078 0.39063,-0.67578 0.0586,-0.53907 0.0586,-1.54297 0.0586,-2.71485 v -2.25 c 0,-1.93359 0,-2.29297 -0.0156,-2.69922 -0.0312,-0.43359 -0.14843,-0.57031 -0.57031,-0.6914 -0.10547,-0.0274 -0.26953,-0.043 -0.43359,-0.043 -0.15235,0 -0.22656,-0.043 -0.22656,-0.13281 0,-0.0937 0.0898,-0.1211 0.28515,-0.1211 0.61719,0 1.45703,0.0274 1.81641,0.0274 0.3125,0 1.39453,-0.0274 1.90234,-0.0274 0.19531,0 0.28516,0.0274 0.28516,0.1211 0,0.0898 -0.0742,0.13281 -0.23828,0.13281 -0.14844,0 -0.35938,0.0156 -0.51172,0.043 -0.35938,0.0625 -0.46485,0.24218 -0.49219,0.6914 -0.0312,0.40625 -0.0312,0.76563 -0.0312,2.69922 v 2.25"
       id="path74"
       inkscape:connector-curvature="0" />
    <path
       style="fill:#1c4c8f;fill-opacity:1;fill-rule:nonzero;stroke:none"
       d="m 412.61719,825.53906 c -1.47266,-1.28906 -1.85938,-2.96875 -1.85938,-4.42578 0,-1.01953 0.3125,-2.78906 1.75391,-4.10937 1.08203,-0.98829 2.5039,-1.58985 4.73828,-1.58985 0.93359,0 1.48437,0.0586 2.17578,0.15235 0.57031,0.0742 1.05078,0.20703 1.5,0.2539 0.16406,0.0156 0.22656,0.0899 0.22656,0.17969 0,0.11719 -0.0469,0.30078 -0.0781,0.82422 -0.0274,0.49609 -0.0117,1.32031 -0.043,1.62109 -0.0156,0.22266 -0.0469,0.34375 -0.17969,0.34375 -0.12109,0 -0.15234,-0.12109 -0.15234,-0.32812 -0.0117,-0.46875 -0.20703,-0.99219 -0.58203,-1.38282 -0.4961,-0.52343 -1.66797,-0.92968 -3.04688,-0.92968 -1.30469,0 -2.16015,0.33203 -2.8164,0.92968 -1.09766,1.00782 -1.38282,2.42969 -1.38282,3.88672 0,3.57032 2.71485,5.33985 4.72657,5.33985 1.33593,0 2.14453,-0.14844 2.74218,-0.83985 0.25782,-0.28515 0.44922,-0.72265 0.51172,-0.99218 0.043,-0.23829 0.0742,-0.30079 0.19531,-0.30079 0.10547,0 0.13672,0.10938 0.13672,0.22657 0,0.17968 -0.18359,1.48437 -0.33203,1.99609 -0.0742,0.25391 -0.13672,0.32813 -0.39062,0.43359 -0.60157,0.24219 -1.73828,0.34375 -2.69922,0.34375 -2.05469,0 -3.78125,-0.44921 -5.14453,-1.63281"
       id="path76"
       inkscape:connector-curvature="0" />
    <path
       style="fill:#1c4c8f;fill-opacity:1;fill-rule:nonzero;stroke:none"
       d="m 424.84375,821.00781 c 0,-1.93359 0,-2.29297 -0.0195,-2.69922 -0.0274,-0.43359 -0.14844,-0.57031 -0.56641,-0.6914 -0.10547,-0.0274 -0.33203,-0.043 -0.52734,-0.043 -0.13281,0 -0.22266,-0.043 -0.22266,-0.13281 0,-0.0937 0.10156,-0.1211 0.30078,-0.1211 0.6875,0 1.52735,0.0274 1.90235,0.0274 0.42187,0 3.34765,0.0156 3.60156,0 0.23828,-0.0117 0.44922,-0.0586 0.55469,-0.0742 0.0742,-0.0117 0.14843,-0.0586 0.20703,-0.0586 0.0781,0 0.0898,0.0586 0.0898,0.1211 0,0.0898 -0.0703,0.23828 -0.10156,0.82422 -0.0156,0.13281 -0.0469,0.6875 -0.0781,0.83984 -0.0117,0.0586 -0.043,0.21094 -0.14843,0.21094 -0.0899,0 -0.10547,-0.0625 -0.10547,-0.16797 0,-0.0898 -0.0117,-0.3125 -0.0899,-0.46485 -0.10546,-0.22265 -0.20703,-0.40625 -0.87109,-0.46484 -0.22266,-0.0273 -1.79687,-0.0586 -2.07031,-0.0586 -0.0586,0 -0.0899,0.043 -0.0899,0.11718 v 3.15235 c 0,0.0742 0.0195,0.13672 0.0899,0.13672 0.30469,0 2.01172,0 2.3125,-0.0312 0.3125,-0.0312 0.49609,-0.0742 0.6289,-0.19532 0.10547,-0.0898 0.14844,-0.16406 0.21094,-0.16406 0.0586,0 0.10547,0.0586 0.10547,0.13281 0,0.0781 -0.0312,0.28516 -0.10547,0.92969 -0.0312,0.25781 -0.0625,0.76563 -0.0625,0.85547 0,0.10547 -0.0117,0.28516 -0.13281,0.28516 -0.0898,0 -0.12109,-0.043 -0.12109,-0.10547 -0.0156,-0.13281 -0.0156,-0.30078 -0.043,-0.46485 -0.0781,-0.2539 -0.24219,-0.44921 -0.73438,-0.49218 -0.24219,-0.0312 -1.74219,-0.0625 -2.07031,-0.0625 -0.0586,0 -0.0781,0.0625 -0.0781,0.13672 v 1.01953 c 0,0.43359 -0.0117,1.51562 0,1.89062 0.0312,0.8711 0.4375,1.0625 1.78516,1.0625 0.34766,0 0.90234,-0.0156 1.24609,-0.16406 0.33204,-0.14844 0.48047,-0.42188 0.57032,-0.94531 0.0312,-0.13282 0.0586,-0.19532 0.14843,-0.19532 0.10938,0 0.1211,0.16407 0.1211,0.30079 0,0.28515 -0.10547,1.15625 -0.17969,1.41015 -0.0898,0.32813 -0.20703,0.32813 -0.70312,0.32813 -0.99219,0 -1.78516,-0.0156 -2.4336,-0.043 -0.64453,-0.0156 -1.13672,-0.0312 -1.52734,-0.0312 -0.15235,0 -0.4375,0.0156 -0.75,0.0156 -0.31641,0.0156 -0.64453,0.0312 -0.91406,0.0312 -0.16407,0 -0.25391,-0.0469 -0.25391,-0.13672 0,-0.0586 0.043,-0.13281 0.20703,-0.13281 0.19531,0 0.34375,-0.0156 0.46484,-0.0469 0.26954,-0.0586 0.34375,-0.30078 0.39063,-0.67578 0.0625,-0.53907 0.0625,-1.54297 0.0625,-2.71485 v -2.25"
       id="path78"
       inkscape:connector-curvature="0" />
    <path
       style="fill:#1c4c8f;fill-opacity:1;fill-rule:nonzero;stroke:none"
       d="m 434.75781,825.22266 c 0.0274,0.99218 0.19141,1.29296 0.44922,1.3789 0.22656,0.0781 0.48047,0.0937 0.6875,0.0937 0.15234,0 0.22656,0.0586 0.22656,0.13281 0,0.10547 -0.12109,0.13672 -0.30078,0.13672 -0.85156,0 -1.46875,-0.0469 -1.71094,-0.0469 -0.11718,0 -0.75,0.0469 -1.42187,0.0469 -0.17969,0 -0.30078,-0.0156 -0.30078,-0.13672 0,-0.0742 0.0898,-0.13281 0.21094,-0.13281 0.17968,0 0.41796,-0.0156 0.59765,-0.0625 0.34375,-0.0898 0.39063,-0.43359 0.40625,-1.54297 l 0.1211,-7.55859 c 0,-0.25781 0.0898,-0.4375 0.22265,-0.4375 0.16406,0 0.34375,0.19531 0.57031,0.42187 0.16797,0.16407 2.14454,2.1875 4.06641,4.0625 0.89844,0.88672 2.65234,2.6875 2.84766,2.86719 h 0.0625 l -0.13672,-5.67187 c -0.0156,-0.78125 -0.13281,-1.00391 -0.44922,-1.125 -0.19531,-0.0742 -0.51172,-0.0742 -0.69141,-0.0742 -0.16406,0 -0.20703,-0.0586 -0.20703,-0.13281 0,-0.10547 0.13281,-0.1211 0.32813,-0.1211 0.6914,0 1.39453,0.0274 1.67968,0.0274 0.14844,0 0.64454,-0.0274 1.28907,-0.0274 0.17968,0 0.30078,0.0156 0.30078,0.1211 0,0.0742 -0.0742,0.13281 -0.22266,0.13281 -0.13672,0 -0.24219,0 -0.40625,0.043 -0.35937,0.10547 -0.46484,0.33203 -0.48047,1.05078 l -0.14843,8.04297 c 0,0.28125 -0.10547,0.40234 -0.21094,0.40234 -0.22656,0 -0.40625,-0.13672 -0.53906,-0.26953 -0.82813,-0.76563 -2.47657,-2.33984 -3.85547,-3.67578 -1.44141,-1.37891 -2.83594,-2.92578 -3.08985,-3.14844 h -0.0469 l 0.15234,5.20313"
       id="path80"
       inkscape:connector-curvature="0" />
    <path
       style="fill:#1c4c8f;fill-opacity:1;fill-rule:nonzero;stroke:none"
       d="m 449.05078,818.09766 -1.96484,0.0469 c -0.76563,0.0156 -1.07813,0.10547 -1.27344,0.39063 -0.13672,0.17968 -0.19531,0.34375 -0.22656,0.43359 -0.0274,0.10547 -0.0586,0.16406 -0.14844,0.16406 -0.0898,0 -0.12109,-0.0742 -0.12109,-0.21094 0,-0.20703 0.2539,-1.4375 0.28515,-1.54296 0.0312,-0.16407 0.0742,-0.23829 0.15235,-0.23829 0.10156,0 0.23828,0.10157 0.5664,0.14844 0.39063,0.0469 0.88672,0.0586 1.32031,0.0586 h 5.35547 c 0.41797,0 0.70313,-0.0274 0.89844,-0.0586 0.21094,-0.0273 0.31641,-0.0586 0.36328,-0.0586 0.0899,0 0.10156,0.0742 0.10156,0.26953 0,0.26953 -0.0273,1.21484 -0.0273,1.54297 -0.0156,0.13672 -0.0469,0.21094 -0.12109,0.21094 -0.10547,0 -0.13672,-0.0586 -0.14844,-0.25391 l -0.0156,-0.13672 c -0.0312,-0.32812 -0.375,-0.71875 -1.5625,-0.73437 l -1.66406,-0.0312 v 5.16015 c 0,1.17188 0.0156,2.17578 0.0742,2.73047 0.0469,0.35938 0.12109,0.60156 0.51172,0.66016 0.17969,0.0312 0.48047,0.0469 0.67578,0.0469 0.14844,0 0.20703,0.0742 0.20703,0.13281 0,0.0898 -0.10156,0.13672 -0.2539,0.13672 -0.8711,0 -1.75391,-0.0469 -2.12891,-0.0469 -0.30078,0 -1.19922,0.0469 -1.72266,0.0469 -0.16797,0 -0.25781,-0.0469 -0.25781,-0.13672 0,-0.0586 0.0469,-0.13281 0.21094,-0.13281 0.19531,0 0.35937,-0.0156 0.46484,-0.0469 0.26953,-0.0586 0.34375,-0.30078 0.39063,-0.67578 0.0586,-0.53907 0.0586,-1.54297 0.0586,-2.71485 v -5.16015"
       id="path82"
       inkscape:connector-curvature="0" />
    <path
       style="fill:#1c4c8f;fill-opacity:1;fill-rule:nonzero;stroke:none"
       d="m 457.54297,821.00781 c 0,-1.93359 0,-2.29297 -0.0156,-2.69922 -0.0312,-0.43359 -0.14843,-0.57031 -0.57031,-0.6914 -0.10547,-0.0274 -0.32812,-0.043 -0.52344,-0.043 -0.13672,0 -0.22656,-0.043 -0.22656,-0.13281 0,-0.0937 0.10547,-0.1211 0.30078,-0.1211 0.6875,0 1.52735,0.0274 1.90235,0.0274 0.42187,0 3.34765,0.0156 3.60156,0 0.24219,-0.0117 0.44922,-0.0586 0.55469,-0.0742 0.0742,-0.0117 0.15234,-0.0586 0.21093,-0.0586 0.0742,0 0.0899,0.0586 0.0899,0.1211 0,0.0898 -0.0742,0.23828 -0.10547,0.82422 -0.0156,0.13281 -0.043,0.6875 -0.0742,0.83984 -0.0156,0.0586 -0.0469,0.21094 -0.15234,0.21094 -0.0899,0 -0.10157,-0.0625 -0.10157,-0.16797 0,-0.0898 -0.0156,-0.3125 -0.0898,-0.46485 -0.10938,-0.22265 -0.21094,-0.40625 -0.87109,-0.46484 -0.22657,-0.0273 -1.80079,-0.0586 -2.07032,-0.0586 -0.0586,0 -0.0898,0.043 -0.0898,0.11718 v 3.15235 c 0,0.0742 0.0156,0.13672 0.0898,0.13672 0.29688,0 2.00782,0 2.3086,-0.0312 0.3164,-0.0312 0.49609,-0.0742 0.63281,-0.19532 0.10156,-0.0898 0.14844,-0.16406 0.20703,-0.16406 0.0586,0 0.10547,0.0586 0.10547,0.13281 0,0.0781 -0.0273,0.28516 -0.10547,0.92969 -0.0312,0.25781 -0.0586,0.76563 -0.0586,0.85547 0,0.10547 -0.0156,0.28516 -0.13672,0.28516 -0.0899,0 -0.1211,-0.043 -0.1211,-0.10547 -0.0117,-0.13281 -0.0117,-0.30078 -0.043,-0.46485 -0.0742,-0.2539 -0.24219,-0.44921 -0.73438,-0.49218 -0.23828,-0.0312 -1.73828,-0.0625 -2.07031,-0.0625 -0.0586,0 -0.0742,0.0625 -0.0742,0.13672 v 1.01953 c 0,0.43359 -0.0156,1.51562 0,1.89062 0.0312,0.8711 0.43359,1.0625 1.78516,1.0625 0.34375,0 0.89843,-0.0156 1.24609,-0.16406 0.32812,-0.14844 0.47656,-0.42188 0.56641,-0.94531 0.0312,-0.13282 0.0625,-0.19532 0.15234,-0.19532 0.10547,0 0.12109,0.16407 0.12109,0.30079 0,0.28515 -0.10937,1.15625 -0.17968,1.41015 -0.0937,0.32813 -0.21094,0.32813 -0.70704,0.32813 -0.98828,0 -1.78515,-0.0156 -2.42968,-0.043 -0.64453,-0.0156 -1.14063,-0.0312 -1.53125,-0.0312 -0.14844,0 -0.4336,0.0156 -0.75,0.0156 -0.31641,0.0156 -0.64453,0.0312 -0.91407,0.0312 -0.16406,0 -0.2539,-0.0469 -0.2539,-0.13672 0,-0.0586 0.043,-0.13281 0.21094,-0.13281 0.1914,0 0.34375,-0.0156 0.46484,-0.0469 0.26562,-0.0586 0.34375,-0.30078 0.38672,-0.67578 0.0625,-0.53907 0.0625,-1.54297 0.0625,-2.71485 v -2.25"
       id="path84"
       inkscape:connector-curvature="0" />
    <g
       clip-path="url(#clip2)"
       id="g88"
       style="clip-rule:nonzero">
      <path
         style="fill:#1c4c8f;fill-opacity:1;fill-rule:nonzero;stroke:none"
         d="m 468.3125,822 c 0,0.13281 0.0312,0.17969 0.12109,0.22266 0.28516,0.0937 0.67188,0.12109 1.00391,0.12109 0.52344,0 0.70312,-0.0469 0.92969,-0.21094 0.40234,-0.28515 0.85547,-0.83984 0.85547,-1.89062 0,-1.79688 -1.23047,-2.26172 -2.01172,-2.26172 -0.32813,0 -0.64453,0.0117 -0.77735,0.043 -0.0898,0.0312 -0.12109,0.0742 -0.12109,0.17968 z m -1.67969,-0.99219 c 0,-1.93359 0,-2.29297 -0.0156,-2.69922 -0.0312,-0.43359 -0.14844,-0.57031 -0.57032,-0.6914 -0.10546,-0.0274 -0.32812,-0.043 -0.52734,-0.043 -0.13281,0 -0.22266,-0.043 -0.22266,-0.13281 0,-0.0937 0.10547,-0.1211 0.30079,-0.1211 0.6875,0 1.53125,0.0274 1.79687,0.0274 0.45313,0 1.65234,-0.0274 2.05469,-0.0274 0.83984,0 1.80078,0.0742 2.50781,0.53906 0.375,0.25391 0.92969,0.89844 0.92969,1.75391 0,0.94531 -0.53906,1.78516 -1.82813,2.82031 1.16797,1.44141 2.09766,2.59766 2.89063,3.39063 0.73828,0.73437 1.20312,0.79297 1.41015,0.83984 0.13672,0.0312 0.21094,0.0312 0.31641,0.0312 0.10547,0 0.16406,0.0742 0.16406,0.13281 0,0.10547 -0.0898,0.13672 -0.2539,0.13672 h -1.26172 c -0.73047,0 -1.09375,-0.0742 -1.4375,-0.2539 -0.57031,-0.28907 -1.06641,-0.88672 -1.80078,-1.875 -0.52344,-0.69141 -1.07813,-1.54688 -1.24219,-1.74219 -0.0781,-0.0742 -0.15234,-0.0898 -0.24219,-0.0898 l -1.18359,-0.0312 c -0.0625,0 -0.10547,0.0312 -0.10547,0.10546 v 0.17969 c 0,1.1875 0.0117,2.17578 0.0742,2.71485 0.0469,0.375 0.10547,0.61718 0.50781,0.67578 0.19922,0.0312 0.48438,0.0469 0.64453,0.0469 0.10547,0 0.16797,0.0742 0.16797,0.13281 0,0.0898 -0.10547,0.13672 -0.26953,0.13672 -0.76563,0 -1.86328,-0.0469 -2.05469,-0.0469 -0.2539,0 -1.09765,0.0469 -1.62109,0.0469 -0.16406,0 -0.25391,-0.0469 -0.25391,-0.13672 0,-0.0586 0.043,-0.13281 0.21094,-0.13281 0.19141,0 0.34375,-0.0156 0.46484,-0.0469 0.26563,-0.0586 0.34375,-0.30078 0.38672,-0.67578 0.0625,-0.53907 0.0625,-1.54297 0.0625,-2.71485 v -2.25"
         id="path86"
         inkscape:connector-curvature="0" />
    </g>
    <path
       style="fill:#1c4c8f;fill-opacity:1;fill-rule:nonzero;stroke:none"
       d="m 37.953125,813.20312 c -2.023437,3.48829 -4.003906,6.85547 -6.484375,6.85547 -0.707031,0 -1.96875,-0.67187 -1.480469,-2.52734 l 2.335938,-2.35938 c 0.160156,-0.17968 0.28125,-0.38671 0.167969,-0.65234 l -1.476563,-3.125 c -0.08594,-0.18359 -0.25,-0.17578 -0.425781,0 l -3.125,3.125 c -0.167969,0.17188 -0.242188,0.40625 -0.132813,0.66016 l 0.988282,2.30859 c -0.382813,1.52734 -1.375,2.64063 -2.582032,2.55469 -2.238281,-0.14844 -4.054687,-4.40235 -1.359375,-10.41016 0.453125,-1.01172 0.625,-1.85937 0.578125,-2.59375 5.109375,-2.32422 11.683594,-4.82422 14.183594,-1.66406 1.503906,1.89453 0.800781,4.39844 -1.1875,7.82812 z m -21.695312,6.83985 c -1.203125,0.0859 -2.195313,-1.02735 -2.578125,-2.55469 l 0.984375,-2.30859 c 0.113281,-0.25391 0.03906,-0.48828 -0.128907,-0.66016 l -3.128906,-3.125 c -0.175781,-0.17578 -0.335937,-0.18359 -0.421875,0 l -1.480469,3.125 c -0.113281,0.26563 0.011719,0.47266 0.167969,0.65234 l 2.335938,2.35938 c 0.484375,1.85547 -0.769532,2.52734 -1.480469,2.52734 -2.476563,0 -4.457031,-3.36718 -6.484375,-6.85547 -1.988281,-3.42968 -2.6875,-5.93359 -1.1875,-7.82812 2.503906,-3.16016 9.078125,-0.66016 14.183594,1.66406 -0.04687,0.73438 0.125,1.58203 0.578125,2.59375 2.699218,6.00781 0.878906,10.26172 -1.359375,10.41016 z m 8.355468,-15.39844 c -0.371093,0.12109 -0.757812,0.0117 -1.09375,-0.25781 -0.289062,-0.24219 -0.59375,-0.44531 -0.894531,-0.625 0.933594,-0.55469 1.5625,-1.57031 1.5625,-2.73438 0,-1.59375 -1.167969,-2.91015 -2.695312,-3.14843 l 1.171875,-1.51172 c 0.117187,-0.14844 0.117187,-0.39453 0,-0.54297 l -1.453125,-1.875 c -0.05859,-0.0781 -0.132813,-0.10938 -0.214844,-0.10938 -0.07422,0 -0.152344,0.0312 -0.210938,0.10938 l -1.449218,1.875 c -0.117188,0.14844 -0.117188,0.39453 0,0.54297 l 1.167968,1.51172 c -1.527343,0.23828 -2.691406,1.55468 -2.691406,3.14843 0,1.16407 0.625,2.17969 1.5625,2.73438 -0.300781,0.17969 -0.605469,0.38281 -0.898437,0.625 -0.335938,0.26953 -0.71875,0.3789 -1.09375,0.25781 -6.628907,-2.11719 -12.480469,-4.16016 -15.804688,-0.90234 -3.980469,3.91015 0.652344,10.22656 2.113281,12.82422 1.019532,1.82421 1.746094,3.94921 1.746094,5.63671 h 31.121094 c 0,-1.6875 0.726562,-3.8125 1.746094,-5.63671 1.460937,-2.59766 6.097656,-8.91407 2.113281,-12.82422 -3.324219,-3.25782 -9.175781,-1.21485 -15.804688,0.90234 z M 5.441406,826.97656 h 31.117188 v -2.5625 H 5.441406 Z m 215.894534,-8.44922 h -5.00391 c -0.10937,0 -0.13672,-0.082 -0.10937,-0.1914 l 2.5039,-6.69141 c 0.0273,-0.10547 0.0781,-0.24219 0.16016,-0.24219 0.082,0 0.10937,0.13672 0.13672,0.24219 l 2.44922,6.71875 c 0.0234,0.082 0,0.16406 -0.13672,0.16406 z m 9.1914,7.96875 c -0.32422,0 -0.73437,-0.0273 -1.14062,-0.10937 -0.57031,-0.13281 -1.35938,-0.51563 -2.39453,-2.96485 -1.74219,-4.13281 -6.09375,-15.22656 -6.7461,-16.72265 -0.26953,-0.625 -0.43359,-0.8711 -0.67578,-0.8711 -0.27344,0 -0.4375,0.29688 -0.76562,1.08594 l -6.82422,17.08203 c -0.54297,1.35547 -1.0625,2.28125 -2.3125,2.44532 -0.21485,0.0273 -0.59766,0.0547 -0.84375,0.0547 -0.21875,0 -0.32813,0.0547 -0.32813,0.21875 0,0.21485 0.16797,0.27344 0.51953,0.27344 1.41407,0 2.91016,-0.082 3.20704,-0.082 0.84765,0 2.01562,0.082 2.88671,0.082 0.29688,0 0.46094,-0.0586 0.46094,-0.27344 0,-0.16406 -0.082,-0.21875 -0.41015,-0.21875 h -0.40625 c -0.84375,0 -1.08985,-0.35156 -1.08985,-0.84375 0,-0.32422 0.13672,-0.97656 0.41016,-1.65625 l 1.46875,-3.89062 c 0.0547,-0.16406 0.10937,-0.21485 0.24219,-0.21485 h 6.0664 c 0.13672,0 0.21875,0.0508 0.27344,0.1875 l 2.17578,5.76563 c 0.13672,0.32422 -0.0547,0.57031 -0.24609,0.625 -0.26953,0.0273 -0.37891,0.082 -0.37891,0.24609 0,0.19141 0.32422,0.19141 0.8125,0.21485 2.17578,0.0586 4.16406,0.0586 5.14063,0.0586 1.00781,0 1.2539,-0.0586 1.2539,-0.27344 0,-0.1914 -0.13672,-0.21875 -0.35547,-0.21875 z m -55.63672,0 c -0.35156,0 -0.89843,-0.0273 -1.6875,-0.27343 -0.8125,-0.24219 -1.08593,-1.03125 -1.33203,-2.7461 l -2.47265,-16.80469 c -0.082,-0.57421 -0.2461,-0.84375 -0.49219,-0.84375 -0.24219,0 -0.40625,0.21485 -0.59766,0.65235 l -7.39843,15.52734 -7.42188,-15.33594 c -0.35156,-0.70703 -0.51562,-0.84375 -0.73437,-0.84375 -0.21875,0 -0.38282,0.2461 -0.46094,0.70704 l -2.69141,17.73437 c -0.13672,0.92188 -0.35547,1.98438 -1.11719,2.14453 -0.40625,0.082 -0.59765,0.082 -0.8164,0.082 -0.27344,0 -0.4336,0.0547 -0.4336,0.19141 0,0.24219 0.21485,0.30078 0.48829,0.30078 0.87109,0 2.17578,-0.0859 2.6914,-0.0859 0.49219,0 1.71485,0.0859 2.85547,0.0859 0.41016,0 0.65234,-0.0586 0.65234,-0.30078 0,-0.13672 -0.1875,-0.19141 -0.40625,-0.19141 -0.27343,0 -0.65234,-0.0273 -1.14453,-0.13672 -0.46093,-0.10546 -0.8125,-0.35156 -0.8125,-0.87109 0,-0.43359 0.0273,-0.78516 0.082,-1.27344 l 1.41407,-10.82422 h 0.10547 c 0.95312,2.03516 2.58593,5.46485 2.83203,6.03516 0.32422,0.76172 2.47656,4.92188 3.125,6.17188 0.4375,0.8164 0.70703,1.36328 0.95312,1.36328 0.2461,0 0.37891,-0.2461 1.00391,-1.52735 l 5.93359,-12.34375 h 0.10547 l 1.63281,11.96485 c 0.10938,0.76172 0.0273,1.11328 -0.13672,1.16797 -0.1875,0.082 -0.30078,0.16406 -0.30078,0.30078 0,0.16406 0.16407,0.24609 0.79297,0.30078 1.08594,0.082 4.83985,0.16406 5.51953,0.16406 0.38282,0 0.70703,-0.082 0.70703,-0.30078 0,-0.16406 -0.1914,-0.19141 -0.4375,-0.19141 z m 11.98829,-0.65234 c -0.625,0 -1.25,-0.0273 -1.98438,-0.32422 -0.86719,-0.35547 -0.94922,-0.81641 -0.94922,-2.61328 v -6.44141 c 0,-0.13672 0.0508,-0.1914 0.16016,-0.1914 0.41015,0 0.68359,0 1.17187,0.0234 1.0586,0.0547 1.6875,0.24219 2.25782,0.65625 2.0664,1.4375 2.63671,3.72266 2.63671,5.40625 0,2.83204 -2.0664,3.48438 -3.29296,3.48438 z m -2.9336,-17.78906 c 0,-0.29688 0.0508,-0.40235 0.24219,-0.46094 0.27344,-0.0547 0.51562,-0.0547 0.89844,-0.0547 2.33984,0 3.40234,2.39453 3.40234,4.21875 0,1.33203 -0.41016,2.3125 -1.11719,2.88281 -0.46093,0.40625 -1.0625,0.51563 -1.96093,0.51563 -0.6211,0 -1.03125,-0.0273 -1.27735,-0.082 -0.10547,-0.0273 -0.1875,-0.082 -0.1875,-0.30078 z m 4.6211,7.21093 c 1.49609,-1.19531 2.77734,-2.53125 2.77734,-4.75781 0,-1.44531 -0.87109,-4.08203 -5.79688,-4.08203 -0.92578,0 -1.98437,0.0781 -3.3164,0.0781 -0.54297,0 -2.25781,-0.0781 -3.69922,-0.0781 -0.40625,0 -0.59766,0.0547 -0.59766,0.24609 0,0.1875 0.16407,0.24219 0.46094,0.24219 0.37891,0 0.84375,0.0274 1.05859,0.0781 0.89844,0.19531 1.11719,0.6289 1.17188,1.55468 0.0547,0.8711 0.0547,1.63282 0.0547,5.76563 v 4.78906 c 0,2.5 0,4.65235 -0.13672,5.78906 -0.10938,0.78907 -0.24219,1.38672 -0.78516,1.4961 -0.24609,0.0547 -0.57422,0.10937 -0.98437,0.10937 -0.32422,0 -0.4336,0.082 -0.4336,0.21875 0,0.19141 0.19141,0.27344 0.54297,0.27344 1.08985,0 2.80469,-0.082 3.42969,-0.082 0.81641,0 3.28906,0.16016 3.94141,0.16016 5.00781,0 7.26171,-3.01563 7.26171,-5.92969 0,-3.17969 -2.71875,-5.10938 -4.94921,-5.8711 z m -67.30078,7.47657 c -0.21875,0 -0.26954,0.16406 -0.30079,0.41015 -0.0547,0.51563 -0.3789,1.27735 -0.70312,1.62891 -0.68359,0.73828 -1.74609,0.76172 -3.1875,0.76172 -2.12109,0 -2.82422,-0.19141 -3.28906,-0.59766 -0.57032,-0.48828 -0.57032,-2.36328 -0.57032,-5.84765 v -4.78516 c 0,-4.13281 0,-4.89453 0.0547,-5.76563 0.0547,-0.95312 0.26953,-1.41406 1.00391,-1.55078 0.32812,-0.0508 0.76172,-0.0781 1.0625,-0.0781 0.32812,0 0.48828,-0.0586 0.48828,-0.2461 0,-0.1914 -0.1875,-0.24609 -0.57031,-0.24609 -1.0625,0 -3.04688,0.0859 -3.69922,0.0859 -0.73438,0 -2.44922,-0.0859 -3.72656,-0.0859 -0.40625,0 -0.59766,0.0547 -0.59766,0.24609 0,0.1875 0.16406,0.2461 0.46094,0.2461 0.35547,0 0.67968,0.0273 0.89843,0.0781 0.89844,0.1875 1.11719,0.625 1.17188,1.55078 0.0547,0.8711 0.0547,1.63282 0.0547,5.76563 v 4.78516 c 0,2.5039 0,4.65625 -0.13672,5.79296 -0.10938,0.78907 -0.2461,1.38672 -0.78906,1.4961 -0.2461,0.0547 -0.57422,0.10937 -0.98047,0.10937 -0.32422,0 -0.4336,0.082 -0.4336,0.21875 0,0.1875 0.19141,0.27344 0.54297,0.27344 1.08594,0 2.80078,-0.0859 3.42969,-0.0859 2.20312,0 3.99609,0.16407 7.91016,0.16407 1.41406,0 1.55078,-0.13672 1.71484,-0.73438 0.21875,-0.78906 0.40625,-2.82812 0.40625,-3.125 0,-0.32812 -0.0234,-0.46484 -0.21484,-0.46484 z m 84.55859,3.7539 c -0.41016,0 -1.00391,-0.0547 -1.38672,-0.10937 -0.81641,-0.10938 -1.00391,-0.59766 -1.08984,-1.33203 -0.10938,-1.16797 -0.10938,-3.32032 -0.10938,-5.95703 v -4.78516 c 0,-4.13281 0,-4.89453 0.0547,-5.76563 0.0547,-0.95312 0.27344,-1.41406 1.00781,-1.55468 0.32813,-0.0508 0.54297,-0.0781 0.81641,-0.0781 0.27343,0 0.43359,-0.0547 0.43359,-0.27344 0,-0.16015 -0.21484,-0.21484 -0.57031,-0.21484 -1.03516,0 -2.64063,0.082 -3.31641,0.082 -0.79297,0 -2.5039,-0.082 -3.53906,-0.082 -0.43359,0 -0.65234,0.0547 -0.65234,0.21484 0,0.21875 0.16406,0.27344 0.4375,0.27344 0.32421,0 0.67968,0.0274 0.97656,0.10938 0.60156,0.13672 0.87109,0.59765 0.92578,1.52343 0.0547,0.8711 0.0547,1.63282 0.0547,5.76563 v 4.78516 c 0,2.63671 0,4.78906 -0.13672,5.92968 -0.082,0.78907 -0.24219,1.25 -0.78906,1.35938 -0.24219,0.0547 -0.57032,0.10937 -0.97657,0.10937 -0.32812,0 -0.43359,0.082 -0.43359,0.21875 0,0.1875 0.1875,0.27344 0.54297,0.27344 1.08594,0 2.79687,-0.0859 3.42578,-0.0859 0.73437,0 2.44531,0.0859 4.24219,0.0859 0.29687,0 0.51953,-0.0859 0.51953,-0.27344 0,-0.13672 -0.14063,-0.21875 -0.4375,-0.21875 z m -60.63281,-20.07031 c -1.0625,0 -2.77735,0.082 -3.10157,0.082 -0.0273,0 -1.73828,-0.082 -3.125,-0.082 -0.38281,0 -0.57031,0.0547 -0.57031,0.24609 0,0.1875 0.16016,0.24219 0.45703,0.24219 0.30078,0 0.76172,0.0274 0.98438,0.0781 0.89453,0.1914 1.11328,0.6289 1.16797,1.55468 0.0508,0.8711 0.0508,1.63282 0.0508,5.76563 v 3.39844 c 0,2.80468 -0.0781,5.2539 -1.57813,6.74609 -1.08203,1.08594 -2.55469,1.46875 -3.75,1.46875 -0.92578,0 -2.17578,-0.10937 -3.40234,-1.11719 -1.32813,-1.08593 -2.1211,-2.74609 -2.1211,-6.6875 v -3.80859 c 0,-4.13281 0,-4.89453 0.0547,-5.76563 0.0586,-0.95312 0.27344,-1.41406 1.00781,-1.55468 0.32813,-0.0508 0.49219,-0.0781 0.78907,-0.0781 0.26953,0 0.43359,-0.0547 0.43359,-0.24219 0,-0.1914 -0.1875,-0.24609 -0.59766,-0.24609 -0.97656,0 -2.6914,0.082 -3.34375,0.082 -0.8164,0 -2.53124,-0.082 -3.97265,-0.082 -0.40625,0 -0.59766,0.0547 -0.59766,0.24609 0,0.1875 0.16407,0.24219 0.46094,0.24219 0.38281,0 0.84766,0.0274 1.0625,0.0781 0.89844,0.1914 1.11719,0.6289 1.16797,1.55468 0.0547,0.8711 0.0547,1.63282 0.0547,5.76563 v 3.96875 c 0,3.94531 1.03515,5.95703 2.42187,7.20703 1.98438,1.79688 4.59375,1.87891 6.03906,1.87891 1.76563,0 3.72657,-0.30078 5.65625,-1.95703 2.28516,-1.96094 2.58594,-5.16797 2.58594,-8.1875 v -2.91016 c 0,-4.13281 0,-4.89453 0.0508,-5.76563 0.0547,-0.95312 0.27344,-1.41406 1.00781,-1.55468 0.32422,-0.0508 0.48829,-0.0781 0.78907,-0.0781 0.32422,0 0.48828,-0.0547 0.48828,-0.24219 0,-0.1914 -0.19141,-0.24609 -0.57031,-0.24609 z m -51.835941,19.58203 c -5.222656,0 -8.347656,-4.48828 -8.347656,-10.14453 0,-6.77344 3.558593,-8.51172 6.691406,-8.51172 4.457031,0 7.96875,3.78125 7.96875,9.8711 0,7.85937 -4.410156,8.78515 -6.3125,8.78515 z m -0.871094,-19.96484 c -8.15625,0 -11.230469,6.01172 -11.230469,10.66406 0,4.8125 3.152344,10.66016 10.960938,10.66016 6.90625,0 11.257816,-4.92578 11.257816,-11.15235 0,-6.22656 -4.214847,-10.17187 -10.988285,-10.17187 z m -15.621094,14.91406 c -0.257812,0 -0.324218,0.12891 -0.421875,0.64844 -0.128906,0.58594 -0.550781,1.53125 -1.101562,2.14453 -1.304688,1.49609 -3.058594,1.82422 -5.953125,1.82422 -4.355469,0 -10.238281,-3.83985 -10.238281,-11.57422 0,-3.15234 0.617187,-6.23828 2.992187,-8.41797 1.429688,-1.30078 3.285156,-2.01562 6.109375,-2.01562 2.988281,0 5.527344,0.8789 6.597656,2.01562 0.816407,0.84375 1.238282,1.98438 1.269532,2.98828 0,0.45703 0.06641,0.71485 0.324218,0.71485 0.292969,0 0.355469,-0.25782 0.390625,-0.7461 0.06641,-0.64844 0.03125,-2.4375 0.09766,-3.51172 0.0625,-1.13672 0.164062,-1.52734 0.164062,-1.78515 0,-0.19532 -0.132812,-0.35547 -0.488281,-0.39453 -0.976563,-0.0937 -2.015625,-0.38672 -3.25,-0.55079 -1.496094,-0.19531 -2.699219,-0.32031 -4.714844,-0.32031 -4.84375,0 -7.929687,1.29688 -10.269531,3.44141 -3.121094,2.85937 -3.808594,6.69531 -3.808594,8.90625 0,3.15234 0.847656,6.79297 4.035156,9.58984 2.957032,2.56641 6.695313,3.54297 11.148438,3.54297 2.082031,0 4.550781,-0.22656 5.847656,-0.75 0.554688,-0.22656 0.6875,-0.38672 0.847656,-0.9375 0.328125,-1.10937 0.71875,-3.9375 0.71875,-4.32812 0,-0.25782 -0.06641,-0.48438 -0.296875,-0.48438"
       id="path90"
       inkscape:connector-curvature="0" />
  </g>
</svg>
