<?xml version="1.0" encoding="UTF-8" standalone="no"?>
<svg
   xmlns:dc="http://purl.org/dc/elements/1.1/"
   xmlns:cc="http://creativecommons.org/ns#"
   xmlns:rdf="http://www.w3.org/1999/02/22-rdf-syntax-ns#"
   xmlns:svg="http://www.w3.org/2000/svg"
   xmlns="http://www.w3.org/2000/svg"
   xmlns:sodipodi="http://sodipodi.sourceforge.net/DTD/sodipodi-0.dtd"
   xmlns:inkscape="http://www.inkscape.org/namespaces/inkscape"
   width="83.450058mm"
   height="13.859397mm"
   viewBox="0 0 236.55135 39.286482"
   version="1.2"
   id="svg93"
   sodipodi:docname="favicon.svg"
   inkscape:version="0.92.3 (2405546, 2018-03-11)"
   inkscape:export-filename="C:\Users\nt0ny\development\www-icg\src\assets\columbia_icg.png"
   inkscape:export-xdpi="600.22467"
   inkscape:export-ydpi="600.22467">
  <metadata
     id="metadata97">
    <rdf:RDF>
      <cc:Work
         rdf:about="">
        <dc:format>image/svg+xml</dc:format>
        <dc:type
           rdf:resource="http://purl.org/dc/dcmitype/StillImage" />
        <dc:title></dc:title>
      </cc:Work>
    </rdf:RDF>
  </metadata>
  <sodipodi:namedview
     pagecolor="#ffffff"
     bordercolor="#666666"
     borderopacity="1"
     objecttolerance="10"
     gridtolerance="10"
     guidetolerance="10"
     inkscape:pageopacity="0"
     inkscape:pageshadow="2"
     inkscape:window-width="1920"
     inkscape:window-height="1013"
     id="namedview95"
     showgrid="false"
     inkscape:measure-start="0,0"
     inkscape:measure-end="0,0"
     fit-margin-top="1"
     fit-margin-left="1"
     fit-margin-right="1"
     fit-margin-bottom="1"
     inkscape:zoom="1.6817102"
     inkscape:cx="278.1293"
     inkscape:cy="92.569112"
     inkscape:window-x="-9"
     inkscape:window-y="-9"
     inkscape:window-maximized="1"
     inkscape:current-layer="surface40"
     units="mm" />
  <defs
     id="defs8">
    <clipPath
       id="clip1">
      <path
         d="m 246,782.74219 h 2 V 842 h -2 z m 0,0"
         id="path2"
         inkscape:connector-curvature="0" />
    </clipPath>
    <clipPath
       id="clip2">
      <path
         d="m 465,817 h 10.83984 v 10 H 465 Z m 0,0"
         id="path5"
         inkscape:connector-curvature="0" />
    </clipPath>
  </defs>
  <g
     id="surface40"
     transform="translate(-1.6079798,-791.00519)">
    <path
       style="fill:#1c4c8f;fill-opacity:1;fill-rule:nonzero;stroke:none"
       d="m 42.395014,813.20312 c -2.023437,3.48829 -4.003906,6.85547 -6.484375,6.85547 -0.707031,0 -1.96875,-0.67187 -1.480469,-2.52734 l 2.335938,-2.35938 c 0.160156,-0.17968 0.28125,-0.38671 0.167969,-0.65234 l -1.476563,-3.125 c -0.08594,-0.18359 -0.25,-0.17578 -0.425781,0 l -3.125,3.125 c -0.167969,0.17188 -0.242188,0.40625 -0.132813,0.66016 l 0.988282,2.30859 c -0.382813,1.52734 -1.375,2.64063 -2.582032,2.55469 -2.238281,-0.14844 -4.054687,-4.40235 -1.359375,-10.41016 0.453125,-1.01172 0.625,-1.85937 0.578125,-2.59375 5.109375,-2.32422 11.683594,-4.82422 14.183594,-1.66406 1.503906,1.89453 0.800781,4.39844 -1.1875,7.82812 z m -21.695312,6.83985 c -1.203125,0.0859 -2.195313,-1.02735 -2.578125,-2.55469 l 0.984375,-2.30859 c 0.113281,-0.25391 0.03906,-0.48828 -0.128907,-0.66016 l -3.128906,-3.125 c -0.175781,-0.17578 -0.335937,-0.18359 -0.421875,0 l -1.480469,3.125 c -0.113281,0.26563 0.01172,0.47266 0.167969,0.65234 l 2.335938,2.35938 c 0.484375,1.85547 -0.769532,2.52734 -1.480469,2.52734 -2.476563,0 -4.457031,-3.36718 -6.4843748,-6.85547 -1.9882807,-3.42968 -2.6874997,-5.93359 -1.1875,-7.82812 2.503906,-3.16016 9.0781248,-0.66016 14.1835938,1.66406 -0.04687,0.73438 0.125,1.58203 0.578125,2.59375 2.699218,6.00781 0.878906,10.26172 -1.359375,10.41016 z m 8.355468,-15.39844 c -0.371093,0.12109 -0.757812,0.0117 -1.09375,-0.25781 -0.289062,-0.24219 -0.59375,-0.44531 -0.894531,-0.625 0.933594,-0.55469 1.5625,-1.57031 1.5625,-2.73438 0,-1.59375 -1.167969,-2.91015 -2.695312,-3.14843 l 1.171875,-1.51172 c 0.117187,-0.14844 0.117187,-0.39453 0,-0.54297 l -1.453125,-1.875 c -0.05859,-0.0781 -0.132813,-0.10938 -0.214844,-0.10938 -0.07422,0 -0.152344,0.0312 -0.210938,0.10938 l -1.449218,1.875 c -0.117188,0.14844 -0.117188,0.39453 0,0.54297 l 1.167968,1.51172 c -1.527343,0.23828 -2.691406,1.55468 -2.691406,3.14843 0,1.16407 0.625,2.17969 1.5625,2.73438 -0.300781,0.17969 -0.605469,0.38281 -0.898437,0.625 -0.335938,0.26953 -0.71875,0.3789 -1.09375,0.25781 -6.628907,-2.11719 -12.4804688,-4.16016 -15.8046875,-0.90234 -3.980469,3.91015 0.652344,10.22656 2.1132807,12.82422 1.019532,1.82421 1.746094,3.94921 1.746094,5.63671 H 41.000483 c 0,-1.6875 0.726562,-3.8125 1.746094,-5.63671 1.460937,-2.59766 6.097656,-8.91407 2.113281,-12.82422 -3.324219,-3.25782 -9.175781,-1.21485 -15.804688,0.90234 z M 9.8832952,826.97656 H 41.000483 v -2.5625 H 9.8832952 Z M 225.77783,818.52734 h -5.00391 c -0.10937,0 -0.13672,-0.082 -0.10937,-0.1914 l 2.5039,-6.69141 c 0.0273,-0.10547 0.0781,-0.24219 0.16016,-0.24219 0.082,0 0.10937,0.13672 0.13672,0.24219 l 2.44922,6.71875 c 0.0234,0.082 0,0.16406 -0.13672,0.16406 z m 9.1914,7.96875 c -0.32422,0 -0.73437,-0.0273 -1.14062,-0.10937 -0.57031,-0.13281 -1.35938,-0.51563 -2.39453,-2.96485 -1.74219,-4.13281 -6.09375,-15.22656 -6.7461,-16.72265 -0.26953,-0.625 -0.43359,-0.8711 -0.67578,-0.8711 -0.27344,0 -0.4375,0.29688 -0.76562,1.08594 l -6.82422,17.08203 c -0.54297,1.35547 -1.0625,2.28125 -2.3125,2.44532 -0.21485,0.0273 -0.59766,0.0547 -0.84375,0.0547 -0.21875,0 -0.32813,0.0547 -0.32813,0.21875 0,0.21485 0.16797,0.27344 0.51953,0.27344 1.41407,0 2.91016,-0.082 3.20704,-0.082 0.84765,0 2.01562,0.082 2.88671,0.082 0.29688,0 0.46094,-0.0586 0.46094,-0.27344 0,-0.16406 -0.082,-0.21875 -0.41015,-0.21875 h -0.40625 c -0.84375,0 -1.08985,-0.35156 -1.08985,-0.84375 0,-0.32422 0.13672,-0.97656 0.41016,-1.65625 l 1.46875,-3.89062 c 0.0547,-0.16406 0.10937,-0.21485 0.24219,-0.21485 h 6.0664 c 0.13672,0 0.21875,0.0508 0.27344,0.1875 l 2.17578,5.76563 c 0.13672,0.32422 -0.0547,0.57031 -0.24609,0.625 -0.26953,0.0273 -0.37891,0.082 -0.37891,0.24609 0,0.19141 0.32422,0.19141 0.8125,0.21485 2.17578,0.0586 4.16406,0.0586 5.14063,0.0586 1.00781,0 1.2539,-0.0586 1.2539,-0.27344 0,-0.1914 -0.13672,-0.21875 -0.35547,-0.21875 z m -55.63672,0 c -0.35156,0 -0.89843,-0.0273 -1.6875,-0.27343 -0.8125,-0.24219 -1.08593,-1.03125 -1.33203,-2.7461 l -2.47265,-16.80469 c -0.082,-0.57421 -0.2461,-0.84375 -0.49219,-0.84375 -0.24219,0 -0.40625,0.21485 -0.59766,0.65235 l -7.39843,15.52734 -7.42188,-15.33594 c -0.35156,-0.70703 -0.51562,-0.84375 -0.73437,-0.84375 -0.21875,0 -0.38282,0.2461 -0.46094,0.70704 l -2.69141,17.73437 c -0.13672,0.92188 -0.35547,1.98438 -1.11719,2.14453 -0.40625,0.082 -0.59765,0.082 -0.8164,0.082 -0.27344,0 -0.4336,0.0547 -0.4336,0.19141 0,0.24219 0.21485,0.30078 0.48829,0.30078 0.87109,0 2.17578,-0.0859 2.6914,-0.0859 0.49219,0 1.71485,0.0859 2.85547,0.0859 0.41016,0 0.65234,-0.0586 0.65234,-0.30078 0,-0.13672 -0.1875,-0.19141 -0.40625,-0.19141 -0.27343,0 -0.65234,-0.0273 -1.14453,-0.13672 -0.46093,-0.10546 -0.8125,-0.35156 -0.8125,-0.87109 0,-0.43359 0.0273,-0.78516 0.082,-1.27344 l 1.41407,-10.82422 h 0.10547 c 0.95312,2.03516 2.58593,5.46485 2.83203,6.03516 0.32422,0.76172 2.47656,4.92188 3.125,6.17188 0.4375,0.8164 0.70703,1.36328 0.95312,1.36328 0.2461,0 0.37891,-0.2461 1.00391,-1.52735 l 5.93359,-12.34375 h 0.10547 l 1.63281,11.96485 c 0.10938,0.76172 0.0273,1.11328 -0.13672,1.16797 -0.1875,0.082 -0.30078,0.16406 -0.30078,0.30078 0,0.16406 0.16407,0.24609 0.79297,0.30078 1.08594,0.082 4.83985,0.16406 5.51953,0.16406 0.38282,0 0.70703,-0.082 0.70703,-0.30078 0,-0.16406 -0.1914,-0.19141 -0.4375,-0.19141 z m 11.98829,-0.65234 c -0.625,0 -1.25,-0.0273 -1.98438,-0.32422 -0.86719,-0.35547 -0.94922,-0.81641 -0.94922,-2.61328 v -6.44141 c 0,-0.13672 0.0508,-0.1914 0.16016,-0.1914 0.41015,0 0.68359,0 1.17187,0.0234 1.0586,0.0547 1.6875,0.24219 2.25782,0.65625 2.0664,1.4375 2.63671,3.72266 2.63671,5.40625 0,2.83204 -2.0664,3.48438 -3.29296,3.48438 z m -2.9336,-17.78906 c 0,-0.29688 0.0508,-0.40235 0.24219,-0.46094 0.27344,-0.0547 0.51562,-0.0547 0.89844,-0.0547 2.33984,0 3.40234,2.39453 3.40234,4.21875 0,1.33203 -0.41016,2.3125 -1.11719,2.88281 -0.46093,0.40625 -1.0625,0.51563 -1.96093,0.51563 -0.6211,0 -1.03125,-0.0273 -1.27735,-0.082 -0.10547,-0.0273 -0.1875,-0.082 -0.1875,-0.30078 z m 4.6211,7.21093 c 1.49609,-1.19531 2.77734,-2.53125 2.77734,-4.75781 0,-1.44531 -0.87109,-4.08203 -5.79688,-4.08203 -0.92578,0 -1.98437,0.0781 -3.3164,0.0781 -0.54297,0 -2.25781,-0.0781 -3.69922,-0.0781 -0.40625,0 -0.59766,0.0547 -0.59766,0.24609 0,0.1875 0.16407,0.24219 0.46094,0.24219 0.37891,0 0.84375,0.0274 1.05859,0.0781 0.89844,0.19531 1.11719,0.6289 1.17188,1.55468 0.0547,0.8711 0.0547,1.63282 0.0547,5.76563 v 4.78906 c 0,2.5 0,4.65235 -0.13672,5.78906 -0.10938,0.78907 -0.24219,1.38672 -0.78516,1.4961 -0.24609,0.0547 -0.57422,0.10937 -0.98437,0.10937 -0.32422,0 -0.4336,0.082 -0.4336,0.21875 0,0.19141 0.19141,0.27344 0.54297,0.27344 1.08985,0 2.80469,-0.082 3.42969,-0.082 0.81641,0 3.28906,0.16016 3.94141,0.16016 5.00781,0 7.26171,-3.01563 7.26171,-5.92969 0,-3.17969 -2.71875,-5.10938 -4.94921,-5.8711 z m -67.30078,7.47657 c -0.21875,0 -0.26954,0.16406 -0.30079,0.41015 -0.0547,0.51563 -0.3789,1.27735 -0.70312,1.62891 -0.68359,0.73828 -1.74609,0.76172 -3.1875,0.76172 -2.12109,0 -2.82422,-0.19141 -3.28906,-0.59766 -0.57032,-0.48828 -0.57032,-2.36328 -0.57032,-5.84765 v -4.78516 c 0,-4.13281 0,-4.89453 0.0547,-5.76563 0.0547,-0.95312 0.26953,-1.41406 1.00391,-1.55078 0.32812,-0.0508 0.76172,-0.0781 1.0625,-0.0781 0.32812,0 0.48828,-0.0586 0.48828,-0.2461 0,-0.1914 -0.1875,-0.24609 -0.57031,-0.24609 -1.0625,0 -3.04688,0.0859 -3.69922,0.0859 -0.73438,0 -2.44922,-0.0859 -3.72656,-0.0859 -0.40625,0 -0.59766,0.0547 -0.59766,0.24609 0,0.1875 0.16406,0.2461 0.46094,0.2461 0.35547,0 0.67968,0.0273 0.89843,0.0781 0.89844,0.1875 1.11719,0.625 1.17188,1.55078 0.0547,0.8711 0.0547,1.63282 0.0547,5.76563 v 4.78516 c 0,2.5039 0,4.65625 -0.13672,5.79296 -0.10938,0.78907 -0.2461,1.38672 -0.78906,1.4961 -0.2461,0.0547 -0.57422,0.10937 -0.98047,0.10937 -0.32422,0 -0.4336,0.082 -0.4336,0.21875 0,0.1875 0.19141,0.27344 0.54297,0.27344 1.08594,0 2.80078,-0.0859 3.42969,-0.0859 2.20312,0 3.99609,0.16407 7.91016,0.16407 1.41406,0 1.55078,-0.13672 1.71484,-0.73438 0.21875,-0.78906 0.40625,-2.82812 0.40625,-3.125 0,-0.32812 -0.0234,-0.46484 -0.21484,-0.46484 z m 84.55859,3.7539 c -0.41016,0 -1.00391,-0.0547 -1.38672,-0.10937 -0.81641,-0.10938 -1.00391,-0.59766 -1.08984,-1.33203 -0.10938,-1.16797 -0.10938,-3.32032 -0.10938,-5.95703 v -4.78516 c 0,-4.13281 0,-4.89453 0.0547,-5.76563 0.0547,-0.95312 0.27344,-1.41406 1.00781,-1.55468 0.32813,-0.0508 0.54297,-0.0781 0.81641,-0.0781 0.27343,0 0.43359,-0.0547 0.43359,-0.27344 0,-0.16015 -0.21484,-0.21484 -0.57031,-0.21484 -1.03516,0 -2.64063,0.082 -3.31641,0.082 -0.79297,0 -2.5039,-0.082 -3.53906,-0.082 -0.43359,0 -0.65234,0.0547 -0.65234,0.21484 0,0.21875 0.16406,0.27344 0.4375,0.27344 0.32421,0 0.67968,0.0274 0.97656,0.10938 0.60156,0.13672 0.87109,0.59765 0.92578,1.52343 0.0547,0.8711 0.0547,1.63282 0.0547,5.76563 v 4.78516 c 0,2.63671 0,4.78906 -0.13672,5.92968 -0.082,0.78907 -0.24219,1.25 -0.78906,1.35938 -0.24219,0.0547 -0.57032,0.10937 -0.97657,0.10937 -0.32812,0 -0.43359,0.082 -0.43359,0.21875 0,0.1875 0.1875,0.27344 0.54297,0.27344 1.08594,0 2.79687,-0.0859 3.42578,-0.0859 0.73437,0 2.44531,0.0859 4.24219,0.0859 0.29687,0 0.51953,-0.0859 0.51953,-0.27344 0,-0.13672 -0.14063,-0.21875 -0.4375,-0.21875 z M 149.6333,806.42578 c -1.0625,0 -2.77735,0.082 -3.10157,0.082 -0.0273,0 -1.73828,-0.082 -3.125,-0.082 -0.38281,0 -0.57031,0.0547 -0.57031,0.24609 0,0.1875 0.16016,0.24219 0.45703,0.24219 0.30078,0 0.76172,0.0274 0.98438,0.0781 0.89453,0.1914 1.11328,0.6289 1.16797,1.55468 0.0508,0.8711 0.0508,1.63282 0.0508,5.76563 v 3.39844 c 0,2.80468 -0.0781,5.2539 -1.57813,6.74609 -1.08203,1.08594 -2.55469,1.46875 -3.75,1.46875 -0.92578,0 -2.17578,-0.10937 -3.40234,-1.11719 -1.32813,-1.08593 -2.1211,-2.74609 -2.1211,-6.6875 v -3.80859 c 0,-4.13281 0,-4.89453 0.0547,-5.76563 0.0586,-0.95312 0.27344,-1.41406 1.00781,-1.55468 0.32813,-0.0508 0.49219,-0.0781 0.78907,-0.0781 0.26953,0 0.43359,-0.0547 0.43359,-0.24219 0,-0.1914 -0.1875,-0.24609 -0.59766,-0.24609 -0.97656,0 -2.6914,0.082 -3.34375,0.082 -0.8164,0 -2.53124,-0.082 -3.97265,-0.082 -0.40625,0 -0.59766,0.0547 -0.59766,0.24609 0,0.1875 0.16407,0.24219 0.46094,0.24219 0.38281,0 0.84766,0.0274 1.0625,0.0781 0.89844,0.1914 1.11719,0.6289 1.16797,1.55468 0.0547,0.8711 0.0547,1.63282 0.0547,5.76563 v 3.96875 c 0,3.94531 1.03515,5.95703 2.42187,7.20703 1.98438,1.79688 4.59375,1.87891 6.03906,1.87891 1.76563,0 3.72657,-0.30078 5.65625,-1.95703 2.28516,-1.96094 2.58594,-5.16797 2.58594,-8.1875 v -2.91016 c 0,-4.13281 0,-4.89453 0.0508,-5.76563 0.0547,-0.95312 0.27344,-1.41406 1.00781,-1.55468 0.32422,-0.0508 0.48829,-0.0781 0.78907,-0.0781 0.32422,0 0.48828,-0.0547 0.48828,-0.24219 0,-0.1914 -0.19141,-0.24609 -0.57031,-0.24609 z m -51.835936,19.58203 c -5.222665,0 -8.347665,-4.48828 -8.347665,-10.14453 0,-6.77344 3.5586,-8.51172 6.69141,-8.51172 4.457031,0 7.968751,3.78125 7.968751,9.8711 0,7.85937 -4.410156,8.78515 -6.312496,8.78515 z m -0.871095,-19.96484 c -8.15625,0 -11.230474,6.01172 -11.230474,10.66406 0,4.8125 3.152344,10.66016 10.960934,10.66016 6.906251,0 11.257821,-4.92578 11.257821,-11.15235 0,-6.22656 -4.21485,-10.17187 -10.988281,-10.17187 z M 81.30517,820.95703 c -0.257812,0 -0.324218,0.12891 -0.421875,0.64844 -0.128906,0.58594 -0.550781,1.53125 -1.101562,2.14453 -1.304688,1.49609 -3.058594,1.82422 -5.953125,1.82422 -4.355469,0 -10.238281,-3.83985 -10.238281,-11.57422 0,-3.15234 0.617187,-6.23828 2.992187,-8.41797 1.429688,-1.30078 3.285156,-2.01562 6.109375,-2.01562 2.988281,0 5.527344,0.8789 6.597656,2.01562 0.816407,0.84375 1.238282,1.98438 1.269532,2.98828 0,0.45703 0.06641,0.71485 0.324218,0.71485 0.292969,0 0.355469,-0.25782 0.390625,-0.7461 0.06641,-0.64844 0.03125,-2.4375 0.09766,-3.51172 0.0625,-1.13672 0.164062,-1.52734 0.164062,-1.78515 0,-0.19532 -0.132812,-0.35547 -0.488281,-0.39453 -0.976563,-0.0937 -2.015625,-0.38672 -3.25,-0.55079 -1.496094,-0.19531 -2.699219,-0.32031 -4.714844,-0.32031 -4.84375,0 -7.929687,1.29688 -10.269531,3.44141 -3.121094,2.85937 -3.808594,6.69531 -3.808594,8.90625 0,3.15234 0.847656,6.79297 4.035156,9.58984 2.957032,2.56641 6.695313,3.54297 11.148438,3.54297 2.082031,0 4.550781,-0.22656 5.847656,-0.75 0.554688,-0.22656 0.6875,-0.38672 0.847656,-0.9375 0.328125,-1.10937 0.71875,-3.9375 0.71875,-4.32812 0,-0.25782 -0.06641,-0.48438 -0.296875,-0.48438"
       id="path90"
       inkscape:connector-curvature="0" />
  </g>
</svg>
