<?xml version="1.0" encoding="UTF-8" standalone="no"?>
<!-- Created with Inkscape (http://www.inkscape.org/) -->

<svg
   xmlns:dc="http://purl.org/dc/elements/1.1/"
   xmlns:cc="http://creativecommons.org/ns#"
   xmlns:rdf="http://www.w3.org/1999/02/22-rdf-syntax-ns#"
   xmlns:svg="http://www.w3.org/2000/svg"
   xmlns="http://www.w3.org/2000/svg"
   xmlns:sodipodi="http://sodipodi.sourceforge.net/DTD/sodipodi-0.dtd"
   xmlns:inkscape="http://www.inkscape.org/namespaces/inkscape"
   width="134.17607mm"
   height="30.82361mm"
   viewBox="0 0 134.17607 30.82361"
   version="1.1"
   id="svg8"
   sodipodi:docname="logo.svg"
   inkscape:version="0.92.3 (2405546, 2018-03-11)"
   inkscape:export-filename="C:\Users\nt0ny\development\www-icg\src\images\icg.png"
   inkscape:export-xdpi="1200"
   inkscape:export-ydpi="1200">
  <defs
     id="defs2" />
  <sodipodi:namedview
     id="base"
     pagecolor="#ffffff"
     bordercolor="#666666"
     borderopacity="1.0"
     inkscape:pageopacity="0.0"
     inkscape:pageshadow="2"
     inkscape:zoom="0.98994949"
     inkscape:cx="378.69409"
     inkscape:cy="-67.36058"
     inkscape:document-units="mm"
     inkscape:current-layer="layer1"
     showgrid="false"
     inkscape:window-width="1920"
     inkscape:window-height="1013"
     inkscape:window-x="-9"
     inkscape:window-y="-9"
     inkscape:window-maximized="1"
     fit-margin-top="1"
     fit-margin-left="1"
     fit-margin-right="1"
     fit-margin-bottom="1" />
  <metadata
     id="metadata5">
    <rdf:RDF>
      <cc:Work
         rdf:about="">
        <dc:format>image/svg+xml</dc:format>
        <dc:type
           rdf:resource="http://purl.org/dc/dcmitype/StillImage" />
        <dc:title></dc:title>
      </cc:Work>
    </rdf:RDF>
  </metadata>
  <g
     inkscape:label="Layer 1"
     inkscape:groupmode="layer"
     id="layer1"
     transform="translate(-23.075831,-122.56204)">
    <g
       aria-label="ICG"
       transform="matrix(0.26458333,0,0,0.26458333,-0.52916486,0)"
       style="font-style:normal;font-variant:normal;font-weight:normal;font-stretch:normal;font-size:40px;line-height:125%;font-family:'Libre Baskerville';-inkscape-font-specification:'Libre Baskerville';letter-spacing:0px;word-spacing:0px;fill:#000000;fill-opacity:1;stroke:none;stroke-width:1px;stroke-linecap:butt;stroke-linejoin:miter;stroke-opacity:1"
       id="flowRoot817">
      <path
         d="m 114.2557,536.55595 h -1.92 v -30.16 h 1.92 z"
         style="font-style:normal;font-variant:normal;font-weight:normal;font-stretch:normal;font-family:'Futura LT Light';-inkscape-font-specification:'Futura LT Light, ';letter-spacing:2px;fill:#ffffff"
         id="path1025"
         inkscape:connector-curvature="0" />
      <path
         d="m 146.7332,512.55595 q -0.88,-1.08 -2.04,-1.92 -1.16,-0.88 -2.52,-1.52 -1.32,-0.64 -2.76,-0.96 -1.4,-0.36 -2.8,-0.36 -2.84,0 -5.32,1.12 -2.48,1.12 -4.36,3.04 -1.88,1.92 -2.96,4.44 -1.08,2.52 -1.08,5.28 0,2.64 1.04,5.04 1.08,2.4 3,4.28 1.92,1.8 4.44,3 2.56,1.16 5.24,1.16 1.32,0 2.72,-0.32 1.44,-0.36 2.8,-0.96 1.36,-0.6 2.56,-1.44 1.2,-0.84 2.04,-1.88 v 2.64 q -2.16,1.8 -4.72,2.8 -2.52,0.96 -5.32,0.96 -3.16,0 -6,-1.2 -2.84,-1.24 -5,-3.32 -2.16,-2.12 -3.44,-4.92 -1.28,-2.84 -1.28,-6 0,-3.2 1.24,-6.04 1.28,-2.84 3.44,-4.92 2.16,-2.12 5,-3.32 2.88,-1.24 6.08,-1.24 2.76,0 5.36,1.04 2.6,1 4.64,2.88 z"
         style="font-style:normal;font-variant:normal;font-weight:normal;font-stretch:normal;font-family:'Futura LT Light';-inkscape-font-specification:'Futura LT Light, ';letter-spacing:2px;fill:#ffffff"
         id="path1027"
         inkscape:connector-curvature="0" />
      <path
         d="m 182.58445,522.03595 q 0.04,1.44 -0.08,2.76 -0.12,1.32 -0.48,2.6 -0.32,1.24 -0.96,2.44 -0.64,1.16 -1.64,2.24 -2.16,2.36 -5.2,3.64 -3.04,1.24 -6.24,1.24 -3.12,0 -5.96,-1.2 -2.8,-1.24 -4.92,-3.32 -2.12,-2.12 -3.36,-4.92 -1.24,-2.8 -1.24,-5.92 0,-3.24 1.24,-6.08 1.24,-2.84 3.36,-4.96 2.16,-2.12 5,-3.32 2.88,-1.24 6.12,-1.24 4.12,0 7.4,1.92 3.28,1.88 5.68,5.12 l -1.56,1.24 q -2.04,-3 -5,-4.72 -2.96,-1.76 -6.64,-1.76 -2.76,0 -5.24,1.12 -2.48,1.12 -4.36,3 -1.88,1.88 -3,4.36 -1.08,2.48 -1.08,5.2 0,2.8 1.08,5.28 1.08,2.48 2.92,4.36 1.88,1.84 4.36,2.96 2.48,1.08 5.32,1.08 2.44,0 4.72,-0.88 2.28,-0.92 4.16,-2.44 1.96,-1.68 2.76,-3.6 0.84,-1.92 0.92,-4.4 h -10.8 v -1.8 z"
         style="font-style:normal;font-variant:normal;font-weight:normal;font-stretch:normal;font-family:'Futura LT Light';-inkscape-font-specification:'Futura LT Light, ';letter-spacing:2px;fill:#ffffff"
         id="path1029"
         inkscape:connector-curvature="0" />
    </g>
    <circle
       style="opacity:1;fill:none;fill-opacity:1;stroke:#ffffff;stroke-width:1;stroke-linecap:round;stroke-linejoin:round;stroke-miterlimit:4;stroke-dasharray:none;stroke-opacity:1;paint-order:stroke markers fill"
       id="path825"
       cx="38.487637"
       cy="137.97385"
       r="13.911805" />
    <g
       aria-label="INSTITUTE FOR 
CANCER GENETICS"
       transform="matrix(0.26458333,0,0,0.26458333,28.716596,-6.6842878)"
       style="font-style:normal;font-variant:normal;font-weight:normal;font-stretch:normal;font-size:40px;line-height:125%;font-family:'Libre Baskerville';-inkscape-font-specification:'Libre Baskerville';letter-spacing:0px;word-spacing:0px;fill:#000000;fill-opacity:1;stroke:none;stroke-width:1px;stroke-linecap:butt;stroke-linejoin:miter;stroke-opacity:1"
       id="flowRoot817-5">
      <path
         d="m 115.6157,536.55595 h -3.76 v -30.16 h 3.76 z"
         style="font-style:normal;font-variant:normal;font-weight:normal;font-stretch:normal;font-family:'Futura LT Medium';-inkscape-font-specification:'Futura LT Medium, ';letter-spacing:2px;fill:#ffffff"
         id="path1032"
         inkscape:connector-curvature="0" />
      <path
         d="m 122.91258,504.95595 22.64,23.72 v -22.28 h 3.76 v 31.4 l -22.64,-23.72 v 22.48 h -3.76 z"
         style="font-style:normal;font-variant:normal;font-weight:normal;font-stretch:normal;font-family:'Futura LT Medium';-inkscape-font-specification:'Futura LT Medium, ';letter-spacing:2px;fill:#ffffff"
         id="path1034"
         inkscape:connector-curvature="0" />
      <path
         d="m 170.07883,512.11595 q -0.84,-1.4 -2,-2.12 -1.12,-0.72 -2.84,-0.72 -0.92,0 -1.84,0.32 -0.88,0.28 -1.6,0.84 -0.72,0.56 -1.16,1.36 -0.44,0.76 -0.44,1.76 0,0.88 0.4,1.56 0.4,0.68 1,1.2 0.6,0.52 1.32,0.92 0.76,0.36 1.48,0.64 l 2.16,0.84 q 1.6,0.64 2.96,1.44 1.4,0.76 2.4,1.84 1,1.08 1.56,2.52 0.56,1.4 0.56,3.28 0,2.04 -0.76,3.8 -0.72,1.72 -2.04,2.96 -1.28,1.24 -3.04,1.96 -1.76,0.68 -3.8,0.68 -1.84,0 -3.44,-0.64 -1.6,-0.64 -2.84,-1.76 -1.2,-1.12 -2,-2.68 -0.8,-1.56 -1.04,-3.36 l 3.8,-0.8 q 0,1.24 0.44,2.32 0.44,1.04 1.24,1.8 0.8,0.76 1.88,1.2 1.08,0.4 2.28,0.4 1.2,0 2.2,-0.48 1.04,-0.48 1.76,-1.28 0.76,-0.8 1.16,-1.84 0.44,-1.08 0.44,-2.28 0,-1.2 -0.44,-2.08 -0.44,-0.92 -1.2,-1.56 -0.72,-0.68 -1.68,-1.16 -0.92,-0.52 -1.88,-0.92 l -2.08,-0.88 q -1.28,-0.56 -2.48,-1.2 -1.2,-0.68 -2.12,-1.56 -0.88,-0.92 -1.44,-2.12 -0.52,-1.2 -0.52,-2.76 0,-1.84 0.72,-3.28 0.76,-1.44 2,-2.44 1.24,-1 2.84,-1.52 1.6,-0.56 3.32,-0.56 2.52,0 4.52,1.2 2,1.16 3.24,3.36 z"
         style="font-style:normal;font-variant:normal;font-weight:normal;font-stretch:normal;font-family:'Futura LT Medium';-inkscape-font-specification:'Futura LT Medium, ';letter-spacing:2px;fill:#ffffff"
         id="path1036"
         inkscape:connector-curvature="0" />
      <path
         d="m 188.2832,536.55595 h -3.76 v -26.72 h -7.16 v -3.44 h 18.08 v 3.44 h -7.16 z"
         style="font-style:normal;font-variant:normal;font-weight:normal;font-stretch:normal;font-family:'Futura LT Medium';-inkscape-font-specification:'Futura LT Medium, ';letter-spacing:2px;fill:#ffffff"
         id="path1038"
         inkscape:connector-curvature="0" />
      <path
         d="m 204.00633,536.55595 h -3.76 v -30.16 h 3.76 z"
         style="font-style:normal;font-variant:normal;font-weight:normal;font-stretch:normal;font-family:'Futura LT Medium';-inkscape-font-specification:'Futura LT Medium, ';letter-spacing:2px;fill:#ffffff"
         id="path1040"
         inkscape:connector-curvature="0" />
      <path
         d="m 219.7832,536.55595 h -3.76 v -26.72 h -7.16 v -3.44 h 18.08 v 3.44 h -7.16 z"
         style="font-style:normal;font-variant:normal;font-weight:normal;font-stretch:normal;font-family:'Futura LT Medium';-inkscape-font-specification:'Futura LT Medium, ';letter-spacing:2px;fill:#ffffff"
         id="path1042"
         inkscape:connector-curvature="0" />
      <path
         d="m 235.10633,506.39595 v 17.8 q 0,1.84 0.32,3.56 0.32,1.72 1.12,3.04 0.84,1.32 2.24,2.12 1.44,0.76 3.6,0.76 2.16,0 3.56,-0.76 1.44,-0.8 2.24,-2.12 0.84,-1.32 1.16,-3.04 0.32,-1.72 0.32,-3.56 v -17.8 h 3.76 v 19.08 q 0,2.48 -0.76,4.64 -0.76,2.12 -2.2,3.72 -1.4,1.56 -3.44,2.48 -2.04,0.88 -4.64,0.88 -2.6,0 -4.64,-0.88 -2.04,-0.92 -3.48,-2.48 -1.4,-1.6 -2.16,-3.72 -0.76,-2.16 -0.76,-4.64 v -19.08 z"
         style="font-style:normal;font-variant:normal;font-weight:normal;font-stretch:normal;font-family:'Futura LT Medium';-inkscape-font-specification:'Futura LT Medium, ';letter-spacing:2px;fill:#ffffff"
         id="path1044"
         inkscape:connector-curvature="0" />
      <path
         d="m 268.7832,536.55595 h -3.76 v -26.72 h -7.16 v -3.44 h 18.08 v 3.44 h -7.16 z"
         style="font-style:normal;font-variant:normal;font-weight:normal;font-stretch:normal;font-family:'Futura LT Medium';-inkscape-font-specification:'Futura LT Medium, ';letter-spacing:2px;fill:#ffffff"
         id="path1046"
         inkscape:connector-curvature="0" />
      <path
         d="m 280.86633,506.39595 h 16.2 v 3.44 h -12.44 v 8.44 h 12.08 v 3.44 h -12.08 v 11.4 h 12.44 v 3.44 h -16.2 z"
         style="font-style:normal;font-variant:normal;font-weight:normal;font-stretch:normal;font-family:'Futura LT Medium';-inkscape-font-specification:'Futura LT Medium, ';letter-spacing:2px;fill:#ffffff"
         id="path1048"
         inkscape:connector-curvature="0" />
      <path
         d="m 321.0082,509.83595 v 8.48 h 10.48 v 3.44 h -10.48 v 14.8 h -3.76 v -30.16 h 14.6 v 3.44 z"
         style="font-style:normal;font-variant:normal;font-weight:normal;font-stretch:normal;font-family:'Futura LT Medium';-inkscape-font-specification:'Futura LT Medium, ';letter-spacing:2px;fill:#ffffff"
         id="path1050"
         inkscape:connector-curvature="0" />
      <path
         d="m 351.95258,533.67595 q 2.44,0 4.6,-0.92 2.2,-0.96 3.84,-2.6 1.68,-1.64 2.64,-3.84 0.96,-2.24 0.96,-4.84 0,-2.48 -0.88,-4.68 -0.88,-2.24 -2.48,-3.88 -1.6,-1.68 -3.84,-2.64 -2.2,-1 -4.84,-1 -2.64,0 -4.88,1 -2.2,0.96 -3.8,2.64 -1.6,1.64 -2.48,3.88 -0.88,2.2 -0.88,4.68 0,2.6 0.96,4.84 0.96,2.2 2.6,3.84 1.68,1.64 3.84,2.6 2.2,0.92 4.64,0.92 z m 0,-27.92 q 3.24,0 6.12,1.24 2.88,1.24 5,3.4 2.16,2.12 3.4,5 1.28,2.84 1.28,6.08 0,3.36 -1.24,6.24 -1.24,2.88 -3.4,5 -2.12,2.08 -5,3.28 -2.88,1.2 -6.16,1.2 -3.28,0 -6.16,-1.2 -2.88,-1.2 -5.04,-3.28 -2.12,-2.12 -3.36,-5 -1.24,-2.88 -1.24,-6.24 0,-3.24 1.24,-6.08 1.28,-2.88 3.4,-5 2.16,-2.16 5.04,-3.4 2.88,-1.24 6.12,-1.24 z"
         style="font-style:normal;font-variant:normal;font-weight:normal;font-stretch:normal;font-family:'Futura LT Medium';-inkscape-font-specification:'Futura LT Medium, ';letter-spacing:2px;fill:#ffffff"
         id="path1052"
         inkscape:connector-curvature="0" />
      <path
         d="m 377.15758,520.67595 h 1.2 q 1.44,0 2.84,-0.16 1.44,-0.2 2.56,-0.8 1.16,-0.6 1.88,-1.68 0.72,-1.08 0.72,-2.88 0,-1.76 -0.76,-2.8 -0.76,-1.08 -1.96,-1.64 -1.16,-0.6 -2.64,-0.76 -1.44,-0.2 -2.84,-0.2 h -1 z m 15,15.88 h -4.56 l -8.88,-12.76 h -1.56 v 12.76 h -3.76 v -30.16 h 4.56 q 2,0 4.08,0.2 2.08,0.2 3.88,1.2 1.92,1.12 2.92,3.08 1.04,1.96 1.04,4.12 0,1.64 -0.52,3.08 -0.52,1.44 -1.48,2.56 -0.92,1.12 -2.28,1.88 -1.32,0.72 -2.96,0.92 z"
         style="font-style:normal;font-variant:normal;font-weight:normal;font-stretch:normal;font-family:'Futura LT Medium';-inkscape-font-specification:'Futura LT Medium, ';letter-spacing:2px;fill:#ffffff"
         id="path1054"
         inkscape:connector-curvature="0" />
      <path
         d="m 133.9357,562.88288 q -1.64,-1.44 -3.72,-2.2 -2.08,-0.76 -4.24,-0.76 -2.52,0 -4.72,1 -2.16,0.96 -3.76,2.64 -1.6,1.68 -2.52,3.92 -0.92,2.24 -0.92,4.76 0,2.48 0.88,4.72 0.92,2.2 2.52,3.88 1.6,1.68 3.76,2.68 2.16,0.96 4.68,0.96 2.24,0 4.28,-0.8 2.08,-0.8 3.76,-2.32 v 4.44 q -1.76,1.04 -3.84,1.56 -2.08,0.56 -4.08,0.56 -3.24,0 -6.12,-1.2 -2.84,-1.2 -5,-3.28 -2.12,-2.12 -3.36,-4.96 -1.24,-2.84 -1.24,-6.12 0,-3.36 1.24,-6.24 1.28,-2.92 3.44,-5.04 2.2,-2.16 5.12,-3.36 2.92,-1.24 6.24,-1.24 2,0 3.92,0.52 1.96,0.48 3.68,1.52 z"
         style="font-style:normal;font-variant:normal;font-weight:normal;font-stretch:normal;font-family:'Futura LT Medium';-inkscape-font-specification:'Futura LT Medium, ';letter-spacing:2px;fill:#ffffff"
         id="path1056"
         inkscape:connector-curvature="0" />
      <path
         d="m 151.58195,564.08288 -5.36,12.2 h 10.72 z m -6.92,15.64 -3.44,7.56 h -4.04 l 14.4,-31.44 14.4,31.44 h -4.04 l -3.44,-7.56 z"
         style="font-style:normal;font-variant:normal;font-weight:normal;font-stretch:normal;font-family:'Futura LT Medium';-inkscape-font-specification:'Futura LT Medium, ';letter-spacing:2px;fill:#ffffff"
         id="path1058"
         inkscape:connector-curvature="0" />
      <path
         d="m 170.14695,555.68288 22.64,23.72 v -22.28 h 3.76 v 31.4 l -22.64,-23.72 v 22.48 h -3.76 z"
         style="font-style:normal;font-variant:normal;font-weight:normal;font-stretch:normal;font-family:'Futura LT Medium';-inkscape-font-specification:'Futura LT Medium, ';letter-spacing:2px;fill:#ffffff"
         id="path1060"
         inkscape:connector-curvature="0" />
      <path
         d="m 225.8732,562.88288 q -1.64,-1.44 -3.72,-2.2 -2.08,-0.76 -4.24,-0.76 -2.52,0 -4.72,1 -2.16,0.96 -3.76,2.64 -1.6,1.68 -2.52,3.92 -0.92,2.24 -0.92,4.76 0,2.48 0.88,4.72 0.92,2.2 2.52,3.88 1.6,1.68 3.76,2.68 2.16,0.96 4.68,0.96 2.24,0 4.28,-0.8 2.08,-0.8 3.76,-2.32 v 4.44 q -1.76,1.04 -3.84,1.56 -2.08,0.56 -4.08,0.56 -3.24,0 -6.12,-1.2 -2.84,-1.2 -5,-3.28 -2.12,-2.12 -3.36,-4.96 -1.24,-2.84 -1.24,-6.12 0,-3.36 1.24,-6.24 1.28,-2.92 3.44,-5.04 2.2,-2.16 5.12,-3.36 2.92,-1.24 6.24,-1.24 2,0 3.92,0.52 1.96,0.48 3.68,1.52 z"
         style="font-style:normal;font-variant:normal;font-weight:normal;font-stretch:normal;font-family:'Futura LT Medium';-inkscape-font-specification:'Futura LT Medium, ';letter-spacing:2px;fill:#ffffff"
         id="path1062"
         inkscape:connector-curvature="0" />
      <path
         d="m 232.31945,557.12288 h 16.2 v 3.44 h -12.44 v 8.44 h 12.08 v 3.44 h -12.08 v 11.4 h 12.44 v 3.44 h -16.2 z"
         style="font-style:normal;font-variant:normal;font-weight:normal;font-stretch:normal;font-family:'Futura LT Medium';-inkscape-font-specification:'Futura LT Medium, ';letter-spacing:2px;fill:#ffffff"
         id="path1064"
         inkscape:connector-curvature="0" />
      <path
         d="m 258.93883,571.40288 h 1.2 q 1.44,0 2.84,-0.16 1.44,-0.2 2.56,-0.8 1.16,-0.6 1.88,-1.68 0.72,-1.08 0.72,-2.88 0,-1.76 -0.76,-2.8 -0.76,-1.08 -1.96,-1.64 -1.16,-0.6 -2.64,-0.76 -1.44,-0.2 -2.84,-0.2 h -1 z m 15,15.88 h -4.56 l -8.88,-12.76 h -1.56 v 12.76 h -3.76 v -30.16 h 4.56 q 2,0 4.08,0.2 2.08,0.2 3.88,1.2 1.92,1.12 2.92,3.08 1.04,1.96 1.04,4.12 0,1.64 -0.52,3.08 -0.52,1.44 -1.48,2.56 -0.92,1.12 -2.28,1.88 -1.32,0.72 -2.96,0.92 z"
         style="font-style:normal;font-variant:normal;font-weight:normal;font-stretch:normal;font-family:'Futura LT Medium';-inkscape-font-specification:'Futura LT Medium, ';letter-spacing:2px;fill:#ffffff"
         id="path1066"
         inkscape:connector-curvature="0" />
      <path
         d="m 319.94008,572.08288 v 1.2 q 0,3.12 -1.04,5.8 -1.04,2.64 -2.96,4.64 -1.88,1.96 -4.52,3.08 -2.6,1.12 -5.76,1.12 -3.16,0 -5.96,-1.24 -2.76,-1.28 -4.84,-3.44 -2.04,-2.16 -3.24,-5 -1.2,-2.84 -1.2,-5.96 0,-3.24 1.2,-6.12 1.24,-2.88 3.36,-5.04 2.12,-2.16 4.96,-3.4 2.88,-1.24 6.12,-1.24 3.52,0 6.76,1.52 3.28,1.52 5.52,4.32 l -2.64,2.52 q -1.64,-2.2 -4.2,-3.56 -2.52,-1.36 -5.28,-1.36 -2.52,0 -4.72,0.96 -2.2,0.96 -3.84,2.64 -1.6,1.64 -2.56,3.88 -0.92,2.24 -0.92,4.76 0,2.36 0.92,4.6 0.92,2.2 2.48,3.92 1.6,1.72 3.72,2.76 2.16,1.04 4.6,1.04 1.76,0 3.48,-0.68 1.76,-0.72 3.16,-1.92 1.4,-1.24 2.28,-2.88 0.88,-1.64 0.96,-3.48 h -7.8 v -3.44 z"
         style="font-style:normal;font-variant:normal;font-weight:normal;font-stretch:normal;font-family:'Futura LT Medium';-inkscape-font-specification:'Futura LT Medium, ';letter-spacing:2px;fill:#ffffff"
         id="path1068"
         inkscape:connector-curvature="0" />
      <path
         d="m 325.63195,557.12288 h 16.2 v 3.44 h -12.44 v 8.44 h 12.08 v 3.44 h -12.08 v 11.4 h 12.44 v 3.44 h -16.2 z"
         style="font-style:normal;font-variant:normal;font-weight:normal;font-stretch:normal;font-family:'Futura LT Medium';-inkscape-font-specification:'Futura LT Medium, ';letter-spacing:2px;fill:#ffffff"
         id="path1070"
         inkscape:connector-curvature="0" />
      <path
         d="m 348.13133,555.68288 22.64,23.72 v -22.28 h 3.76 v 31.4 l -22.64,-23.72 v 22.48 h -3.76 z"
         style="font-style:normal;font-variant:normal;font-weight:normal;font-stretch:normal;font-family:'Futura LT Medium';-inkscape-font-specification:'Futura LT Medium, ';letter-spacing:2px;fill:#ffffff"
         id="path1072"
         inkscape:connector-curvature="0" />
      <path
         d="m 381.89758,557.12288 h 16.2 v 3.44 h -12.44 v 8.44 h 12.08 v 3.44 h -12.08 v 11.4 h 12.44 v 3.44 h -16.2 z"
         style="font-style:normal;font-variant:normal;font-weight:normal;font-stretch:normal;font-family:'Futura LT Medium';-inkscape-font-specification:'Futura LT Medium, ';letter-spacing:2px;fill:#ffffff"
         id="path1074"
         inkscape:connector-curvature="0" />
      <path
         d="m 412.87695,587.28288 h -3.76 v -26.72 h -7.16 v -3.44 h 18.08 v 3.44 h -7.16 z"
         style="font-style:normal;font-variant:normal;font-weight:normal;font-stretch:normal;font-family:'Futura LT Medium';-inkscape-font-specification:'Futura LT Medium, ';letter-spacing:2px;fill:#ffffff"
         id="path1076"
         inkscape:connector-curvature="0" />
      <path
         d="m 428.60008,587.28288 h -3.76 v -30.16 h 3.76 z"
         style="font-style:normal;font-variant:normal;font-weight:normal;font-stretch:normal;font-family:'Futura LT Medium';-inkscape-font-specification:'Futura LT Medium, ';letter-spacing:2px;fill:#ffffff"
         id="path1078"
         inkscape:connector-curvature="0" />
      <path
         d="m 458.21695,562.88288 q -1.64,-1.44 -3.72,-2.2 -2.08,-0.76 -4.24,-0.76 -2.52,0 -4.72,1 -2.16,0.96 -3.76,2.64 -1.6,1.68 -2.52,3.92 -0.92,2.24 -0.92,4.76 0,2.48 0.88,4.72 0.92,2.2 2.52,3.88 1.6,1.68 3.76,2.68 2.16,0.96 4.68,0.96 2.24,0 4.28,-0.8 2.08,-0.8 3.76,-2.32 v 4.44 q -1.76,1.04 -3.84,1.56 -2.08,0.56 -4.08,0.56 -3.24,0 -6.12,-1.2 -2.84,-1.2 -5,-3.28 -2.12,-2.12 -3.36,-4.96 -1.24,-2.84 -1.24,-6.12 0,-3.36 1.24,-6.24 1.28,-2.92 3.44,-5.04 2.2,-2.16 5.12,-3.36 2.92,-1.24 6.24,-1.24 2,0 3.92,0.52 1.96,0.48 3.68,1.52 z"
         style="font-style:normal;font-variant:normal;font-weight:normal;font-stretch:normal;font-family:'Futura LT Medium';-inkscape-font-specification:'Futura LT Medium, ';letter-spacing:2px;fill:#ffffff"
         id="path1080"
         inkscape:connector-curvature="0" />
      <path
         d="m 478.0632,562.84288 q -0.84,-1.4 -2,-2.12 -1.12,-0.72 -2.84,-0.72 -0.92,0 -1.84,0.32 -0.88,0.28 -1.6,0.84 -0.72,0.56 -1.16,1.36 -0.44,0.76 -0.44,1.76 0,0.88 0.4,1.56 0.4,0.68 1,1.2 0.6,0.52 1.32,0.92 0.76,0.36 1.48,0.64 l 2.16,0.84 q 1.6,0.64 2.96,1.44 1.4,0.76 2.4,1.84 1,1.08 1.56,2.52 0.56,1.4 0.56,3.28 0,2.04 -0.76,3.8 -0.72,1.72 -2.04,2.96 -1.28,1.24 -3.04,1.96 -1.76,0.68 -3.8,0.68 -1.84,0 -3.44,-0.64 -1.6,-0.64 -2.84,-1.76 -1.2,-1.12 -2,-2.68 -0.8,-1.56 -1.04,-3.36 l 3.8,-0.8 q 0,1.24 0.44,2.32 0.44,1.04 1.24,1.8 0.8,0.76 1.88,1.2 1.08,0.4 2.28,0.4 1.2,0 2.2,-0.48 1.04,-0.48 1.76,-1.28 0.76,-0.8 1.16,-1.84 0.44,-1.08 0.44,-2.28 0,-1.2 -0.44,-2.08 -0.44,-0.92 -1.2,-1.56 -0.72,-0.68 -1.68,-1.16 -0.92,-0.52 -1.88,-0.92 l -2.08,-0.88 q -1.28,-0.56 -2.48,-1.2 -1.2,-0.68 -2.12,-1.56 -0.88,-0.92 -1.44,-2.12 -0.52,-1.2 -0.52,-2.76 0,-1.84 0.72,-3.28 0.76,-1.44 2,-2.44 1.24,-1 2.84,-1.52 1.6,-0.56 3.32,-0.56 2.52,0 4.52,1.2 2,1.16 3.24,3.36 z"
         style="font-style:normal;font-variant:normal;font-weight:normal;font-stretch:normal;font-family:'Futura LT Medium';-inkscape-font-specification:'Futura LT Medium, ';letter-spacing:2px;fill:#ffffff"
         id="path1082"
         inkscape:connector-curvature="0" />
    </g>
  </g>
</svg>
