<?xml version="1.0" encoding="UTF-8" standalone="no"?>
<!-- Created with Inkscape (http://www.inkscape.org/) -->

<svg
   xmlns:dc="http://purl.org/dc/elements/1.1/"
   xmlns:cc="http://creativecommons.org/ns#"
   xmlns:rdf="http://www.w3.org/1999/02/22-rdf-syntax-ns#"
   xmlns:svg="http://www.w3.org/2000/svg"
   xmlns="http://www.w3.org/2000/svg"
   xmlns:sodipodi="http://sodipodi.sourceforge.net/DTD/sodipodi-0.dtd"
   xmlns:inkscape="http://www.inkscape.org/namespaces/inkscape"
   width="98.982475mm"
   height="20mm"
   viewBox="0 0 98.982475 20"
   version="1.1"
   id="svg8"
   inkscape:version="0.92.3 (2405546, 2018-03-11)"
   sodipodi:docname="rdf_path.svg">
  <defs
     id="defs2" />
  <sodipodi:namedview
     id="base"
     pagecolor="#ffffff"
     bordercolor="#666666"
     borderopacity="1.0"
     inkscape:pageopacity="0.0"
     inkscape:pageshadow="2"
     inkscape:zoom="1.4"
     inkscape:cx="327.38149"
     inkscape:cy="-18.235183"
     inkscape:document-units="mm"
     inkscape:current-layer="layer1"
     showgrid="false"
     showguides="true"
     fit-margin-top="1"
     fit-margin-left="1"
     fit-margin-right="1"
     fit-margin-bottom="1"
     inkscape:window-width="1920"
     inkscape:window-height="1013"
     inkscape:window-x="-9"
     inkscape:window-y="-9"
     inkscape:window-maximized="1" />
  <metadata
     id="metadata5">
    <rdf:RDF>
      <cc:Work
         rdf:about="">
        <dc:format>image/svg+xml</dc:format>
        <dc:type
           rdf:resource="http://purl.org/dc/dcmitype/StillImage" />
        <dc:title></dc:title>
      </cc:Work>
    </rdf:RDF>
  </metadata>
  <g
     inkscape:label="Layer 1"
     inkscape:groupmode="layer"
     id="layer1"
     transform="translate(-44.924107,-50.647316)">
    <g
       aria-label="dalla-favera lab"
       transform="matrix(0.26458333,0,0,0.26458333,39.662098,-10.23115)"
       style="font-style:normal;font-variant:normal;font-weight:normal;font-stretch:normal;font-size:40px;line-height:125%;font-family:'Libre Baskerville';-inkscape-font-specification:'Libre Baskerville';letter-spacing:0px;word-spacing:0px;fill:#000000;fill-opacity:1;stroke:none;stroke-width:1px;stroke-linecap:butt;stroke-linejoin:miter;stroke-opacity:1"
       id="flowRoot815">
      <path
         d="m 122.97664,280.12712 h -0.08 q -1.04,1.76 -2.8,2.56 -1.76,0.8 -3.8,0.8 -2.24,0 -4,-0.76 -1.72,-0.8 -2.96,-2.16 -1.24,-1.36 -1.88,-3.2 -0.64,-1.84 -0.64,-3.96 0,-2.12 0.68,-3.96 0.68,-1.84 1.88,-3.2 1.24,-1.36 2.96,-2.12 1.72,-0.8 3.76,-0.8 1.36,0 2.4,0.28 1.04,0.28 1.84,0.72 0.8,0.44 1.36,0.96 0.56,0.48 0.92,0.96 h 0.12 v -13.48 h 4.8 v 30.24 h -4.56 z m -11.36,-6.72 q 0,1.12 0.36,2.16 0.4,1.04 1.12,1.84 0.76,0.8 1.8,1.28 1.04,0.48 2.36,0.48 1.32,0 2.36,-0.48 1.04,-0.48 1.76,-1.28 0.76,-0.8 1.12,-1.84 0.4,-1.04 0.4,-2.16 0,-1.12 -0.4,-2.16 -0.36,-1.04 -1.12,-1.84 -0.72,-0.8 -1.76,-1.28 -1.04,-0.48 -2.36,-0.48 -1.32,0 -2.36,0.48 -1.04,0.48 -1.8,1.28 -0.72,0.8 -1.12,1.84 -0.36,1.04 -0.36,2.16 z"
         style="font-style:normal;font-variant:normal;font-weight:900;font-stretch:normal;font-family:Avenir;-inkscape-font-specification:'Avenir Heavy'"
         id="path924" />
      <path
         d="m 145.01102,280.36712 h -0.12 q -1.04,1.64 -2.64,2.4 -1.6,0.72 -3.52,0.72 -1.32,0 -2.6,-0.36 -1.24,-0.36 -2.24,-1.08 -0.96,-0.72 -1.56,-1.8 -0.6,-1.08 -0.6,-2.52 0,-1.56 0.56,-2.64 0.56,-1.12 1.48,-1.84 0.96,-0.76 2.2,-1.2 1.24,-0.44 2.56,-0.64 1.36,-0.24 2.72,-0.28 1.36,-0.08 2.56,-0.08 h 1.2 v -0.52 q 0,-1.8 -1.24,-2.68 -1.24,-0.92 -3.16,-0.92 -1.52,0 -2.84,0.56 -1.32,0.52 -2.28,1.44 l -2.52,-2.52 q 1.6,-1.64 3.72,-2.36 2.16,-0.72 4.44,-0.72 2.04,0 3.44,0.48 1.4,0.44 2.32,1.16 0.92,0.72 1.4,1.68 0.52,0.92 0.72,1.88 0.24,0.96 0.28,1.88 0.04,0.88 0.04,1.56 v 11.04 h -4.32 z m -0.28,-5.96 h -1 q -1,0 -2.24,0.08 -1.24,0.08 -2.36,0.4 -1.08,0.28 -1.84,0.88 -0.76,0.56 -0.76,1.6 0,0.68 0.28,1.16 0.32,0.44 0.8,0.76 0.48,0.32 1.08,0.48 0.6,0.12 1.2,0.12 2.48,0 3.64,-1.16 1.2,-1.2 1.2,-3.24 z"
         style="font-style:normal;font-variant:normal;font-weight:900;font-stretch:normal;font-family:Avenir;-inkscape-font-specification:'Avenir Heavy'"
         id="path926" />
      <path
         d="m 154.57539,252.76712 h 4.8 v 30.24 h -4.8 z"
         style="font-style:normal;font-variant:normal;font-weight:900;font-stretch:normal;font-family:Avenir;-inkscape-font-specification:'Avenir Heavy'"
         id="path928" />
      <path
         d="m 165.04414,252.76712 h 4.8 v 30.24 h -4.8 z"
         style="font-style:normal;font-variant:normal;font-weight:900;font-stretch:normal;font-family:Avenir;-inkscape-font-specification:'Avenir Heavy'"
         id="path930" />
      <path
         d="m 187.35477,280.36712 h -0.12 q -1.04,1.64 -2.64,2.4 -1.6,0.72 -3.52,0.72 -1.32,0 -2.6,-0.36 -1.24,-0.36 -2.24,-1.08 -0.96,-0.72 -1.56,-1.8 -0.6,-1.08 -0.6,-2.52 0,-1.56 0.56,-2.64 0.56,-1.12 1.48,-1.84 0.96,-0.76 2.2,-1.2 1.24,-0.44 2.56,-0.64 1.36,-0.24 2.72,-0.28 1.36,-0.08 2.56,-0.08 h 1.2 v -0.52 q 0,-1.8 -1.24,-2.68 -1.24,-0.92 -3.16,-0.92 -1.52,0 -2.84,0.56 -1.32,0.52 -2.28,1.44 l -2.52,-2.52 q 1.6,-1.64 3.72,-2.36 2.16,-0.72 4.44,-0.72 2.04,0 3.44,0.48 1.4,0.44 2.32,1.16 0.92,0.72 1.4,1.68 0.52,0.92 0.72,1.88 0.24,0.96 0.28,1.88 0.04,0.88 0.04,1.56 v 11.04 h -4.32 z m -0.28,-5.96 h -1 q -1,0 -2.24,0.08 -1.24,0.08 -2.36,0.4 -1.08,0.28 -1.84,0.88 -0.76,0.56 -0.76,1.6 0,0.68 0.28,1.16 0.32,0.44 0.8,0.76 0.48,0.32 1.08,0.48 0.6,0.12 1.2,0.12 2.48,0 3.64,-1.16 1.2,-1.2 1.2,-3.24 z"
         style="font-style:normal;font-variant:normal;font-weight:900;font-stretch:normal;font-family:Avenir;-inkscape-font-specification:'Avenir Heavy'"
         id="path932" />
      <path
         d="m 205.35914,275.20712 h -9.88 v -4.08 h 9.88 z"
         style="font-style:normal;font-variant:normal;font-weight:900;font-stretch:normal;font-family:Avenir;-inkscape-font-specification:'Avenir Heavy'"
         id="path934" />
      <path
         d="m 211.13727,267.88712 h -3.96 v -4.08 h 3.96 v -2.72 q 0,-2 0.28,-3.6 0.28,-1.64 1.04,-2.8 0.8,-1.16 2.2,-1.76 1.4,-0.64 3.64,-0.64 1.64,0 3.04,0.28 l -0.32,4.08 q -0.52,-0.12 -1,-0.2 -0.48,-0.08 -1,-0.08 -1,0 -1.6,0.32 -0.6,0.32 -0.96,0.88 -0.32,0.52 -0.44,1.24 -0.08,0.72 -0.08,1.52 v 3.48 h 4.44 v 4.08 h -4.44 v 15.12 h -4.8 z"
         style="font-style:normal;font-variant:normal;font-weight:900;font-stretch:normal;font-family:Avenir;-inkscape-font-specification:'Avenir Heavy'"
         id="path936" />
      <path
         d="m 235.47977,280.36712 h -0.12 q -1.04,1.64 -2.64,2.4 -1.6,0.72 -3.52,0.72 -1.32,0 -2.6,-0.36 -1.24,-0.36 -2.24,-1.08 -0.96,-0.72 -1.56,-1.8 -0.6,-1.08 -0.6,-2.52 0,-1.56 0.56,-2.64 0.56,-1.12 1.48,-1.84 0.96,-0.76 2.2,-1.2 1.24,-0.44 2.56,-0.64 1.36,-0.24 2.72,-0.28 1.36,-0.08 2.56,-0.08 h 1.2 v -0.52 q 0,-1.8 -1.24,-2.68 -1.24,-0.92 -3.16,-0.92 -1.52,0 -2.84,0.56 -1.32,0.52 -2.28,1.44 l -2.52,-2.52 q 1.6,-1.64 3.72,-2.36 2.16,-0.72 4.44,-0.72 2.04,0 3.44,0.48 1.4,0.44 2.32,1.16 0.92,0.72 1.4,1.68 0.52,0.92 0.72,1.88 0.24,0.96 0.28,1.88 0.04,0.88 0.04,1.56 v 11.04 h -4.32 z m -0.28,-5.96 h -1 q -1,0 -2.24,0.08 -1.24,0.08 -2.36,0.4 -1.08,0.28 -1.84,0.88 -0.76,0.56 -0.76,1.6 0,0.68 0.28,1.16 0.32,0.44 0.8,0.76 0.48,0.32 1.08,0.48 0.6,0.12 1.2,0.12 2.48,0 3.64,-1.16 1.2,-1.2 1.2,-3.24 z"
         style="font-style:normal;font-variant:normal;font-weight:900;font-stretch:normal;font-family:Avenir;-inkscape-font-specification:'Avenir Heavy'"
         id="path938" />
      <path
         d="m 242.36414,263.80712 h 5.24 l 5.12,13.44 h 0.08 l 5.16,-13.44 h 4.92 l -7.56,19.2 h -5.12 z"
         style="font-style:normal;font-variant:normal;font-weight:900;font-stretch:normal;font-family:Avenir;-inkscape-font-specification:'Avenir Heavy'"
         id="path940" />
      <path
         d="m 269.58539,275.08712 q 0.24,2.16 1.68,3.36 1.44,1.2 3.48,1.2 1.8,0 3,-0.72 1.24,-0.76 2.16,-1.88 l 3.44,2.6 q -1.68,2.08 -3.76,2.96 -2.08,0.88 -4.36,0.88 -2.16,0 -4.08,-0.72 -1.92,-0.72 -3.32,-2.04 -1.4,-1.32 -2.24,-3.16 -0.8,-1.88 -0.8,-4.16 0,-2.28 0.8,-4.12 0.84,-1.88 2.24,-3.2 1.4,-1.32 3.32,-2.04 1.92,-0.72 4.08,-0.72 2,0 3.64,0.72 1.68,0.68 2.84,2 1.2,1.32 1.84,3.28 0.68,1.92 0.68,4.44 v 1.32 z m 9.84,-3.6 q -0.04,-2.12 -1.32,-3.32 -1.28,-1.24 -3.56,-1.24 -2.16,0 -3.44,1.24 -1.24,1.24 -1.52,3.32 z"
         style="font-style:normal;font-variant:normal;font-weight:900;font-stretch:normal;font-family:Avenir;-inkscape-font-specification:'Avenir Heavy'"
         id="path942" />
      <path
         d="m 288.71414,263.80712 h 4.8 v 3.04 h 0.08 q 0.8,-1.68 2.28,-2.6 1.48,-0.92 3.4,-0.92 0.44,0 0.84,0.08 0.44,0.08 0.88,0.2 v 4.64 q -0.6,-0.16 -1.2,-0.24 -0.56,-0.12 -1.12,-0.12 -1.68,0 -2.72,0.64 -1,0.6 -1.56,1.4 -0.52,0.8 -0.72,1.6 -0.16,0.8 -0.16,1.2 v 10.28 h -4.8 z"
         style="font-style:normal;font-variant:normal;font-weight:900;font-stretch:normal;font-family:Avenir;-inkscape-font-specification:'Avenir Heavy'"
         id="path944" />
      <path
         d="m 316.26102,280.36712 h -0.12 q -1.04,1.64 -2.64,2.4 -1.6,0.72 -3.52,0.72 -1.32,0 -2.6,-0.36 -1.24,-0.36 -2.24,-1.08 -0.96,-0.72 -1.56,-1.8 -0.6,-1.08 -0.6,-2.52 0,-1.56 0.56,-2.64 0.56,-1.12 1.48,-1.84 0.96,-0.76 2.2,-1.2 1.24,-0.44 2.56,-0.64 1.36,-0.24 2.72,-0.28 1.36,-0.08 2.56,-0.08 h 1.2 v -0.52 q 0,-1.8 -1.24,-2.68 -1.24,-0.92 -3.16,-0.92 -1.52,0 -2.84,0.56 -1.32,0.52 -2.28,1.44 l -2.52,-2.52 q 1.6,-1.64 3.72,-2.36 2.16,-0.72 4.44,-0.72 2.04,0 3.44,0.48 1.4,0.44 2.32,1.16 0.92,0.72 1.4,1.68 0.52,0.92 0.72,1.88 0.24,0.96 0.28,1.88 0.04,0.88 0.04,1.56 v 11.04 h -4.32 z m -0.28,-5.96 h -1 q -1,0 -2.24,0.08 -1.24,0.08 -2.36,0.4 -1.08,0.28 -1.84,0.88 -0.76,0.56 -0.76,1.6 0,0.68 0.28,1.16 0.32,0.44 0.8,0.76 0.48,0.32 1.08,0.48 0.6,0.12 1.2,0.12 2.48,0 3.64,-1.16 1.2,-1.2 1.2,-3.24 z"
         style="font-style:normal;font-variant:normal;font-weight:900;font-stretch:normal;font-family:Avenir;-inkscape-font-specification:'Avenir Heavy'"
         id="path946" />
      <path
         d="m 337.70039,252.76712 h 4.8 v 30.24 h -4.8 z"
         style="font-style:normal;font-variant:normal;font-weight:900;font-stretch:normal;font-family:Avenir;-inkscape-font-specification:'Avenir Heavy'"
         id="path948" />
      <path
         d="m 360.01102,280.36712 h -0.12 q -1.04,1.64 -2.64,2.4 -1.6,0.72 -3.52,0.72 -1.32,0 -2.6,-0.36 -1.24,-0.36 -2.24,-1.08 -0.96,-0.72 -1.56,-1.8 -0.6,-1.08 -0.6,-2.52 0,-1.56 0.56,-2.64 0.56,-1.12 1.48,-1.84 0.96,-0.76 2.2,-1.2 1.24,-0.44 2.56,-0.64 1.36,-0.24 2.72,-0.28 1.36,-0.08 2.56,-0.08 h 1.2 v -0.52 q 0,-1.8 -1.24,-2.68 -1.24,-0.92 -3.16,-0.92 -1.52,0 -2.84,0.56 -1.32,0.52 -2.28,1.44 l -2.52,-2.52 q 1.6,-1.64 3.72,-2.36 2.16,-0.72 4.44,-0.72 2.04,0 3.44,0.48 1.4,0.44 2.32,1.16 0.92,0.72 1.4,1.68 0.52,0.92 0.72,1.88 0.24,0.96 0.28,1.88 0.04,0.88 0.04,1.56 v 11.04 h -4.32 z m -0.28,-5.96 h -1 q -1,0 -2.24,0.08 -1.24,0.08 -2.36,0.4 -1.08,0.28 -1.84,0.88 -0.76,0.56 -0.76,1.6 0,0.68 0.28,1.16 0.32,0.44 0.8,0.76 0.48,0.32 1.08,0.48 0.6,0.12 1.2,0.12 2.48,0 3.64,-1.16 1.2,-1.2 1.2,-3.24 z"
         style="font-style:normal;font-variant:normal;font-weight:900;font-stretch:normal;font-family:Avenir;-inkscape-font-specification:'Avenir Heavy'"
         id="path950" />
      <path
         d="m 369.49539,252.76712 h 4.8 v 13.48 h 0.12 q 0.36,-0.48 0.92,-0.96 0.56,-0.52 1.36,-0.96 0.8,-0.44 1.84,-0.72 1.04,-0.28 2.4,-0.28 2.04,0 3.76,0.8 1.72,0.76 2.92,2.12 1.24,1.36 1.92,3.2 0.68,1.84 0.68,3.96 0,2.12 -0.64,3.96 -0.64,1.84 -1.88,3.2 -1.24,1.36 -3,2.16 -1.76,0.76 -3.96,0.76 -2.04,0 -3.8,-0.8 -1.76,-0.8 -2.8,-2.56 h -0.08 v 2.88 h -4.56 z m 15.92,20.64 q 0,-1.12 -0.4,-2.16 -0.36,-1.04 -1.12,-1.84 -0.72,-0.8 -1.76,-1.28 -1.04,-0.48 -2.36,-0.48 -1.32,0 -2.36,0.48 -1.04,0.48 -1.8,1.28 -0.72,0.8 -1.12,1.84 -0.36,1.04 -0.36,2.16 0,1.12 0.36,2.16 0.4,1.04 1.12,1.84 0.76,0.8 1.8,1.28 1.04,0.48 2.36,0.48 1.32,0 2.36,-0.48 1.04,-0.48 1.76,-1.28 0.76,-0.8 1.12,-1.84 0.4,-1.04 0.4,-2.16 z"
         style="font-style:normal;font-variant:normal;font-weight:900;font-stretch:normal;font-family:Avenir;-inkscape-font-specification:'Avenir Heavy'"
         id="path952" />
    </g>
    <g
       id="g856">
      <path
         style="opacity:1;fill:#00aa88;fill-opacity:1;stroke:none;stroke-width:0.176;stroke-linecap:round;stroke-linejoin:round;stroke-miterlimit:4;stroke-dasharray:none;stroke-opacity:0.00392157;paint-order:stroke markers fill"
         d="m 63.924107,60.647316 a 9,9 0 0 1 -9,9 9,9 0 0 1 -9,-9 9,9 0 0 1 9,-9 9,9 0 0 1 9,9 z"
         id="path849" />
      <g
         aria-label="D"
         transform="matrix(0.26458333,0,0,0.26458333,23.005663,-10.48515)"
         style="font-style:normal;font-variant:normal;font-weight:normal;font-stretch:normal;font-size:40px;line-height:125%;font-family:'Libre Baskerville';-inkscape-font-specification:'Libre Baskerville';letter-spacing:0px;word-spacing:0px;fill:#ffffff;fill-opacity:1;stroke:none;stroke-width:1px;stroke-linecap:butt;stroke-linejoin:miter;stroke-opacity:1"
         id="flowRoot815-9">
        <path
           d="m 111.37664,280.36712 h 5.6 q 3.24,0 5.6,-0.96 2.4,-1 3.96,-2.6 1.6,-1.64 2.36,-3.68 0.76,-2.08 0.76,-4.28 0,-2.2 -0.76,-4.24 -0.76,-2.08 -2.36,-3.68 -1.56,-1.64 -3.96,-2.6 -2.36,-1 -5.6,-1 h -5.6 z m -2.88,-25.68 h 9.4 q 2.64,0 5.28,0.88 2.68,0.88 4.8,2.68 2.16,1.76 3.48,4.44 1.32,2.64 1.32,6.16 0,3.56 -1.32,6.2 -1.32,2.64 -3.48,4.44 -2.12,1.76 -4.8,2.64 -2.64,0.88 -5.28,0.88 h -9.4 z"
           style="font-style:normal;font-variant:normal;font-weight:normal;font-stretch:normal;font-family:Avenir;-inkscape-font-specification:Avenir;fill:#ffffff"
           id="path956" />
      </g>
    </g>
  </g>
</svg>
