<?xml version="1.0" encoding="UTF-8" standalone="no"?>
<svg
   xmlns:dc="http://purl.org/dc/elements/1.1/"
   xmlns:cc="http://creativecommons.org/ns#"
   xmlns:rdf="http://www.w3.org/1999/02/22-rdf-syntax-ns#"
   xmlns:svg="http://www.w3.org/2000/svg"
   xmlns="http://www.w3.org/2000/svg"
   xmlns:sodipodi="http://sodipodi.sourceforge.net/DTD/sodipodi-0.dtd"
   xmlns:inkscape="http://www.inkscape.org/namespaces/inkscape"
   id="svg8"
   version="1.1"
   viewBox="0 0 120.02479 24.663939"
   height="24.663939mm"
   width="120.0248mm"
   sodipodi:docname="rdf-logo.svg"
   inkscape:version="0.92.3 (2405546, 2018-03-11)">
  <sodipodi:namedview
     pagecolor="#ffffff"
     bordercolor="#666666"
     borderopacity="1"
     objecttolerance="10"
     gridtolerance="10"
     guidetolerance="10"
     inkscape:pageopacity="0"
     inkscape:pageshadow="2"
     inkscape:window-width="1920"
     inkscape:window-height="1013"
     id="namedview4599"
     showgrid="false"
     fit-margin-top="1"
     fit-margin-left="1"
     fit-margin-bottom="1"
     fit-margin-right="1"
     inkscape:zoom="10.252006"
     inkscape:cx="61.928319"
     inkscape:cy="23.160851"
     inkscape:window-x="-9"
     inkscape:window-y="-9"
     inkscape:window-maximized="1"
     inkscape:current-layer="svg8" />
  <defs
     id="defs2" />
  <metadata
     id="metadata5">
    <rdf:RDF>
      <cc:Work
         rdf:about="">
        <dc:format>image/svg+xml</dc:format>
        <dc:type
           rdf:resource="http://purl.org/dc/dcmitype/StillImage" />
        <dc:title />
      </cc:Work>
    </rdf:RDF>
  </metadata>
  <g
     aria-label="dalla-favera lab"
     transform="matrix(0.26458333,0,0,0.26458333,8.2820499,-58.004369)"
     style="font-style:normal;font-variant:normal;font-weight:normal;font-stretch:normal;font-size:40px;line-height:125%;font-family:'Libre Baskerville';-inkscape-font-specification:'Libre Baskerville';letter-spacing:0px;word-spacing:0px;fill:#ffffff;fill-opacity:1;stroke:none;stroke-width:1px;stroke-linecap:butt;stroke-linejoin:miter;stroke-opacity:1;opacity:1"
     id="flowRoot815">
    <g
       id="g5467"
       transform="matrix(1.2,0,0,1.2,-49.703203,-53.577423)"
       style="stroke-width:0.83333331px;fill:#ffffff">
      <path
         id="path830"
         style="font-style:normal;font-variant:normal;font-weight:900;font-stretch:normal;font-family:Avenir;-inkscape-font-specification:'Avenir Heavy';stroke-width:0.83333331px;fill:#ffffff"
         d="m 122.97664,280.12712 h -0.08 q -1.04,1.76 -2.8,2.56 -1.76,0.8 -3.8,0.8 -2.24,0 -4,-0.76 -1.72,-0.8 -2.96,-2.16 -1.24,-1.36 -1.88,-3.2 -0.64,-1.84 -0.64,-3.96 0,-2.12 0.68,-3.96 0.68,-1.84 1.88,-3.2 1.24,-1.36 2.96,-2.12 1.72,-0.8 3.76,-0.8 1.36,0 2.4,0.28 1.04,0.28 1.84,0.72 0.8,0.44 1.36,0.96 0.56,0.48 0.92,0.96 h 0.12 v -13.48 h 4.8 v 30.24 h -4.56 z m -11.36,-6.72 q 0,1.12 0.36,2.16 0.4,1.04 1.12,1.84 0.76,0.8 1.8,1.28 1.04,0.48 2.36,0.48 1.32,0 2.36,-0.48 1.04,-0.48 1.76,-1.28 0.76,-0.8 1.12,-1.84 0.4,-1.04 0.4,-2.16 0,-1.12 -0.4,-2.16 -0.36,-1.04 -1.12,-1.84 -0.72,-0.8 -1.76,-1.28 -1.04,-0.48 -2.36,-0.48 -1.32,0 -2.36,0.48 -1.04,0.48 -1.8,1.28 -0.72,0.8 -1.12,1.84 -0.36,1.04 -0.36,2.16 z"
         inkscape:connector-curvature="0" />
      <path
         id="path832"
         style="font-style:normal;font-variant:normal;font-weight:900;font-stretch:normal;font-family:Avenir;-inkscape-font-specification:'Avenir Heavy';stroke-width:0.83333331px;fill:#ffffff"
         d="m 145.01102,280.36712 h -0.12 q -1.04,1.64 -2.64,2.4 -1.6,0.72 -3.52,0.72 -1.32,0 -2.6,-0.36 -1.24,-0.36 -2.24,-1.08 -0.96,-0.72 -1.56,-1.8 -0.6,-1.08 -0.6,-2.52 0,-1.56 0.56,-2.64 0.56,-1.12 1.48,-1.84 0.96,-0.76 2.2,-1.2 1.24,-0.44 2.56,-0.64 1.36,-0.24 2.72,-0.28 1.36,-0.08 2.56,-0.08 h 1.2 v -0.52 q 0,-1.8 -1.24,-2.68 -1.24,-0.92 -3.16,-0.92 -1.52,0 -2.84,0.56 -1.32,0.52 -2.28,1.44 l -2.52,-2.52 q 1.6,-1.64 3.72,-2.36 2.16,-0.72 4.44,-0.72 2.04,0 3.44,0.48 1.4,0.44 2.32,1.16 0.92,0.72 1.4,1.68 0.52,0.92 0.72,1.88 0.24,0.96 0.28,1.88 0.04,0.88 0.04,1.56 v 11.04 h -4.32 z m -0.28,-5.96 h -1 q -1,0 -2.24,0.08 -1.24,0.08 -2.36,0.4 -1.08,0.28 -1.84,0.88 -0.76,0.56 -0.76,1.6 0,0.68 0.28,1.16 0.32,0.44 0.8,0.76 0.48,0.32 1.08,0.48 0.6,0.12 1.2,0.12 2.48,0 3.64,-1.16 1.2,-1.2 1.2,-3.24 z"
         inkscape:connector-curvature="0" />
      <path
         id="path834"
         style="font-style:normal;font-variant:normal;font-weight:900;font-stretch:normal;font-family:Avenir;-inkscape-font-specification:'Avenir Heavy';stroke-width:0.83333331px;fill:#ffffff"
         d="m 154.57539,252.76712 h 4.8 v 30.24 h -4.8 z"
         inkscape:connector-curvature="0" />
      <path
         id="path836"
         style="font-style:normal;font-variant:normal;font-weight:900;font-stretch:normal;font-family:Avenir;-inkscape-font-specification:'Avenir Heavy';stroke-width:0.83333331px;fill:#ffffff"
         d="m 165.04414,252.76712 h 4.8 v 30.24 h -4.8 z"
         inkscape:connector-curvature="0" />
      <path
         id="path838"
         style="font-style:normal;font-variant:normal;font-weight:900;font-stretch:normal;font-family:Avenir;-inkscape-font-specification:'Avenir Heavy';stroke-width:0.83333331px;fill:#ffffff"
         d="m 187.35477,280.36712 h -0.12 q -1.04,1.64 -2.64,2.4 -1.6,0.72 -3.52,0.72 -1.32,0 -2.6,-0.36 -1.24,-0.36 -2.24,-1.08 -0.96,-0.72 -1.56,-1.8 -0.6,-1.08 -0.6,-2.52 0,-1.56 0.56,-2.64 0.56,-1.12 1.48,-1.84 0.96,-0.76 2.2,-1.2 1.24,-0.44 2.56,-0.64 1.36,-0.24 2.72,-0.28 1.36,-0.08 2.56,-0.08 h 1.2 v -0.52 q 0,-1.8 -1.24,-2.68 -1.24,-0.92 -3.16,-0.92 -1.52,0 -2.84,0.56 -1.32,0.52 -2.28,1.44 l -2.52,-2.52 q 1.6,-1.64 3.72,-2.36 2.16,-0.72 4.44,-0.72 2.04,0 3.44,0.48 1.4,0.44 2.32,1.16 0.92,0.72 1.4,1.68 0.52,0.92 0.72,1.88 0.24,0.96 0.28,1.88 0.04,0.88 0.04,1.56 v 11.04 h -4.32 z m -0.28,-5.96 h -1 q -1,0 -2.24,0.08 -1.24,0.08 -2.36,0.4 -1.08,0.28 -1.84,0.88 -0.76,0.56 -0.76,1.6 0,0.68 0.28,1.16 0.32,0.44 0.8,0.76 0.48,0.32 1.08,0.48 0.6,0.12 1.2,0.12 2.48,0 3.64,-1.16 1.2,-1.2 1.2,-3.24 z"
         inkscape:connector-curvature="0" />
      <path
         id="path840"
         style="font-style:normal;font-variant:normal;font-weight:900;font-stretch:normal;font-family:Avenir;-inkscape-font-specification:'Avenir Heavy';stroke-width:0.83333331px;fill:#ffffff"
         d="m 205.35914,275.20712 h -9.88 v -4.08 h 9.88 z"
         inkscape:connector-curvature="0" />
      <path
         id="path842"
         style="font-style:normal;font-variant:normal;font-weight:900;font-stretch:normal;font-family:Avenir;-inkscape-font-specification:'Avenir Heavy';stroke-width:0.83333331px;fill:#ffffff"
         d="m 211.13727,267.88712 h -3.96 v -4.08 h 3.96 v -2.72 q 0,-2 0.28,-3.6 0.28,-1.64 1.04,-2.8 0.8,-1.16 2.2,-1.76 1.4,-0.64 3.64,-0.64 1.64,0 3.04,0.28 l -0.32,4.08 q -0.52,-0.12 -1,-0.2 -0.48,-0.08 -1,-0.08 -1,0 -1.6,0.32 -0.6,0.32 -0.96,0.88 -0.32,0.52 -0.44,1.24 -0.08,0.72 -0.08,1.52 v 3.48 h 4.44 v 4.08 h -4.44 v 15.12 h -4.8 z"
         inkscape:connector-curvature="0" />
      <path
         id="path844"
         style="font-style:normal;font-variant:normal;font-weight:900;font-stretch:normal;font-family:Avenir;-inkscape-font-specification:'Avenir Heavy';stroke-width:0.83333331px;fill:#ffffff"
         d="m 235.47977,280.36712 h -0.12 q -1.04,1.64 -2.64,2.4 -1.6,0.72 -3.52,0.72 -1.32,0 -2.6,-0.36 -1.24,-0.36 -2.24,-1.08 -0.96,-0.72 -1.56,-1.8 -0.6,-1.08 -0.6,-2.52 0,-1.56 0.56,-2.64 0.56,-1.12 1.48,-1.84 0.96,-0.76 2.2,-1.2 1.24,-0.44 2.56,-0.64 1.36,-0.24 2.72,-0.28 1.36,-0.08 2.56,-0.08 h 1.2 v -0.52 q 0,-1.8 -1.24,-2.68 -1.24,-0.92 -3.16,-0.92 -1.52,0 -2.84,0.56 -1.32,0.52 -2.28,1.44 l -2.52,-2.52 q 1.6,-1.64 3.72,-2.36 2.16,-0.72 4.44,-0.72 2.04,0 3.44,0.48 1.4,0.44 2.32,1.16 0.92,0.72 1.4,1.68 0.52,0.92 0.72,1.88 0.24,0.96 0.28,1.88 0.04,0.88 0.04,1.56 v 11.04 h -4.32 z m -0.28,-5.96 h -1 q -1,0 -2.24,0.08 -1.24,0.08 -2.36,0.4 -1.08,0.28 -1.84,0.88 -0.76,0.56 -0.76,1.6 0,0.68 0.28,1.16 0.32,0.44 0.8,0.76 0.48,0.32 1.08,0.48 0.6,0.12 1.2,0.12 2.48,0 3.64,-1.16 1.2,-1.2 1.2,-3.24 z"
         inkscape:connector-curvature="0" />
      <path
         id="path846"
         style="font-style:normal;font-variant:normal;font-weight:900;font-stretch:normal;font-family:Avenir;-inkscape-font-specification:'Avenir Heavy';stroke-width:0.83333331px;fill:#ffffff"
         d="m 242.36414,263.80712 h 5.24 l 5.12,13.44 h 0.08 l 5.16,-13.44 h 4.92 l -7.56,19.2 h -5.12 z"
         inkscape:connector-curvature="0" />
      <path
         id="path848"
         style="font-style:normal;font-variant:normal;font-weight:900;font-stretch:normal;font-family:Avenir;-inkscape-font-specification:'Avenir Heavy';stroke-width:0.83333331px;fill:#ffffff"
         d="m 269.58539,275.08712 q 0.24,2.16 1.68,3.36 1.44,1.2 3.48,1.2 1.8,0 3,-0.72 1.24,-0.76 2.16,-1.88 l 3.44,2.6 q -1.68,2.08 -3.76,2.96 -2.08,0.88 -4.36,0.88 -2.16,0 -4.08,-0.72 -1.92,-0.72 -3.32,-2.04 -1.4,-1.32 -2.24,-3.16 -0.8,-1.88 -0.8,-4.16 0,-2.28 0.8,-4.12 0.84,-1.88 2.24,-3.2 1.4,-1.32 3.32,-2.04 1.92,-0.72 4.08,-0.72 2,0 3.64,0.72 1.68,0.68 2.84,2 1.2,1.32 1.84,3.28 0.68,1.92 0.68,4.44 v 1.32 z m 9.84,-3.6 q -0.04,-2.12 -1.32,-3.32 -1.28,-1.24 -3.56,-1.24 -2.16,0 -3.44,1.24 -1.24,1.24 -1.52,3.32 z"
         inkscape:connector-curvature="0" />
      <path
         id="path850"
         style="font-style:normal;font-variant:normal;font-weight:900;font-stretch:normal;font-family:Avenir;-inkscape-font-specification:'Avenir Heavy';stroke-width:0.83333331px;fill:#ffffff"
         d="m 288.71414,263.80712 h 4.8 v 3.04 h 0.08 q 0.8,-1.68 2.28,-2.6 1.48,-0.92 3.4,-0.92 0.44,0 0.84,0.08 0.44,0.08 0.88,0.2 v 4.64 q -0.6,-0.16 -1.2,-0.24 -0.56,-0.12 -1.12,-0.12 -1.68,0 -2.72,0.64 -1,0.6 -1.56,1.4 -0.52,0.8 -0.72,1.6 -0.16,0.8 -0.16,1.2 v 10.28 h -4.8 z"
         inkscape:connector-curvature="0" />
      <path
         id="path852"
         style="font-style:normal;font-variant:normal;font-weight:900;font-stretch:normal;font-family:Avenir;-inkscape-font-specification:'Avenir Heavy';stroke-width:0.83333331px;fill:#ffffff"
         d="m 316.26102,280.36712 h -0.12 q -1.04,1.64 -2.64,2.4 -1.6,0.72 -3.52,0.72 -1.32,0 -2.6,-0.36 -1.24,-0.36 -2.24,-1.08 -0.96,-0.72 -1.56,-1.8 -0.6,-1.08 -0.6,-2.52 0,-1.56 0.56,-2.64 0.56,-1.12 1.48,-1.84 0.96,-0.76 2.2,-1.2 1.24,-0.44 2.56,-0.64 1.36,-0.24 2.72,-0.28 1.36,-0.08 2.56,-0.08 h 1.2 v -0.52 q 0,-1.8 -1.24,-2.68 -1.24,-0.92 -3.16,-0.92 -1.52,0 -2.84,0.56 -1.32,0.52 -2.28,1.44 l -2.52,-2.52 q 1.6,-1.64 3.72,-2.36 2.16,-0.72 4.44,-0.72 2.04,0 3.44,0.48 1.4,0.44 2.32,1.16 0.92,0.72 1.4,1.68 0.52,0.92 0.72,1.88 0.24,0.96 0.28,1.88 0.04,0.88 0.04,1.56 v 11.04 h -4.32 z m -0.28,-5.96 h -1 q -1,0 -2.24,0.08 -1.24,0.08 -2.36,0.4 -1.08,0.28 -1.84,0.88 -0.76,0.56 -0.76,1.6 0,0.68 0.28,1.16 0.32,0.44 0.8,0.76 0.48,0.32 1.08,0.48 0.6,0.12 1.2,0.12 2.48,0 3.64,-1.16 1.2,-1.2 1.2,-3.24 z"
         inkscape:connector-curvature="0" />
      <path
         id="path854"
         style="font-style:normal;font-variant:normal;font-weight:900;font-stretch:normal;font-family:Avenir;-inkscape-font-specification:'Avenir Heavy';stroke-width:0.83333331px;fill:#ffffff"
         d="m 337.70039,252.76712 h 4.8 v 30.24 h -4.8 z"
         inkscape:connector-curvature="0" />
      <path
         id="path856"
         style="font-style:normal;font-variant:normal;font-weight:900;font-stretch:normal;font-family:Avenir;-inkscape-font-specification:'Avenir Heavy';stroke-width:0.83333331px;fill:#ffffff"
         d="m 360.01102,280.36712 h -0.12 q -1.04,1.64 -2.64,2.4 -1.6,0.72 -3.52,0.72 -1.32,0 -2.6,-0.36 -1.24,-0.36 -2.24,-1.08 -0.96,-0.72 -1.56,-1.8 -0.6,-1.08 -0.6,-2.52 0,-1.56 0.56,-2.64 0.56,-1.12 1.48,-1.84 0.96,-0.76 2.2,-1.2 1.24,-0.44 2.56,-0.64 1.36,-0.24 2.72,-0.28 1.36,-0.08 2.56,-0.08 h 1.2 v -0.52 q 0,-1.8 -1.24,-2.68 -1.24,-0.92 -3.16,-0.92 -1.52,0 -2.84,0.56 -1.32,0.52 -2.28,1.44 l -2.52,-2.52 q 1.6,-1.64 3.72,-2.36 2.16,-0.72 4.44,-0.72 2.04,0 3.44,0.48 1.4,0.44 2.32,1.16 0.92,0.72 1.4,1.68 0.52,0.92 0.72,1.88 0.24,0.96 0.28,1.88 0.04,0.88 0.04,1.56 v 11.04 h -4.32 z m -0.28,-5.96 h -1 q -1,0 -2.24,0.08 -1.24,0.08 -2.36,0.4 -1.08,0.28 -1.84,0.88 -0.76,0.56 -0.76,1.6 0,0.68 0.28,1.16 0.32,0.44 0.8,0.76 0.48,0.32 1.08,0.48 0.6,0.12 1.2,0.12 2.48,0 3.64,-1.16 1.2,-1.2 1.2,-3.24 z"
         inkscape:connector-curvature="0" />
      <path
         id="path858"
         style="font-style:normal;font-variant:normal;font-weight:900;font-stretch:normal;font-family:Avenir;-inkscape-font-specification:'Avenir Heavy';stroke-width:0.83333331px;fill:#ffffff"
         d="m 369.49539,252.76712 h 4.8 v 13.48 h 0.12 q 0.36,-0.48 0.92,-0.96 0.56,-0.52 1.36,-0.96 0.8,-0.44 1.84,-0.72 1.04,-0.28 2.4,-0.28 2.04,0 3.76,0.8 1.72,0.76 2.92,2.12 1.24,1.36 1.92,3.2 0.68,1.84 0.68,3.96 0,2.12 -0.64,3.96 -0.64,1.84 -1.88,3.2 -1.24,1.36 -3,2.16 -1.76,0.76 -3.96,0.76 -2.04,0 -3.8,-0.8 -1.76,-0.8 -2.8,-2.56 h -0.08 v 2.88 h -4.56 z m 15.92,20.64 q 0,-1.12 -0.4,-2.16 -0.36,-1.04 -1.12,-1.84 -0.72,-0.8 -1.76,-1.28 -1.04,-0.48 -2.36,-0.48 -1.32,0 -2.36,0.48 -1.04,0.48 -1.8,1.28 -0.72,0.8 -1.12,1.84 -0.36,1.04 -0.36,2.16 0,1.12 0.36,2.16 0.4,1.04 1.12,1.84 0.76,0.8 1.8,1.28 1.04,0.48 2.36,0.48 1.32,0 2.36,-0.48 1.04,-0.48 1.76,-1.28 0.76,-0.8 1.12,-1.84 0.4,-1.04 0.4,-2.16 z"
         inkscape:connector-curvature="0" />
    </g>
  </g>
  <path
     style="opacity:1;fill:#ffffff;fill-opacity:1;stroke:none;stroke-width:0.66666675;stroke-linecap:round;stroke-linejoin:round;stroke-miterlimit:4;stroke-dasharray:none;stroke-opacity:0.00392157;paint-order:stroke markers fill"
     d="M 3.7792969 39.9375 L 3.7792969 79.9375 A 10 10 0 0 0 8.7792969 88.597656 A 10 10 0 0 0 18.779297 88.597656 A 10 10 0 0 0 23.779297 79.9375 L 23.779297 39.9375 L 3.7792969 39.9375 z "
     transform="scale(0.26458332)"
     id="path4554" />
  <rect
     style="opacity:1;fill:#ffffff;fill-opacity:1;stroke:none;stroke-width:0.1763889;stroke-linecap:round;stroke-linejoin:round;stroke-miterlimit:4;stroke-dasharray:none;stroke-opacity:0.00392157;paint-order:stroke markers fill"
     id="rect4556-5-6"
     width="0.26458332"
     height="13.229166"
     x="1"
     y="7.9210973" />
  <rect
     style="opacity:1;fill:#ffffff;fill-opacity:1;stroke:none;stroke-width:0.1763889;stroke-linecap:round;stroke-linejoin:round;stroke-miterlimit:4;stroke-dasharray:none;stroke-opacity:0.00392157;paint-order:stroke markers fill"
     id="rect4556-5-6-5"
     width="0.26458332"
     height="13.229166"
     x="6.0270824"
     y="7.9210973" />
  <path
     style="opacity:1;fill:#ffffff;fill-opacity:1;stroke:none;stroke-width:0.1763889;stroke-linecap:round;stroke-linejoin:round;stroke-miterlimit:4;stroke-dasharray:none;stroke-opacity:0.00392157;paint-order:stroke markers fill"
     d="m 8.4082719,15.858463 v 5.291666 a 2.6458332,2.6458332 0 0 0 1.3229166,2.291333 2.6458332,2.6458332 0 0 0 2.6458335,0 2.6458332,2.6458332 0 0 0 1.322916,-2.291333 v -5.291666 z"
     id="path4554-0"
     inkscape:connector-curvature="0" />
  <rect
     style="opacity:1;fill:#ffffff;fill-opacity:1;stroke:none;stroke-width:0.1763889;stroke-linecap:round;stroke-linejoin:round;stroke-miterlimit:4;stroke-dasharray:none;stroke-opacity:0.00392157;paint-order:stroke markers fill"
     id="rect4556-5-6-1"
     width="0.26458332"
     height="13.229166"
     x="8.4082699"
     y="7.9210973" />
  <rect
     style="opacity:1;fill:#ffffff;fill-opacity:1;stroke:none;stroke-width:0.1763889;stroke-linecap:round;stroke-linejoin:round;stroke-miterlimit:4;stroke-dasharray:none;stroke-opacity:0.00392157;paint-order:stroke markers fill"
     id="rect4556-5-6-5-4"
     width="0.26458332"
     height="13.229166"
     x="13.435352"
     y="7.9210973" />
  <path
     style="opacity:1;fill:#ffffff;fill-opacity:1;stroke:none;stroke-width:0.1763889;stroke-linecap:round;stroke-linejoin:round;stroke-miterlimit:4;stroke-dasharray:none;stroke-opacity:0.00392157;paint-order:stroke markers fill"
     d="m 15.816605,13.21263 v 7.937499 a 2.6458332,2.6458332 0 0 0 1.322916,2.291333 2.6458332,2.6458332 0 0 0 2.645834,0 2.6458332,2.6458332 0 0 0 1.322916,-2.291333 V 13.21263 Z"
     id="path4554-0-0"
     inkscape:connector-curvature="0" />
  <rect
     style="opacity:1;fill:#ffffff;fill-opacity:1;stroke:none;stroke-width:0.1763889;stroke-linecap:round;stroke-linejoin:round;stroke-miterlimit:4;stroke-dasharray:none;stroke-opacity:0.00392157;paint-order:stroke markers fill"
     id="rect4556-5-6-1-9"
     width="0.26458332"
     height="13.229166"
     x="15.816603"
     y="7.9210973" />
  <rect
     style="opacity:1;fill:#ffffff;fill-opacity:1;stroke:none;stroke-width:0.1763889;stroke-linecap:round;stroke-linejoin:round;stroke-miterlimit:4;stroke-dasharray:none;stroke-opacity:0.00392157;paint-order:stroke markers fill"
     id="rect4556-5-6-5-4-6"
     width="0.26458332"
     height="13.229166"
     x="20.843685"
     y="7.9210973" />
  <circle
     style="opacity:1;fill:#ffffff;fill-opacity:1;stroke:#ffffff;stroke-width:0.17638889;stroke-linecap:round;stroke-linejoin:round;stroke-miterlimit:4;stroke-dasharray:none;stroke-opacity:0.00392157;paint-order:stroke markers fill"
     id="path5364"
     cx="3.4365549"
     cy="7.0586619"
     r="0.92604166" />
  <circle
     style="opacity:1;fill:#ffffff;fill-opacity:1;stroke:#ffffff;stroke-width:0.17638889;stroke-linecap:round;stroke-linejoin:round;stroke-miterlimit:4;stroke-dasharray:none;stroke-opacity:0.00392157;paint-order:stroke markers fill"
     id="path5364-5"
     cx="7.6121736"
     cy="1.9260416"
     r="0.92604166" />
  <circle
     style="opacity:1;fill:#ffffff;fill-opacity:1;stroke:#ffffff;stroke-width:0.17638889;stroke-linecap:round;stroke-linejoin:round;stroke-miterlimit:4;stroke-dasharray:none;stroke-opacity:0.00392157;paint-order:stroke markers fill"
     id="path5364-2"
     cx="11.787794"
     cy="6.0868096"
     r="0.92604166" />
  <circle
     style="opacity:1;fill:#ffffff;fill-opacity:1;stroke:#ffffff;stroke-width:0.17638889;stroke-linecap:round;stroke-linejoin:round;stroke-miterlimit:4;stroke-dasharray:none;stroke-opacity:0.00392157;paint-order:stroke markers fill"
     id="path5364-1"
     cx="15.963413"
     cy="2.4005151"
     r="0.92604166" />
  <circle
     style="opacity:1;fill:#ffffff;fill-opacity:1;stroke:#ffffff;stroke-width:0.17638889;stroke-linecap:round;stroke-linejoin:round;stroke-miterlimit:4;stroke-dasharray:none;stroke-opacity:0.00392157;paint-order:stroke markers fill"
     id="path5364-7"
     cx="20.139032"
     cy="5.794826"
     r="0.92604166" />
  <path
     style="fill:none;fill-rule:evenodd;stroke:#ffffff;stroke-width:0.26458332px;stroke-linecap:butt;stroke-linejoin:miter;stroke-opacity:1;opacity:1"
     d="M 3.3864645,7.1452504 C 6.9267668,2.0355356 7.5472321,1.7435519 7.5472321,1.7435519 l 4.2337639,4.3067596 4.197265,-3.7592901 4.12427,3.5038044"
     id="path5416"
     inkscape:connector-curvature="0"
     sodipodi:nodetypes="ccccc" />
</svg>
