<?xml version="1.0" encoding="UTF-8" standalone="no"?>
<svg
   xmlns:dc="http://purl.org/dc/elements/1.1/"
   xmlns:cc="http://creativecommons.org/ns#"
   xmlns:rdf="http://www.w3.org/1999/02/22-rdf-syntax-ns#"
   xmlns:svg="http://www.w3.org/2000/svg"
   xmlns="http://www.w3.org/2000/svg"
   xmlns:sodipodi="http://sodipodi.sourceforge.net/DTD/sodipodi-0.dtd"
   xmlns:inkscape="http://www.inkscape.org/namespaces/inkscape"
   id="svg8"
   version="1.1"
   viewBox="0 0 51.018602 7.9374998"
   height="7.9374995mm"
   width="51.018612mm"
   sodipodi:docname="rdf-logo.svg"
   inkscape:version="0.92.3 (2405546, 2018-03-11)">
  <sodipodi:namedview
     pagecolor="#ffffff"
     bordercolor="#666666"
     borderopacity="1"
     objecttolerance="10"
     gridtolerance="10"
     guidetolerance="10"
     inkscape:pageopacity="0"
     inkscape:pageshadow="2"
     inkscape:window-width="1920"
     inkscape:window-height="1013"
     id="namedview4599"
     showgrid="false"
     fit-margin-top="0"
     fit-margin-left="0"
     fit-margin-bottom="0"
     fit-margin-right="0"
     inkscape:zoom="2.5630015"
     inkscape:cx="187.68969"
     inkscape:cy="-5.2296938"
     inkscape:window-x="-9"
     inkscape:window-y="-9"
     inkscape:window-maximized="1"
     inkscape:current-layer="svg8" />
  <defs
     id="defs2" />
  <metadata
     id="metadata5">
    <rdf:RDF>
      <cc:Work
         rdf:about="">
        <dc:format>image/svg+xml</dc:format>
        <dc:type
           rdf:resource="http://purl.org/dc/dcmitype/StillImage" />
        <dc:title></dc:title>
      </cc:Work>
    </rdf:RDF>
  </metadata>
  <ellipse
     style="opacity:1;fill:#afc6e9;fill-opacity:1;stroke:#ffffff;stroke-width:0.17638887;stroke-linecap:round;stroke-linejoin:round;stroke-miterlimit:4;stroke-dasharray:none;stroke-opacity:0.00392157;paint-order:stroke markers fill"
     id="path940-3"
     cx="5.4019089"
     cy="3.9687493"
     rx="5.2034717"
     ry="3.8805549" />
  <path
     style="opacity:1;fill:#5f8dd3;fill-opacity:1;stroke:#ffffff;stroke-width:0.39687496;stroke-linecap:round;stroke-linejoin:round;stroke-miterlimit:4;stroke-dasharray:none;stroke-opacity:1;paint-order:stroke markers fill"
     d="M 4.1754555,0.20205707 A 5.2034719,3.8805553 0 0 0 0.19843748,3.9687503 5.2034719,3.8805553 0 0 0 4.176489,7.7354453 3.219097,3.880555 0 0 0 6.6368039,3.9687503 3.219097,3.880555 0 0 0 4.1754555,0.20205707 Z"
     id="path940"
     inkscape:connector-curvature="0" />
  <g
     aria-label="dalla-favera lab"
     transform="matrix(0.26458331,0,0,0.26458331,0.32327957,-17.293757)"
     style="font-style:normal;font-variant:normal;font-weight:normal;font-stretch:normal;font-size:40px;line-height:125%;font-family:'AR BONNIE';-inkscape-font-specification:'AR BONNIE';letter-spacing:0px;word-spacing:0px;fill:none;fill-opacity:1;stroke:#53676c;stroke-width:1px;stroke-linecap:butt;stroke-linejoin:miter;stroke-opacity:1"
     id="flowRoot1018">
    <path
       d="m 51.736156,86.530237 q -0.912,0 -1.568,-0.64 -0.64,-0.656 -0.64,-1.568 v -4.864 q 0,-0.912 0.64,-1.552 0.656,-0.656 1.568,-0.656 h 5.136 v -3.04 h 2.096 v 12.32 z m 0.464,-2.096 h 4.112 q 0.448,0 0.496,-0.048 0.064,-0.064 0.064,-0.512 v -3.968 q 0,-0.448 -0.064,-0.496 -0.048,-0.064 -0.496,-0.064 h -4.112 q -0.448,0 -0.512,0.064 -0.048,0.048 -0.048,0.496 v 3.968 q 0,0.448 0.048,0.512 0.064,0.048 0.512,0.048 z"
       style="font-style:normal;font-variant:normal;font-weight:bold;font-stretch:normal;font-size:16px;font-family:Orbitron;-inkscape-font-specification:'Orbitron Bold';fill:#93a7ac;fill-opacity:1;stroke:none;stroke-opacity:1"
       id="path1057"
       inkscape:connector-curvature="0" />
    <path
       d="m 62.887656,86.530237 q -0.912,0 -1.568,-0.64 -0.64,-0.656 -0.64,-1.568 v -3.488 h 7.328 v -0.928 q 0,-0.448 -0.064,-0.496 -0.048,-0.064 -0.496,-0.064 h -6.768 v -2.096 h 7.216 q 0.912,0 1.552,0.656 0.656,0.64 0.656,1.552 v 7.072 z m 0.448,-2.096 h 4.672 v -1.712 h -5.232 v 1.152 q 0,0.448 0.048,0.512 0.064,0.048 0.512,0.048 z"
       style="font-style:normal;font-variant:normal;font-weight:bold;font-stretch:normal;font-size:16px;font-family:Orbitron;-inkscape-font-specification:'Orbitron Bold';fill:#93a7ac;fill-opacity:1;stroke:none;stroke-opacity:1"
       id="path1059"
       inkscape:connector-curvature="0" />
    <path
       d="m 73.825156,86.530237 q -0.912,0 -1.568,-0.64 -0.64,-0.656 -0.64,-1.568 v -10.128 h 2.112 v 9.68 q 0,0.448 0.048,0.512 0.064,0.048 0.496,0.048 h 1.424 v 2.096 z"
       style="font-style:normal;font-variant:normal;font-weight:bold;font-stretch:normal;font-size:16px;font-family:Orbitron;-inkscape-font-specification:'Orbitron Bold';fill:#93a7ac;fill-opacity:1;stroke:none;stroke-opacity:1"
       id="path1061"
       inkscape:connector-curvature="0" />
    <path
       d="m 79.043906,86.530237 q -0.912,0 -1.568,-0.64 -0.64,-0.656 -0.64,-1.568 v -10.128 h 2.112 v 9.68 q 0,0.448 0.048,0.512 0.064,0.048 0.496,0.048 h 1.424 v 2.096 z"
       style="font-style:normal;font-variant:normal;font-weight:bold;font-stretch:normal;font-size:16px;font-family:Orbitron;-inkscape-font-specification:'Orbitron Bold';fill:#93a7ac;fill-opacity:1;stroke:none;stroke-opacity:1"
       id="path1063"
       inkscape:connector-curvature="0" />
    <path
       d="m 84.106406,86.530237 q -0.912,0 -1.568,-0.64 -0.64,-0.656 -0.64,-1.568 v -3.488 h 7.328 v -0.928 q 0,-0.448 -0.064,-0.496 -0.048,-0.064 -0.496,-0.064 h -6.768 v -2.096 h 7.216 q 0.912,0 1.552,0.656 0.656,0.64 0.656,1.552 v 7.072 z m 0.448,-2.096 h 4.672 v -1.712 h -5.232 v 1.152 q 0,0.448 0.048,0.512 0.064,0.048 0.512,0.048 z"
       style="font-style:normal;font-variant:normal;font-weight:bold;font-stretch:normal;font-size:16px;font-family:Orbitron;-inkscape-font-specification:'Orbitron Bold';fill:#93a7ac;fill-opacity:1;stroke:none;stroke-opacity:1"
       id="path1065"
       inkscape:connector-curvature="0" />
    <path
       d="m 93.104156,82.850237 v -2.096 h 6.544 v 2.096 z"
       style="font-style:normal;font-variant:normal;font-weight:bold;font-stretch:normal;font-size:16px;font-family:Orbitron;-inkscape-font-specification:'Orbitron Bold';fill:#93a7ac;fill-opacity:1;stroke:none;stroke-opacity:1"
       id="path1067"
       inkscape:connector-curvature="0" />
    <path
       d="m 101.28941,86.530237 v -10.112 q 0,-0.912 0.64,-1.552 0.656,-0.656 1.568,-0.656 h 3.504 v 2.112 h -3.056 q -0.448,0 -0.512,0.064 -0.048,0.048 -0.048,0.48 v 0.384 h 3.616 v 2.096 h -3.616 v 7.184 z"
       style="font-style:normal;font-variant:normal;font-weight:bold;font-stretch:normal;font-size:16px;font-family:Orbitron;-inkscape-font-specification:'Orbitron Bold';fill:#93a7ac;fill-opacity:1;stroke:none;stroke-opacity:1"
       id="path1069"
       inkscape:connector-curvature="0" />
    <path
       d="m 110.35641,86.530237 q -0.912,0 -1.568,-0.64 -0.64,-0.656 -0.64,-1.568 v -3.488 h 7.328 v -0.928 q 0,-0.448 -0.064,-0.496 -0.048,-0.064 -0.496,-0.064 h -6.768 v -2.096 h 7.216 q 0.912,0 1.552,0.656 0.656,0.64 0.656,1.552 v 7.072 z m 0.448,-2.096 h 4.672 v -1.712 h -5.232 v 1.152 q 0,0.448 0.048,0.512 0.064,0.048 0.512,0.048 z"
       style="font-style:normal;font-variant:normal;font-weight:bold;font-stretch:normal;font-size:16px;font-family:Orbitron;-inkscape-font-specification:'Orbitron Bold';fill:#93a7ac;fill-opacity:1;stroke:none;stroke-opacity:1"
       id="path1071"
       inkscape:connector-curvature="0" />
    <path
       d="m 123.53766,86.530237 -5.104,-9.28 h 2.416 l 3.664,6.736 3.648,-6.736 h 2.416 l -5.12,9.28 z"
       style="font-style:normal;font-variant:normal;font-weight:bold;font-stretch:normal;font-size:16px;font-family:Orbitron;-inkscape-font-specification:'Orbitron Bold';fill:#93a7ac;fill-opacity:1;stroke:none;stroke-opacity:1"
       id="path1073"
       inkscape:connector-curvature="0" />
    <path
       d="m 133.27791,86.530237 q -0.912,0 -1.568,-0.64 -0.64,-0.656 -0.64,-1.568 v -4.864 q 0,-0.912 0.64,-1.552 0.656,-0.656 1.568,-0.656 h 5.008 q 0.912,0 1.552,0.656 0.656,0.64 0.656,1.552 v 3.488 h -7.328 v 0.928 q 0,0.448 0.048,0.512 0.064,0.048 0.512,0.048 h 6.768 v 2.096 z m -0.112,-5.472 h 5.232 v -1.152 q 0,-0.448 -0.064,-0.496 -0.048,-0.064 -0.496,-0.064 h -4.112 q -0.448,0 -0.512,0.064 -0.048,0.048 -0.048,0.496 z"
       style="font-style:normal;font-variant:normal;font-weight:bold;font-stretch:normal;font-size:16px;font-family:Orbitron;-inkscape-font-specification:'Orbitron Bold';fill:#93a7ac;fill-opacity:1;stroke:none;stroke-opacity:1"
       id="path1075"
       inkscape:connector-curvature="0" />
    <path
       d="m 142.05466,86.530237 v -7.072 q 0,-0.912 0.64,-1.552 0.656,-0.656 1.568,-0.656 h 5.152 v 2.096 h -4.704 q -0.448,0 -0.512,0.064 -0.048,0.048 -0.048,0.496 v 6.624 z"
       style="font-style:normal;font-variant:normal;font-weight:bold;font-stretch:normal;font-size:16px;font-family:Orbitron;-inkscape-font-specification:'Orbitron Bold';fill:#93a7ac;fill-opacity:1;stroke:none;stroke-opacity:1"
       id="path1077"
       inkscape:connector-curvature="0" />
    <path
       d="m 152.60641,86.530237 q -0.912,0 -1.568,-0.64 -0.64,-0.656 -0.64,-1.568 v -3.488 h 7.328 v -0.928 q 0,-0.448 -0.064,-0.496 -0.048,-0.064 -0.496,-0.064 h -6.768 v -2.096 h 7.216 q 0.912,0 1.552,0.656 0.656,0.64 0.656,1.552 v 7.072 z m 0.448,-2.096 h 4.672 v -1.712 h -5.232 v 1.152 q 0,0.448 0.048,0.512 0.064,0.048 0.512,0.048 z"
       style="font-style:normal;font-variant:normal;font-weight:bold;font-stretch:normal;font-size:16px;font-family:Orbitron;-inkscape-font-specification:'Orbitron Bold';fill:#93a7ac;fill-opacity:1;stroke:none;stroke-opacity:1"
       id="path1079"
       inkscape:connector-curvature="0" />
    <path
       d="m 168.60641,86.530237 q -0.912,0 -1.568,-0.64 -0.64,-0.656 -0.64,-1.568 v -10.128 h 2.112 v 9.68 q 0,0.448 0.048,0.512 0.064,0.048 0.496,0.048 h 1.424 v 2.096 z"
       style="font-style:normal;font-variant:normal;font-weight:bold;font-stretch:normal;font-size:16px;font-family:Orbitron;-inkscape-font-specification:'Orbitron Bold';fill:#93a7ac;fill-opacity:1;stroke:none;stroke-opacity:1"
       id="path1081"
       inkscape:connector-curvature="0" />
    <path
       d="m 173.66891,86.530237 q -0.912,0 -1.568,-0.64 -0.64,-0.656 -0.64,-1.568 v -3.488 h 7.328 v -0.928 q 0,-0.448 -0.064,-0.496 -0.048,-0.064 -0.496,-0.064 h -6.768 v -2.096 h 7.216 q 0.912,0 1.552,0.656 0.656,0.64 0.656,1.552 v 7.072 z m 0.448,-2.096 h 4.672 v -1.712 h -5.232 v 1.152 q 0,0.448 0.048,0.512 0.064,0.048 0.512,0.048 z"
       style="font-style:normal;font-variant:normal;font-weight:bold;font-stretch:normal;font-size:16px;font-family:Orbitron;-inkscape-font-specification:'Orbitron Bold';fill:#93a7ac;fill-opacity:1;stroke:none;stroke-opacity:1"
       id="path1083"
       inkscape:connector-curvature="0" />
    <path
       d="m 182.18041,86.530237 v -12.32 h 2.096 v 3.04 h 5.12 q 0.912,0 1.552,0.656 0.656,0.64 0.656,1.552 v 4.864 q 0,0.912 -0.656,1.568 -0.64,0.64 -1.552,0.64 z m 2.656,-2.096 h 4.112 q 0.448,0 0.496,-0.048 0.064,-0.064 0.064,-0.512 v -3.968 q 0,-0.448 -0.064,-0.496 -0.048,-0.064 -0.496,-0.064 h -4.112 q -0.448,0 -0.512,0.064 -0.048,0.048 -0.048,0.496 v 3.968 q 0,0.448 0.048,0.512 0.064,0.048 0.512,0.048 z"
       style="font-style:normal;font-variant:normal;font-weight:bold;font-stretch:normal;font-size:16px;font-family:Orbitron;-inkscape-font-specification:'Orbitron Bold';fill:#93a7ac;fill-opacity:1;stroke:none;stroke-opacity:1"
       id="path1085"
       inkscape:connector-curvature="0" />
  </g>
</svg>
