<?xml version="1.0" encoding="UTF-8" standalone="no"?>
<svg
   xmlns:dc="http://purl.org/dc/elements/1.1/"
   xmlns:cc="http://creativecommons.org/ns#"
   xmlns:rdf="http://www.w3.org/1999/02/22-rdf-syntax-ns#"
   xmlns:svg="http://www.w3.org/2000/svg"
   xmlns="http://www.w3.org/2000/svg"
   xmlns:sodipodi="http://sodipodi.sourceforge.net/DTD/sodipodi-0.dtd"
   xmlns:inkscape="http://www.inkscape.org/namespaces/inkscape"
   enable-background="new 0 0 26 26"
   id="Слой_1"
   version="1.1"
   viewBox="0 0 26 26"
   xml:space="preserve"
   inkscape:version="0.91 r13725"
   sodipodi:docname="generic.svg"
   inkscape:export-filename="/mnt/hddb/websites/www-icg/src/images/people/generic.png"
   inkscape:export-xdpi="5192.5781"
   inkscape:export-ydpi="5192.5781"><metadata
     id="metadata9"><rdf:RDF><cc:Work
         rdf:about=""><dc:format>image/svg+xml</dc:format><dc:type
           rdf:resource="http://purl.org/dc/dcmitype/StillImage" /></cc:Work></rdf:RDF></metadata><defs
     id="defs7" /><sodipodi:namedview
     pagecolor="#ffffff"
     bordercolor="#666666"
     borderopacity="1"
     objecttolerance="10"
     gridtolerance="10"
     guidetolerance="10"
     inkscape:pageopacity="0"
     inkscape:pageshadow="2"
     inkscape:window-width="959"
     inkscape:window-height="480"
     id="namedview5"
     showgrid="false"
     inkscape:zoom="9.0769231"
     inkscape:cx="13.661017"
     inkscape:cy="13"
     inkscape:window-x="292"
     inkscape:window-y="668"
     inkscape:window-maximized="0"
     inkscape:current-layer="Слой_1" /><path
     d="M16.8035889,14.4605103c2.0820923-1.2811279,3.4776611-3.5723267,3.4776611-6.1885376  C20.28125,4.262207,17.0146484,1,13,1S5.71875,4.262207,5.71875,8.2719727c0,2.6162109,1.3955688,4.9074097,3.4776611,6.1885376  c-4.4957886,1.0071411-7.6505127,3.7583618-7.6505127,7.0878296C1.5458984,24.2729492,8.7460938,25,13,25  s11.4541016-0.7270508,11.4541016-3.4516602C24.4541016,18.2188721,21.2993774,15.4676514,16.8035889,14.4605103z   M7.21875,8.2719727C7.21875,5.0893555,9.8125,2.5,13,2.5s5.78125,2.5893555,5.78125,5.7719727S16.1875,14.043457,13,14.043457  S7.21875,11.4545898,7.21875,8.2719727z M13,23.5c-6.1149902,0-9.7753906-1.289978-9.9536743-1.9567261  C3.0509644,18.2345581,7.5145874,15.543457,13,15.543457c5.4848633,0,9.9481201,2.6906128,9.9536133,5.9988403  C22.7797852,22.2085571,19.1190186,23.5,13,23.5z"
     fill="#1D1D1B"
     id="path3"
     style="fill:#b3b3b3" /></svg>